{"glyphs":{"0":{"ha":806,"x_min":56,"x_max":750,"o":"m 750 488 q 723 266 750 360 q 648 111 695 172 q 538 20 601 50 q 403 -10 474 -10 q 268 20 331 -10 q 158 111 205 50 q 83 266 110 172 q 56 488 56 360 q 83 710 56 616 q 158 866 110 804 q 268 958 205 928 q 403 988 331 988 q 538 958 474 988 q 648 866 601 928 q 723 710 695 804 q 750 488 750 616 m 712 488 q 687 700 712 611 q 620 845 663 788 q 522 930 578 903 q 403 957 465 957 q 283 930 340 957 q 185 845 227 903 q 117 700 142 788 q 92 488 92 611 q 117 277 92 365 q 185 132 142 188 q 283 48 227 75 q 403 21 340 21 q 522 48 465 21 q 620 132 578 75 q 687 277 663 188 q 712 488 712 365 z "},"1":{"ha":806,"x_min":156,"x_max":685,"o":"m 685 28 l 685 0 l 192 0 l 192 28 l 424 28 l 424 888 q 425 910 424 899 q 427 932 426 921 l 189 718 q 177 714 183 713 q 167 719 171 715 l 156 733 l 434 981 l 460 981 l 460 28 l 685 28 z "},"2":{"ha":806,"x_min":88,"x_max":706,"o":"m 693 34 q 706 21 706 34 l 706 0 l 88 0 l 88 13 q 91 23 88 19 q 97 31 93 28 l 441 380 q 520 464 483 423 q 585 547 557 505 q 628 633 613 589 q 644 728 644 678 q 624 831 644 788 q 571 902 604 874 q 495 944 538 931 q 406 957 452 957 q 312 941 355 957 q 236 898 269 926 q 182 830 203 869 q 153 744 161 791 q 132 728 148 726 l 115 730 q 148 838 123 790 q 210 919 172 885 q 299 970 249 952 q 408 988 349 988 q 510 972 460 988 q 597 925 559 957 q 658 845 635 894 q 681 729 681 796 q 664 626 681 674 q 617 534 647 578 q 549 449 588 490 q 467 364 510 407 l 138 28 q 177 32 156 31 q 222 34 198 34 l 693 34 z "},"3":{"ha":806,"x_min":85,"x_max":706,"o":"m 118 730 q 151 838 126 790 q 214 919 176 885 q 302 970 252 952 q 411 988 352 988 q 512 973 464 988 q 598 928 560 958 q 657 852 635 898 q 679 742 679 806 q 663 655 679 694 q 617 585 646 615 q 551 535 589 555 q 472 506 513 515 q 572 478 528 499 q 646 425 616 457 q 691 352 676 394 q 706 263 706 311 q 682 156 706 206 q 618 69 659 106 q 521 10 577 32 q 398 -11 465 -11 q 297 0 340 -11 q 220 30 253 11 q 165 74 188 49 q 127 126 142 99 q 101 182 111 153 q 85 236 92 210 l 97 242 q 111 243 103 244 q 124 230 119 242 q 131 206 126 224 q 147 165 136 188 q 176 116 158 142 q 225 69 195 90 q 297 33 255 47 q 397 19 339 19 q 516 42 465 19 q 601 100 567 65 q 652 178 635 135 q 669 262 669 222 q 653 351 669 310 q 601 423 637 392 q 509 471 565 453 q 371 489 452 488 l 371 515 q 485 533 435 517 q 571 580 536 550 q 625 649 606 609 q 643 738 643 690 q 624 837 643 795 q 572 905 604 878 q 498 944 540 931 q 410 957 456 957 q 315 941 358 957 q 239 898 272 926 q 185 830 206 869 q 155 744 163 791 q 148 730 152 734 q 135 728 144 726 l 118 730 z "},"4":{"ha":806,"x_min":35,"x_max":758,"o":"m 531 322 l 531 891 q 531 909 531 900 q 533 928 532 918 l 76 322 l 531 322 m 758 322 l 758 305 q 744 293 758 293 l 563 293 l 563 0 l 531 0 l 531 293 l 55 293 q 43 296 47 293 q 38 303 40 299 l 35 320 l 534 978 l 563 978 l 563 322 l 758 322 z "},"5":{"ha":806,"x_min":110,"x_max":684,"o":"m 196 580 q 291 599 246 593 q 376 605 335 605 q 509 583 451 605 q 606 523 567 562 q 664 432 644 485 q 684 315 684 378 q 658 177 684 238 q 586 75 631 117 q 481 11 540 33 q 354 -11 421 -11 q 280 -5 315 -11 q 213 13 244 2 q 156 39 182 24 q 110 67 130 53 l 121 81 q 134 88 125 88 q 158 78 141 88 q 202 55 174 67 q 267 33 229 43 q 356 22 306 22 q 469 41 416 22 q 561 98 522 60 q 624 189 601 135 q 647 315 647 244 q 630 419 647 372 q 580 501 613 467 q 494 556 546 536 q 371 575 442 575 q 183 548 290 575 l 159 556 l 233 976 l 660 976 l 660 961 q 655 948 660 953 q 639 943 650 943 l 261 943 l 196 580 z "},"6":{"ha":806,"x_min":105,"x_max":718,"o":"m 402 19 q 519 39 467 19 q 607 94 571 59 q 662 178 643 130 q 681 285 681 227 q 662 394 681 345 q 609 476 643 442 q 527 529 574 510 q 422 547 479 547 q 302 524 355 547 q 214 464 250 501 q 159 382 178 427 q 140 291 140 336 q 159 182 140 232 q 211 97 177 133 q 294 40 246 60 q 402 19 342 19 m 267 588 q 216 516 238 549 q 178 451 194 483 q 225 503 198 481 q 284 542 252 526 q 353 567 317 558 q 428 576 389 576 q 547 555 493 576 q 638 495 600 533 q 697 404 676 457 q 718 287 718 351 q 695 166 718 221 q 630 72 672 111 q 530 11 588 33 q 402 -11 472 -11 q 282 10 336 -11 q 188 72 227 31 q 127 170 149 112 q 105 304 105 229 q 134 430 105 358 q 231 594 164 502 l 508 967 q 527 976 514 976 l 558 976 l 267 588 z "},"7":{"ha":806,"x_min":94,"x_max":736,"o":"m 736 976 l 736 960 q 734 948 736 953 q 731 940 733 943 l 260 15 q 235 0 253 0 l 213 0 l 685 924 q 691 934 688 929 q 697 943 694 939 l 106 943 q 94 956 94 943 l 94 976 l 736 976 z "},"8":{"ha":806,"x_min":92,"x_max":714,"o":"m 403 18 q 514 35 463 18 q 600 82 564 51 q 656 156 636 113 q 676 253 676 200 q 664 337 676 301 q 630 400 651 374 q 581 445 609 427 q 523 474 553 463 q 462 489 493 485 q 403 494 431 494 q 344 489 375 494 q 282 474 313 485 q 224 445 252 463 q 175 400 197 427 q 142 337 154 374 q 129 253 129 301 q 149 156 129 200 q 206 82 169 113 q 292 35 242 51 q 403 18 342 18 m 163 742 q 178 660 163 699 q 222 590 192 620 q 297 542 252 560 q 403 524 342 524 q 508 542 463 524 q 583 590 553 560 q 628 660 613 620 q 642 742 642 699 q 626 828 642 788 q 579 897 610 867 q 503 942 548 926 q 403 958 459 958 q 302 942 347 958 q 227 897 258 926 q 180 828 196 867 q 163 742 163 788 m 486 510 q 575 481 533 501 q 648 431 617 462 q 696 355 678 399 q 714 253 714 311 q 691 143 714 192 q 627 60 668 94 q 528 7 585 26 q 403 -11 472 -11 q 277 7 334 -11 q 179 60 220 26 q 115 143 138 94 q 92 253 92 192 q 109 355 92 311 q 158 431 127 399 q 231 481 189 462 q 319 510 272 501 q 238 542 274 521 q 177 594 202 564 q 140 662 153 624 q 128 742 128 699 q 147 838 128 793 q 201 916 165 883 q 287 968 236 949 q 403 988 338 988 q 518 968 467 988 q 605 916 569 949 q 659 838 640 883 q 678 742 678 793 q 665 662 678 699 q 628 594 653 624 q 568 542 603 564 q 486 510 532 521 z "},"9":{"ha":806,"x_min":101,"x_max":691,"o":"m 386 452 q 501 474 451 452 q 585 532 551 497 q 638 610 619 567 q 656 697 656 653 q 637 801 656 753 q 584 884 618 849 q 505 938 551 918 q 405 957 459 957 q 297 939 346 957 q 212 886 247 920 q 157 806 176 853 q 138 703 138 759 q 156 598 138 644 q 206 519 174 552 q 285 469 239 487 q 386 452 331 452 m 537 410 q 585 481 563 449 q 623 544 607 513 q 576 493 603 515 q 518 455 550 471 q 452 431 487 440 q 380 423 417 423 q 266 443 317 423 q 177 501 214 464 q 121 589 141 538 q 101 701 101 640 q 124 816 101 763 q 188 906 147 868 q 284 966 228 944 q 405 988 340 988 q 519 966 467 988 q 610 905 572 944 q 669 810 648 865 q 691 686 691 754 q 683 618 691 651 q 659 551 674 585 q 620 481 643 517 q 569 402 598 444 l 303 9 q 285 0 297 0 l 252 0 l 537 410 z "},"\u0000":{"ha":0,"x_min":0,"x_max":0,"o":""}," ":{"ha":388,"x_min":0,"x_max":0,"o":""},"A":{"ha":895,"x_min":25,"x_max":870,"o":"m 685 350 l 462 894 q 447 935 454 913 q 433 894 441 913 l 209 350 l 685 350 m 870 0 l 840 0 q 825 12 830 0 l 698 321 l 197 321 l 69 12 q 53 0 66 0 l 25 0 l 429 976 l 466 976 l 870 0 z "},"Ą":{"ha":895,"x_min":25,"x_max":953,"o":"m 685 350 l 462 894 q 447 935 454 913 q 433 894 441 913 l 209 350 l 685 350 m 953 -196 q 907 -223 935 -213 q 849 -233 879 -233 q 769 -208 800 -233 q 738 -136 738 -183 q 746 -94 738 -114 q 768 -56 755 -74 q 799 -24 782 -38 q 833 2 817 -9 q 828 6 830 3 q 825 12 826 8 l 698 321 l 197 321 l 69 12 q 53 0 66 0 l 25 0 l 429 976 l 466 976 l 870 0 l 865 0 q 834 -20 851 -8 q 802 -49 817 -33 q 777 -86 787 -66 q 767 -131 767 -107 q 792 -187 767 -167 q 854 -208 817 -208 q 890 -203 876 -208 q 915 -194 905 -199 q 930 -184 924 -189 q 940 -180 936 -180 q 947 -184 944 -180 l 953 -196 z "},"Æ":{"ha":1286,"x_min":13,"x_max":1211,"o":"m 660 350 l 583 946 q 574 921 579 933 q 562 897 569 910 l 252 350 l 660 350 m 1211 33 l 1210 0 l 705 0 l 664 321 l 236 321 l 60 10 q 44 0 55 0 l 13 0 l 565 976 l 1210 976 l 1210 944 l 619 944 l 675 511 l 1125 511 l 1125 479 l 679 479 l 737 33 l 1211 33 z "},"B":{"ha":867,"x_min":155,"x_max":778,"o":"m 456 31 q 666 90 593 31 q 740 261 740 149 q 720 352 740 312 q 664 421 700 392 q 575 465 627 449 q 457 480 522 480 l 193 480 l 193 31 l 456 31 m 193 946 l 193 509 l 424 509 q 550 529 498 509 q 634 580 601 549 q 682 651 667 612 q 697 728 697 690 q 629 890 697 833 q 419 946 560 946 l 193 946 m 419 976 q 657 913 579 976 q 735 731 735 849 q 719 652 735 690 q 677 583 704 615 q 610 530 649 552 q 523 499 571 508 q 630 473 583 492 q 710 424 677 454 q 760 352 743 394 q 778 260 778 311 q 756 150 778 198 q 693 68 735 101 q 592 17 652 35 q 456 0 533 0 l 155 0 l 155 976 l 419 976 z "},"C":{"ha":944,"x_min":89,"x_max":892,"o":"m 869 145 q 877 142 872 145 l 892 126 q 826 70 861 96 q 748 27 790 45 q 655 -1 706 9 q 544 -11 605 -11 q 361 24 445 -11 q 217 124 278 59 q 123 281 157 189 q 89 488 89 374 q 123 692 89 600 q 219 850 157 784 q 368 951 281 915 q 558 988 454 988 q 732 958 656 988 q 873 872 808 928 l 863 856 q 851 851 860 851 q 837 859 847 851 q 811 878 827 867 q 771 903 794 890 q 717 928 748 917 q 646 947 685 940 q 558 955 606 955 q 385 922 464 955 q 249 829 306 890 q 160 682 192 769 q 128 488 128 596 q 160 292 128 378 q 248 145 192 206 q 381 53 304 85 q 547 22 457 22 q 647 29 603 22 q 729 52 692 37 q 798 90 766 67 q 860 140 829 112 q 869 145 865 145 z "},"Ç":{"ha":944,"x_min":89,"x_max":892,"o":"m 540 -72 q 594 -83 570 -76 q 635 -101 619 -90 q 661 -126 652 -111 q 670 -162 670 -142 q 638 -226 670 -203 q 554 -249 605 -249 q 498 -239 526 -249 q 453 -215 470 -230 l 458 -206 q 467 -200 463 -200 q 476 -205 470 -200 q 492 -214 482 -209 q 518 -224 503 -219 q 556 -228 534 -228 q 618 -211 596 -228 q 640 -164 640 -194 q 630 -131 640 -144 q 602 -110 619 -118 q 561 -97 585 -101 q 510 -89 538 -92 l 535 -11 q 356 27 438 -9 q 214 127 274 63 q 122 283 155 192 q 89 488 89 375 q 123 692 89 600 q 219 850 157 784 q 368 951 281 915 q 558 988 454 988 q 732 958 656 988 q 873 872 808 928 l 863 856 q 851 851 860 851 q 837 859 847 851 q 811 878 827 867 q 771 903 794 890 q 717 928 748 917 q 646 947 685 940 q 558 955 606 955 q 385 922 464 955 q 249 829 306 890 q 160 682 192 769 q 128 488 128 596 q 160 292 128 378 q 248 145 192 206 q 381 53 304 85 q 547 22 457 22 q 647 29 603 22 q 729 52 692 37 q 798 90 766 67 q 860 140 829 112 q 869 145 865 145 q 877 142 872 145 l 892 126 q 828 72 862 97 q 753 29 794 47 q 665 1 713 11 q 559 -11 617 -10 l 540 -72 z "},"D":{"ha":1055,"x_min":155,"x_max":964,"o":"m 964 488 q 931 283 964 374 q 837 130 897 192 q 692 33 776 67 q 507 0 608 0 l 155 0 l 155 976 l 507 976 q 692 943 608 976 q 837 847 776 910 q 931 693 897 784 q 964 488 964 603 m 924 488 q 893 682 924 597 q 808 826 863 767 q 676 915 753 884 q 507 945 599 945 l 193 945 l 193 31 l 507 31 q 676 62 599 31 q 808 151 753 92 q 893 294 863 209 q 924 488 924 379 z "},"Ð":{"ha":1063,"x_min":6,"x_max":972,"o":"m 515 31 q 684 62 608 31 q 816 151 761 92 q 902 294 872 209 q 932 488 932 379 q 902 682 932 597 q 816 826 872 767 q 684 915 761 884 q 515 945 608 945 l 201 945 l 201 509 l 433 509 l 433 483 l 201 483 l 201 31 l 515 31 m 515 976 q 701 943 617 976 q 845 847 785 910 q 939 693 906 784 q 972 488 972 603 q 939 283 972 374 q 845 130 906 192 q 701 33 785 67 q 515 0 617 0 l 163 0 l 163 483 l 6 483 l 6 509 l 163 509 l 163 976 l 515 976 z "},"E":{"ha":808,"x_min":155,"x_max":733,"o":"m 733 33 l 731 0 l 155 0 l 155 976 l 731 976 l 731 944 l 193 944 l 193 511 l 647 511 l 647 479 l 193 479 l 193 33 l 733 33 z "},"Ę":{"ha":808,"x_min":155,"x_max":757,"o":"m 757 -196 q 711 -223 739 -213 q 652 -233 683 -233 q 572 -208 603 -233 q 541 -136 541 -183 q 549 -95 541 -115 q 571 -58 558 -75 q 601 -26 584 -40 q 634 0 617 -11 l 155 0 l 155 976 l 731 976 l 731 944 l 193 944 l 193 511 l 647 511 l 647 479 l 193 479 l 193 33 l 733 33 l 731 0 l 668 0 q 637 -20 654 -8 q 605 -49 620 -33 q 580 -86 590 -66 q 570 -131 570 -107 q 595 -187 570 -167 q 658 -208 620 -208 q 694 -203 679 -208 q 718 -194 708 -199 q 734 -184 728 -189 q 743 -180 740 -180 q 750 -184 747 -180 l 757 -196 z "},"F":{"ha":783,"x_min":155,"x_max":731,"o":"m 193 944 l 193 497 l 662 497 l 662 464 l 193 464 l 193 0 l 155 0 l 155 976 l 731 976 l 731 944 l 193 944 z "},"G":{"ha":1025,"x_min":90,"x_max":928,"o":"m 928 429 l 928 96 q 772 18 856 47 q 584 -11 689 -11 q 378 24 469 -11 q 222 124 286 59 q 124 281 158 189 q 90 488 90 374 q 123 695 90 603 q 220 852 157 787 q 373 952 283 917 q 574 988 463 988 q 675 981 629 988 q 761 959 722 974 q 836 924 801 945 q 903 874 871 902 l 894 859 q 878 853 888 851 q 852 872 871 856 q 799 906 834 888 q 708 940 763 924 q 574 955 653 955 q 389 923 472 955 q 249 831 307 891 q 160 684 191 770 q 128 488 128 597 q 160 293 128 380 q 250 145 191 206 q 393 52 308 85 q 583 20 477 20 q 673 26 631 20 q 751 44 714 33 q 822 73 788 56 q 892 112 857 90 l 892 399 l 686 399 q 678 402 681 399 q 674 410 674 406 l 674 429 l 928 429 z "},"H":{"ha":1043,"x_min":155,"x_max":888,"o":"m 888 976 l 888 0 l 849 0 l 849 480 l 193 480 l 193 0 l 155 0 l 155 976 l 193 976 l 193 510 l 849 510 l 849 976 l 888 976 z "},"Ħ":{"ha":1047,"x_min":28,"x_max":1019,"o":"m 851 723 l 195 723 l 195 510 l 851 510 l 851 723 m 1019 723 l 890 723 l 890 0 l 851 0 l 851 480 l 195 480 l 195 0 l 157 0 l 157 723 l 28 723 l 28 748 l 157 748 l 157 976 l 195 976 l 195 748 l 851 748 l 851 976 l 890 976 l 890 748 l 1019 748 l 1019 723 z "},"I":{"ha":348,"x_min":155,"x_max":193,"o":"m 193 0 l 155 0 l 155 976 l 193 976 l 193 0 z "},"Į":{"ha":349,"x_min":64,"x_max":280,"o":"m 280 -196 q 234 -223 262 -213 q 175 -233 206 -233 q 95 -208 126 -233 q 64 -136 64 -183 q 72 -95 64 -115 q 94 -58 81 -75 q 124 -26 107 -40 q 157 0 140 -11 l 156 0 l 156 976 l 194 976 l 194 0 l 191 0 q 160 -20 177 -8 q 128 -49 143 -33 q 103 -86 113 -66 q 93 -131 93 -107 q 118 -187 93 -167 q 181 -208 143 -208 q 217 -203 202 -208 q 241 -194 231 -199 q 257 -184 251 -189 q 266 -180 263 -180 q 273 -184 270 -180 l 280 -196 z "},"J":{"ha":570,"x_min":19,"x_max":426,"o":"m 426 319 q 406 176 426 238 q 348 72 385 114 q 259 10 311 31 q 142 -11 206 -11 q 19 10 83 -11 q 20 18 19 14 q 22 28 21 23 q 25 35 23 31 q 34 38 26 38 q 49 35 40 38 q 71 30 58 33 q 100 24 83 26 q 140 21 117 21 q 242 39 197 21 q 320 95 288 58 q 369 188 352 132 q 387 319 387 244 l 387 976 l 426 976 l 426 319 z "},"K":{"ha":862,"x_min":155,"x_max":843,"o":"m 193 513 l 256 513 q 278 514 269 513 q 295 517 288 515 q 310 525 303 520 q 324 538 317 530 l 755 962 q 770 973 763 970 q 788 976 778 976 l 815 976 l 360 528 q 339 510 348 517 q 318 501 331 504 q 341 491 331 497 q 361 473 351 485 l 843 0 l 815 0 q 796 3 802 0 q 784 13 790 6 l 331 454 q 317 467 324 462 q 303 476 311 472 q 285 481 296 479 q 258 483 274 483 l 193 483 l 193 0 l 155 0 l 155 976 l 193 976 l 193 513 z "},"L":{"ha":698,"x_min":155,"x_max":677,"o":"m 677 33 l 677 0 l 155 0 l 155 976 l 193 976 l 193 33 l 677 33 z "},"Ł":{"ha":713,"x_min":32,"x_max":692,"o":"m 692 33 l 692 0 l 170 0 l 170 419 l 32 347 l 32 369 q 42 385 32 380 l 170 454 l 170 976 l 208 976 l 208 471 l 510 630 l 510 607 q 508 598 510 601 q 499 590 506 594 l 208 437 l 208 33 l 692 33 z "},"Ľ":{"ha":698,"x_min":155,"x_max":677,"o":"m 677 33 l 677 0 l 155 0 l 155 976 l 193 976 l 193 33 l 677 33 m 422 1006 q 432 1001 429 1006 q 435 989 435 997 q 432 968 435 981 q 425 935 430 956 q 413 886 421 915 q 395 817 406 857 q 390 808 393 812 q 378 805 386 805 l 367 805 l 401 1006 l 422 1006 z "},"M":{"ha":1247,"x_min":155,"x_max":1092,"o":"m 1092 976 l 1092 0 l 1059 0 l 1059 893 q 1059 904 1059 899 q 1060 915 1060 910 l 650 197 q 633 185 643 185 l 626 185 q 609 197 616 185 l 187 917 q 188 905 188 910 q 188 893 188 899 l 188 0 l 155 0 l 155 976 l 178 976 q 187 975 183 976 q 194 967 191 973 l 618 248 q 630 222 624 235 q 635 235 633 228 q 642 249 638 242 l 1053 967 q 1060 975 1056 973 q 1069 976 1064 976 l 1092 976 z "},"N":{"ha":1043,"x_min":155,"x_max":888,"o":"m 888 976 l 888 0 l 872 0 q 857 8 863 0 l 187 914 q 188 901 188 908 q 188 889 188 894 l 188 0 l 155 0 l 155 976 l 172 976 q 181 975 178 976 q 189 967 185 973 l 856 65 q 855 78 856 72 q 855 90 855 84 l 855 976 l 888 976 z "},"Ŋ":{"ha":1043,"x_min":155,"x_max":888,"o":"m 888 976 l 888 -39 q 844 -194 888 -139 q 711 -250 799 -250 q 663 -245 685 -250 q 615 -231 640 -240 l 619 -217 q 624 -209 621 -210 q 630 -208 627 -208 q 655 -215 635 -208 q 708 -222 675 -222 q 817 -177 778 -222 q 855 -42 855 -132 l 855 11 l 187 914 q 188 901 188 908 q 188 889 188 894 l 188 0 l 155 0 l 155 976 l 172 976 q 181 975 178 976 q 189 967 185 973 l 856 65 q 855 78 856 72 q 855 90 855 84 l 855 976 l 888 976 z "},"O":{"ha":1093,"x_min":90,"x_max":1003,"o":"m 1003 488 q 970 282 1003 374 q 876 125 937 190 q 732 25 816 60 q 546 -10 648 -10 q 361 25 445 -10 q 217 125 277 60 q 123 282 156 190 q 90 488 90 374 q 123 694 90 602 q 217 852 156 787 q 361 952 277 917 q 546 988 445 988 q 732 952 648 988 q 876 852 816 917 q 970 695 937 788 q 1003 488 1003 603 m 963 488 q 933 684 963 597 q 848 831 903 770 q 716 923 792 891 q 546 955 639 955 q 377 923 454 955 q 245 831 301 891 q 159 684 190 770 q 128 488 128 597 q 159 293 128 379 q 245 147 190 206 q 377 55 301 87 q 546 23 454 23 q 716 55 639 23 q 848 147 792 87 q 933 293 903 206 q 963 488 963 379 z "},"Ø":{"ha":1093,"x_min":90,"x_max":1003,"o":"m 287 108 q 404 45 339 67 q 546 23 469 23 q 716 55 639 23 q 848 147 792 87 q 933 293 903 206 q 963 488 963 379 q 930 693 963 603 q 835 843 897 782 l 287 108 m 815 862 q 694 931 763 908 q 546 955 626 955 q 377 923 454 955 q 245 831 301 891 q 159 684 190 770 q 128 488 128 597 q 165 278 128 369 q 266 126 201 187 l 815 862 m 858 872 q 965 709 927 806 q 1003 488 1003 613 q 970 282 1003 374 q 876 125 937 190 q 732 25 816 60 q 546 -10 648 -10 q 393 14 464 -10 q 265 81 322 37 l 163 -58 q 150 -68 157 -65 q 136 -72 143 -72 l 118 -72 l 244 98 q 130 262 171 163 q 90 488 90 360 q 123 694 90 602 q 217 852 156 787 q 361 952 277 917 q 546 988 445 988 q 706 963 633 988 q 837 890 778 938 l 924 1008 q 934 1018 930 1015 q 947 1021 938 1021 l 969 1021 l 858 872 z "},"Œ":{"ha":1537,"x_min":91,"x_max":1461,"o":"m 507 24 q 660 55 591 24 q 779 147 729 87 q 856 293 828 207 q 883 488 883 379 q 856 684 883 597 q 779 831 828 771 q 660 924 729 892 q 507 956 591 956 q 355 924 424 956 q 235 831 285 892 q 158 684 185 771 q 130 488 130 597 q 158 293 130 379 q 235 147 185 207 q 355 55 285 87 q 507 24 424 24 m 1461 33 l 1460 0 l 888 0 l 888 288 q 830 163 866 217 q 744 70 794 108 q 634 12 695 32 q 502 -8 573 -8 q 335 26 411 -8 q 206 125 260 61 q 121 282 151 190 q 91 488 91 374 q 121 694 91 602 q 206 852 151 787 q 335 952 260 917 q 502 988 411 988 q 634 967 573 988 q 744 909 695 947 q 830 815 794 870 q 888 690 866 760 l 888 976 l 1460 976 l 1460 944 l 922 944 l 922 511 l 1375 511 l 1375 479 l 922 479 l 922 33 l 1461 33 z "},"P":{"ha":787,"x_min":155,"x_max":725,"o":"m 388 440 q 512 459 457 440 q 606 513 567 478 q 665 593 644 547 q 686 693 686 640 q 612 881 686 817 q 388 946 538 946 l 193 946 l 193 440 l 388 440 m 388 976 q 639 906 553 976 q 725 693 725 835 q 701 579 725 631 q 633 489 677 526 q 526 430 588 451 q 388 408 464 408 l 193 408 l 193 0 l 155 0 l 155 976 l 388 976 z "},"Þ":{"ha":787,"x_min":155,"x_max":725,"o":"m 388 235 q 512 254 457 235 q 606 308 567 274 q 665 388 644 342 q 686 488 686 435 q 612 676 686 612 q 388 741 538 741 l 193 741 l 193 235 l 388 235 m 388 772 q 639 701 553 772 q 725 488 725 630 q 701 374 725 426 q 633 284 677 322 q 526 225 588 246 q 388 203 464 203 l 193 203 l 193 0 l 155 0 l 155 976 l 193 976 l 193 772 l 388 772 z "},"Q":{"ha":1093,"x_min":90,"x_max":1040,"o":"m 128 488 q 159 293 128 379 q 245 147 190 206 q 377 55 301 87 q 546 23 454 23 q 716 55 639 23 q 848 147 792 87 q 933 293 903 206 q 963 488 963 379 q 933 684 963 597 q 848 831 903 770 q 716 923 792 891 q 546 955 639 955 q 377 923 454 955 q 245 831 301 891 q 159 684 190 770 q 128 488 128 597 m 1040 -222 l 1008 -222 q 981 -212 991 -222 l 751 34 q 654 1 706 13 q 546 -10 603 -10 q 361 25 445 -10 q 217 125 277 60 q 123 282 156 190 q 90 488 90 374 q 123 694 90 602 q 217 852 156 787 q 361 952 277 917 q 546 988 445 988 q 732 952 648 988 q 876 852 816 917 q 970 695 937 788 q 1003 488 1003 603 q 988 345 1003 412 q 944 223 973 278 q 875 124 916 167 q 783 51 835 81 l 1040 -222 z "},"R":{"ha":829,"x_min":155,"x_max":803,"o":"m 193 489 l 379 489 q 503 505 448 489 q 597 552 558 522 q 656 627 635 583 q 676 726 676 671 q 603 892 676 839 q 390 946 529 946 l 193 946 l 193 489 m 803 0 l 772 0 q 758 2 764 0 q 747 12 752 4 l 402 433 q 391 446 397 441 q 377 454 385 451 q 360 458 370 457 q 335 460 350 460 l 193 460 l 193 0 l 155 0 l 155 976 l 390 976 q 632 915 549 976 q 715 727 715 853 q 693 623 715 669 q 633 541 672 576 q 538 486 594 507 q 415 462 483 466 q 440 441 428 455 l 803 0 z "},"S":{"ha":738,"x_min":71,"x_max":654,"o":"m 616 875 q 604 868 612 868 q 583 882 597 868 q 545 912 569 895 q 483 942 521 928 q 388 956 444 956 q 287 939 331 956 q 213 892 243 922 q 168 825 183 863 q 153 746 153 788 q 174 657 153 692 q 231 597 196 621 q 311 556 267 572 q 403 523 356 539 q 495 490 451 508 q 576 445 540 472 q 633 378 611 418 q 654 279 654 338 q 634 166 654 219 q 574 73 613 113 q 478 11 535 34 q 349 -11 422 -11 q 260 -2 300 -11 q 186 23 220 6 q 125 63 153 39 q 71 116 97 86 l 80 130 q 86 135 83 133 q 93 137 88 137 q 107 128 98 137 q 129 107 115 119 q 163 79 143 94 q 209 51 182 64 q 270 30 235 38 q 350 21 306 21 q 463 41 413 21 q 548 95 513 60 q 600 175 582 129 q 618 273 618 221 q 597 365 618 328 q 540 425 575 401 q 460 466 505 449 q 368 497 415 482 q 276 530 321 512 q 195 575 231 547 q 139 643 160 602 q 117 744 117 683 q 135 836 117 792 q 188 914 153 880 q 273 967 222 947 q 388 988 323 988 q 518 964 462 988 q 624 890 575 940 l 616 875 z "},"Ş":{"ha":738,"x_min":71,"x_max":654,"o":"m 616 875 q 604 868 612 868 q 583 882 597 868 q 545 912 569 895 q 483 942 521 928 q 388 956 444 956 q 287 939 331 956 q 213 892 243 922 q 168 825 183 863 q 153 746 153 788 q 174 657 153 692 q 231 597 196 621 q 311 556 267 572 q 403 523 356 539 q 495 490 451 508 q 576 445 540 472 q 633 378 611 418 q 654 279 654 338 q 636 173 654 223 q 585 85 619 124 q 502 22 551 47 q 390 -9 453 -3 l 371 -72 q 425 -83 401 -76 q 466 -101 449 -90 q 492 -126 483 -111 q 501 -162 501 -142 q 468 -226 501 -203 q 385 -249 435 -249 q 328 -239 356 -249 q 284 -215 301 -230 l 289 -206 q 297 -200 293 -200 q 307 -205 301 -200 q 323 -214 313 -209 q 349 -224 333 -219 q 387 -228 365 -228 q 448 -211 426 -228 q 470 -164 470 -194 q 460 -131 470 -144 q 433 -110 450 -118 q 392 -97 415 -101 q 341 -89 368 -92 l 365 -10 q 357 -11 361 -11 q 349 -11 353 -11 q 260 -2 300 -11 q 186 23 220 6 q 125 63 153 39 q 71 116 97 86 l 80 130 q 86 135 83 133 q 93 137 88 137 q 107 128 98 137 q 129 107 115 119 q 163 79 143 94 q 209 51 182 64 q 270 30 235 38 q 350 21 306 21 q 463 41 413 21 q 548 95 513 60 q 600 175 582 129 q 618 273 618 221 q 597 365 618 328 q 540 425 575 401 q 460 466 505 449 q 368 497 415 482 q 276 530 321 512 q 195 575 231 547 q 139 643 160 602 q 117 744 117 683 q 135 836 117 792 q 188 914 153 880 q 273 967 222 947 q 388 988 323 988 q 518 964 462 988 q 624 890 575 940 l 616 875 z "},"T":{"ha":796,"x_min":20,"x_max":776,"o":"m 776 943 l 418 943 l 418 0 l 380 0 l 380 943 l 20 943 l 20 976 l 776 976 l 776 943 z "},"Ŧ":{"ha":822,"x_min":33,"x_max":789,"o":"m 431 943 l 431 590 l 675 590 l 675 563 l 431 563 l 431 0 l 393 0 l 393 563 l 147 563 l 147 590 l 393 590 l 393 943 l 33 943 l 33 976 l 789 976 l 789 943 l 431 943 z "},"U":{"ha":1004,"x_min":142,"x_max":862,"o":"m 502 22 q 637 49 578 22 q 738 122 697 76 q 801 232 779 169 q 823 367 823 294 l 823 976 l 862 976 l 862 367 q 837 218 862 288 q 765 98 812 149 q 652 17 718 47 q 502 -12 585 -12 q 352 17 419 -12 q 239 98 285 47 q 167 218 192 149 q 142 367 142 288 l 142 976 l 181 976 l 181 368 q 202 233 181 296 q 266 123 224 169 q 367 49 307 76 q 502 22 426 22 z "},"Ų":{"ha":1004,"x_min":142,"x_max":862,"o":"m 862 976 l 862 367 q 839 226 862 292 q 775 110 817 160 q 673 27 733 59 q 538 -11 613 -5 q 508 -32 524 -19 q 478 -60 492 -44 q 457 -95 465 -76 q 448 -137 448 -115 q 473 -194 448 -174 q 535 -214 498 -214 q 572 -210 557 -214 q 596 -200 586 -206 q 611 -191 606 -195 q 621 -186 617 -186 q 628 -190 625 -186 l 635 -202 q 589 -229 617 -219 q 530 -239 560 -239 q 450 -214 481 -239 q 419 -142 419 -190 q 426 -103 419 -122 q 445 -68 433 -85 q 472 -38 457 -52 q 503 -12 487 -24 l 502 -12 q 352 17 419 -12 q 239 98 285 47 q 167 218 192 149 q 142 367 142 288 l 142 976 l 181 976 l 181 368 q 202 233 181 296 q 266 123 224 169 q 367 49 307 76 q 502 22 426 22 q 637 49 578 22 q 738 122 697 76 q 801 232 779 169 q 823 367 823 294 l 823 976 l 862 976 z "},"V":{"ha":895,"x_min":25,"x_max":870,"o":"m 870 976 l 465 0 l 431 0 l 25 976 l 55 976 q 70 965 67 976 l 433 90 q 441 68 437 79 q 448 44 444 56 q 463 90 454 68 l 824 965 q 841 976 828 976 l 870 976 z "},"W":{"ha":1399,"x_min":39,"x_max":1360,"o":"m 1360 976 l 1051 0 l 1017 0 l 708 901 q 700 929 703 915 q 692 901 697 915 l 381 0 l 348 0 l 39 976 l 70 976 q 85 965 82 976 l 355 97 q 367 47 362 74 q 373 74 369 61 q 379 97 376 86 l 680 965 q 697 976 683 976 l 706 976 q 721 965 717 976 l 1022 97 q 1034 48 1028 76 q 1040 74 1037 62 q 1046 97 1042 86 l 1315 965 q 1332 976 1319 976 l 1360 976 z "},"X":{"ha":847,"x_min":35,"x_max":810,"o":"m 810 0 l 773 0 q 763 5 766 0 q 756 13 759 9 l 423 483 q 416 469 421 474 l 88 13 q 80 4 84 8 q 71 0 76 0 l 35 0 l 397 500 l 51 976 l 89 976 q 99 973 96 976 q 106 965 102 969 l 424 519 q 427 526 426 522 q 432 534 429 530 l 742 965 q 749 973 745 969 q 758 976 753 976 l 794 976 l 451 503 l 810 0 z "},"Y":{"ha":806,"x_min":21,"x_max":785,"o":"m 422 410 l 422 0 l 383 0 l 383 410 l 21 976 l 53 976 q 63 974 60 976 q 70 966 67 972 l 379 481 q 392 458 386 469 q 403 436 399 447 q 414 459 408 448 q 426 481 419 469 l 735 966 q 751 976 741 976 l 785 976 l 422 410 z "},"Z":{"ha":827,"x_min":53,"x_max":768,"o":"m 768 965 q 761 945 768 956 l 106 33 l 765 33 l 765 0 l 53 0 l 53 12 q 55 21 53 17 q 60 29 56 25 l 716 944 l 68 944 l 68 976 l 768 976 l 768 965 z "},"a":{"ha":663,"x_min":66,"x_max":548,"o":"m 512 343 q 202 291 302 336 q 101 164 101 246 q 114 98 101 126 q 148 52 127 70 q 197 25 169 33 q 252 16 224 16 q 333 26 297 16 q 401 53 370 36 q 460 94 433 71 q 512 144 487 118 l 512 343 m 102 588 q 210 668 153 640 q 338 696 266 696 q 431 679 392 696 q 497 630 471 662 q 535 552 523 598 q 548 450 548 507 l 548 0 l 535 0 q 519 15 522 0 l 513 116 q 456 63 484 87 q 395 23 427 40 q 326 -2 363 7 q 245 -11 290 -11 q 181 -1 213 -11 q 123 29 149 8 q 82 83 97 50 q 66 163 66 116 q 92 244 66 208 q 173 308 118 281 q 312 350 228 335 q 512 369 396 366 l 512 450 q 467 610 512 553 q 335 667 423 667 q 246 652 283 667 q 183 618 208 637 q 143 585 158 600 q 121 570 128 570 q 108 578 114 570 l 102 588 z "},"ą":{"ha":663,"x_min":66,"x_max":637,"o":"m 512 343 q 202 291 302 336 q 101 164 101 246 q 114 98 101 126 q 148 52 127 70 q 197 25 169 33 q 252 16 224 16 q 333 26 297 16 q 401 53 370 36 q 460 94 433 71 q 512 144 487 118 l 512 343 m 637 -196 q 591 -223 619 -213 q 532 -233 563 -233 q 452 -208 483 -233 q 421 -136 421 -183 q 430 -92 421 -113 q 454 -53 440 -71 q 487 -20 469 -35 q 523 6 505 -6 q 519 15 521 8 l 513 116 q 456 63 484 87 q 395 23 427 40 q 326 -2 363 7 q 245 -11 290 -11 q 181 -1 213 -11 q 123 29 149 8 q 82 83 97 50 q 66 163 66 116 q 92 244 66 208 q 173 308 118 281 q 312 350 228 335 q 512 369 396 366 l 512 450 q 467 610 512 553 q 335 667 423 667 q 246 652 283 667 q 183 618 208 637 q 143 585 158 600 q 121 570 128 570 q 108 578 114 570 l 102 588 q 210 668 153 640 q 338 696 266 696 q 431 679 392 696 q 497 630 471 662 q 535 552 523 598 q 548 450 548 507 l 548 0 q 517 -20 534 -8 q 485 -49 500 -33 q 460 -86 470 -66 q 450 -131 450 -107 q 475 -187 450 -167 q 538 -208 500 -208 q 574 -203 559 -208 q 598 -194 588 -199 q 614 -184 608 -189 q 623 -180 619 -180 q 630 -184 627 -180 l 637 -196 z "},"æ":{"ha":1106,"x_min":69,"x_max":1032,"o":"m 1000 394 q 984 512 1000 461 q 939 598 967 563 q 873 650 911 633 q 791 668 835 668 q 694 649 737 668 q 620 593 651 629 q 571 507 589 557 q 549 394 553 456 l 1000 394 m 513 369 q 331 351 408 366 q 204 310 254 335 q 129 252 153 285 q 104 177 104 218 q 117 103 104 134 q 153 53 130 73 q 207 25 176 34 q 275 16 238 16 q 368 33 324 16 q 443 82 411 50 q 494 159 476 113 q 513 261 513 204 l 513 369 m 103 588 q 210 668 155 640 q 338 696 265 696 q 419 682 383 696 q 479 643 454 669 q 519 581 504 617 q 538 497 533 544 q 575 580 551 543 q 630 642 598 616 q 702 682 662 668 q 791 696 742 696 q 885 676 841 696 q 961 616 928 656 q 1013 519 994 577 q 1032 385 1032 461 q 1021 370 1032 370 l 547 370 l 547 356 q 565 212 547 274 q 615 107 583 149 q 693 43 648 65 q 795 21 739 21 q 881 33 845 21 q 942 60 917 45 q 980 86 966 74 q 998 99 993 99 q 1007 94 1003 99 l 1015 84 q 980 50 1003 67 q 927 20 957 33 q 864 0 898 8 q 793 -8 829 -8 q 629 48 696 -8 q 535 210 563 104 q 498 106 526 148 q 431 37 469 63 q 350 0 393 11 q 269 -11 307 -11 q 192 -1 228 -11 q 128 31 156 9 q 85 89 101 53 q 69 176 69 124 q 95 260 69 221 q 175 328 121 299 q 313 375 229 357 q 513 395 397 392 l 513 450 q 469 610 513 553 q 337 667 424 667 q 247 652 285 667 q 185 619 210 637 q 145 585 160 601 q 122 570 130 570 q 110 578 115 570 l 103 588 z "},"b":{"ha":759,"x_min":122,"x_max":678,"o":"m 159 142 q 254 48 201 75 q 374 20 307 20 q 492 45 442 20 q 575 114 542 69 q 625 221 608 158 q 641 360 641 283 q 580 589 641 512 q 406 667 518 667 q 265 627 325 667 q 159 517 205 588 l 159 142 m 159 553 q 267 658 205 619 q 414 696 329 696 q 526 674 476 696 q 609 609 575 651 q 661 504 643 566 q 678 362 678 442 q 659 210 678 278 q 601 93 640 142 q 508 18 563 45 q 380 -8 452 -8 q 158 109 233 -8 l 154 13 q 151 4 153 8 q 142 0 149 0 l 122 0 l 122 1004 l 159 1004 l 159 553 z "},"c":{"ha":651,"x_min":80,"x_max":594,"o":"m 574 610 q 570 606 572 608 q 565 604 568 604 q 547 614 559 604 q 515 635 535 624 q 462 657 494 647 q 385 667 430 667 q 271 644 321 667 q 187 579 222 622 q 135 477 153 537 q 117 342 117 417 q 135 205 117 265 q 187 104 153 145 q 268 42 221 63 q 374 20 316 20 q 463 32 427 20 q 522 59 499 44 q 558 86 546 74 q 576 99 571 99 q 585 94 582 99 l 594 84 q 559 50 581 67 q 509 20 538 33 q 445 0 480 8 q 370 -8 410 -8 q 251 15 304 -8 q 159 84 197 39 q 101 194 122 129 q 80 342 80 260 q 100 487 80 422 q 160 598 121 552 q 255 670 199 644 q 383 696 311 696 q 497 675 447 696 q 583 622 547 655 l 574 610 z "},"ç":{"ha":651,"x_min":80,"x_max":594,"o":"m 594 84 q 562 52 582 67 q 516 24 542 36 q 458 3 490 11 q 390 -8 426 -6 l 371 -72 q 425 -83 401 -76 q 466 -101 449 -90 q 492 -126 483 -111 q 501 -162 501 -142 q 468 -226 501 -203 q 385 -249 435 -249 q 329 -239 356 -249 q 285 -215 301 -230 l 289 -206 q 298 -200 293 -200 q 307 -205 301 -200 q 324 -214 313 -209 q 349 -224 334 -219 q 387 -228 365 -228 q 448 -211 426 -228 q 470 -164 470 -194 q 460 -131 470 -144 q 433 -110 450 -118 q 392 -97 415 -101 q 341 -89 368 -92 l 367 -8 q 249 16 302 -8 q 158 85 196 40 q 100 195 121 131 q 80 342 80 260 q 100 487 80 422 q 160 598 121 552 q 255 670 199 644 q 383 696 311 696 q 497 675 447 696 q 583 622 547 655 l 574 610 q 570 606 572 608 q 565 604 568 604 q 547 614 559 604 q 515 635 535 624 q 462 657 494 647 q 385 667 430 667 q 271 644 321 667 q 187 579 222 622 q 135 477 153 537 q 117 342 117 417 q 135 205 117 265 q 187 104 153 145 q 268 42 221 63 q 374 20 316 20 q 463 32 427 20 q 522 59 499 44 q 558 86 546 74 q 576 99 571 99 q 585 94 582 99 l 594 84 z "},"d":{"ha":759,"x_min":81,"x_max":637,"o":"m 600 547 q 505 640 557 613 q 385 667 453 667 q 268 643 318 667 q 185 574 218 618 q 135 471 151 531 q 118 341 118 411 q 180 99 118 178 q 359 21 241 21 q 493 60 431 21 q 600 170 554 100 l 600 547 m 637 1004 l 637 0 l 620 0 q 606 14 606 0 l 601 136 q 492 30 556 69 q 351 -8 428 -8 q 151 78 221 -8 q 81 341 81 164 q 100 481 81 416 q 157 593 119 545 q 250 668 194 641 q 380 696 306 696 q 507 668 453 696 q 600 583 561 640 l 600 1004 l 637 1004 z "},"ď":{"ha":759,"x_min":81,"x_max":808,"o":"m 600 547 q 505 640 557 613 q 385 667 453 667 q 268 643 318 667 q 185 574 218 618 q 135 471 151 531 q 118 341 118 411 q 180 99 118 178 q 359 21 241 21 q 493 60 431 21 q 600 170 554 100 l 600 547 m 637 1004 l 637 0 l 620 0 q 606 14 606 0 l 601 136 q 492 30 556 69 q 351 -8 428 -8 q 151 78 221 -8 q 81 341 81 164 q 100 481 81 416 q 157 593 119 545 q 250 668 194 641 q 380 696 306 696 q 507 668 453 696 q 600 583 561 640 l 600 1004 l 637 1004 m 794 1006 q 805 1001 802 1006 q 808 989 808 997 q 805 968 808 981 q 798 935 803 956 q 786 886 794 915 q 768 817 778 857 q 763 808 766 812 q 751 805 759 805 l 740 805 l 774 1006 l 794 1006 z "},"đ":{"ha":759,"x_min":81,"x_max":745,"o":"m 601 542 q 556 599 579 576 q 506 637 533 622 q 449 658 479 651 q 385 665 419 665 q 268 640 318 665 q 185 572 218 615 q 135 469 151 528 q 118 340 118 410 q 180 99 118 176 q 359 21 242 21 q 494 60 433 21 q 601 171 555 100 l 601 542 m 745 809 l 637 809 l 637 0 l 620 0 q 606 14 608 0 l 602 137 q 493 31 556 69 q 352 -8 429 -8 q 151 77 222 -8 q 81 340 81 163 q 100 479 81 415 q 157 591 119 544 q 251 666 195 639 q 381 693 307 693 q 601 580 525 693 l 601 809 l 424 809 l 424 835 l 601 835 l 601 1004 l 637 1004 l 637 835 l 745 835 l 745 809 z "},"ð":{"ha":775,"x_min":81,"x_max":682,"o":"m 375 22 q 492 48 442 22 q 576 123 542 74 q 629 239 610 172 q 649 389 647 306 q 618 466 639 427 q 564 537 597 506 q 485 589 531 569 q 383 608 440 608 q 267 585 317 608 q 184 523 217 563 q 134 428 151 483 q 117 312 117 374 q 138 189 117 243 q 194 98 159 135 q 276 41 230 61 q 375 22 323 22 m 478 860 q 560 787 522 829 q 624 690 597 745 q 667 567 651 635 q 682 414 682 498 q 663 242 682 320 q 607 109 644 165 q 511 23 569 53 q 375 -8 453 -8 q 261 15 315 -8 q 167 78 207 37 q 104 179 127 120 q 81 313 81 238 q 100 439 81 380 q 158 543 120 499 q 251 612 196 587 q 378 638 306 638 q 455 627 415 638 q 532 593 495 616 q 600 534 569 570 q 651 448 631 499 q 633 581 648 521 q 592 689 617 641 q 532 775 567 738 q 457 841 498 813 l 349 735 l 343 744 q 339 754 339 749 q 344 763 338 759 l 436 854 q 339 900 390 882 q 231 928 287 918 q 222 933 226 929 q 219 946 217 938 l 223 958 q 344 928 284 949 q 458 874 404 908 l 558 973 l 565 963 q 561 943 571 953 l 478 860 z "},"e":{"ha":719,"x_min":80,"x_max":648,"o":"m 615 408 q 597 518 615 470 q 548 600 579 567 q 475 651 517 633 q 383 668 433 668 q 279 650 325 668 q 199 597 233 631 q 145 515 166 563 q 119 408 125 467 l 615 408 m 630 84 q 591 50 616 67 q 534 20 566 33 q 464 0 501 8 q 386 -8 426 -8 q 259 16 316 -8 q 163 88 203 41 q 101 202 123 134 q 80 356 80 269 q 100 493 80 431 q 160 601 121 556 q 255 671 199 646 q 383 696 311 696 q 486 676 438 696 q 571 619 535 657 q 627 526 607 581 q 648 399 648 470 q 635 384 648 384 l 117 384 q 116 370 116 377 q 116 356 116 364 q 135 212 116 274 q 190 107 155 149 q 276 43 226 65 q 388 21 326 21 q 483 33 443 21 q 551 60 524 45 q 593 86 578 74 q 612 99 608 99 q 621 94 617 99 l 630 84 z "},"ę":{"ha":719,"x_min":80,"x_max":648,"o":"m 615 408 q 597 518 615 470 q 548 600 579 567 q 475 651 517 633 q 383 668 433 668 q 279 650 325 668 q 199 597 233 631 q 145 515 166 563 q 119 408 125 467 l 615 408 m 544 -196 q 498 -223 526 -213 q 440 -233 470 -233 q 360 -208 391 -233 q 328 -136 328 -183 q 335 -98 328 -116 q 354 -63 342 -79 q 380 -33 365 -47 q 410 -8 395 -19 q 399 -8 405 -8 q 386 -8 392 -8 q 259 16 316 -8 q 163 88 203 41 q 101 202 123 134 q 80 356 80 269 q 100 493 80 431 q 160 601 121 556 q 255 671 199 646 q 383 696 311 696 q 486 676 438 696 q 571 619 535 657 q 627 526 607 581 q 648 399 648 470 q 635 384 648 384 l 117 384 q 116 370 116 377 q 116 356 116 364 q 135 212 116 274 q 190 107 155 149 q 276 43 226 65 q 388 21 326 21 q 483 33 443 21 q 551 60 524 45 q 593 86 578 74 q 612 99 608 99 q 621 94 617 99 l 630 84 q 601 57 619 70 q 559 32 583 44 q 508 11 536 21 q 451 -3 481 2 q 420 -24 437 -11 q 390 -52 404 -36 q 367 -88 376 -69 q 358 -131 358 -108 q 383 -187 358 -167 q 445 -208 408 -208 q 481 -203 467 -208 q 506 -194 496 -199 q 521 -184 515 -189 q 531 -180 527 -180 q 538 -184 535 -180 l 544 -196 z "},"f":{"ha":466,"x_min":40,"x_max":436,"o":"m 160 0 l 160 630 l 53 634 q 40 644 40 635 l 40 658 l 160 658 l 160 756 q 175 858 160 815 q 215 930 189 901 q 277 973 241 959 q 356 987 313 987 q 399 983 377 987 q 436 972 420 980 l 434 956 q 429 950 433 951 q 416 952 425 950 q 393 956 407 953 q 360 958 380 958 q 295 948 325 958 q 243 913 265 937 q 209 850 222 888 q 197 756 197 811 l 197 658 l 431 658 l 431 631 l 197 631 l 197 0 l 160 0 z "},"ﬀ":{"ha":881,"x_min":40,"x_max":851,"o":"m 160 0 l 160 630 l 53 634 q 40 644 40 635 l 40 658 l 160 658 l 160 749 q 175 850 160 807 q 215 923 189 894 q 277 965 241 951 q 356 979 313 979 q 399 976 377 979 q 436 965 420 972 l 434 949 q 429 943 433 943 q 416 944 425 942 q 393 948 407 946 q 360 951 380 951 q 295 940 325 951 q 243 905 265 929 q 209 842 222 881 q 197 748 197 803 l 197 658 l 576 658 l 576 758 q 590 859 576 816 q 630 932 604 903 q 692 974 656 960 q 772 988 728 988 q 813 985 792 988 q 851 974 835 981 l 849 958 q 844 952 848 952 q 831 953 840 951 q 808 957 822 955 q 775 960 794 960 q 710 949 740 960 q 658 914 680 938 q 624 851 636 890 q 611 757 611 813 l 611 658 l 847 658 l 847 631 l 612 631 l 612 0 l 576 0 l 576 631 l 197 631 l 197 0 l 160 0 z "},"ﬁ":{"ha":723,"x_min":42,"x_max":593,"o":"m 163 0 l 163 630 l 56 634 q 42 644 42 635 l 42 658 l 163 658 l 163 728 q 181 841 163 792 q 232 925 199 891 q 313 977 266 960 q 419 995 360 995 q 463 991 440 995 q 501 980 485 988 l 499 963 q 494 959 498 959 q 482 961 490 959 q 459 965 473 963 q 425 967 445 967 q 332 952 374 967 q 260 908 290 938 q 215 833 231 878 q 199 727 199 788 l 199 658 l 593 658 l 593 0 l 556 0 l 556 631 l 199 631 l 199 0 l 163 0 z "},"ﬃ":{"ha":1138,"x_min":42,"x_max":1008,"o":"m 163 0 l 163 630 l 56 634 q 42 644 42 635 l 42 658 l 163 658 l 163 749 q 177 850 163 807 q 217 923 191 894 q 279 965 243 951 q 358 979 315 979 q 400 976 378 979 q 438 965 422 972 l 436 949 q 431 943 435 943 q 418 944 426 942 q 395 948 409 946 q 362 951 381 951 q 297 940 326 951 q 245 905 267 929 q 211 842 223 881 q 199 748 199 803 l 199 658 l 578 658 l 578 728 q 596 841 578 792 q 647 925 614 891 q 728 977 681 960 q 834 995 776 995 q 877 991 855 995 q 916 980 900 988 l 914 963 q 909 959 913 959 q 896 961 905 959 q 874 965 888 963 q 840 967 860 967 q 747 952 789 967 q 675 908 705 938 q 630 833 646 878 q 613 727 613 788 l 613 658 l 1008 658 l 1008 0 l 972 0 l 972 631 l 614 631 l 614 0 l 578 0 l 578 631 l 199 631 l 199 0 l 163 0 z "},"ﬂ":{"ha":762,"x_min":42,"x_max":632,"o":"m 163 0 l 163 630 l 56 634 q 42 644 42 635 l 42 658 l 163 658 l 163 708 q 181 823 163 771 q 233 913 199 876 q 317 972 267 951 q 432 992 367 992 q 520 988 477 992 q 601 983 563 984 l 632 983 l 632 0 l 595 0 l 595 958 q 516 961 560 958 q 435 965 473 965 q 335 947 379 965 q 261 895 291 928 q 215 814 231 862 q 199 708 199 767 l 199 658 l 408 658 l 408 631 l 199 631 l 199 0 l 163 0 z "},"ﬄ":{"ha":1174,"x_min":40,"x_max":1045,"o":"m 160 0 l 160 630 l 53 634 q 40 644 40 635 l 40 658 l 160 658 l 160 749 q 175 850 160 807 q 215 923 189 894 q 277 965 241 951 q 356 979 313 979 q 399 976 377 979 q 436 965 420 972 l 434 949 q 429 943 433 943 q 416 944 425 942 q 393 948 407 946 q 360 951 380 951 q 295 940 325 951 q 243 905 265 929 q 209 842 222 881 q 197 748 197 803 l 197 658 l 576 658 l 576 708 q 594 823 576 771 q 646 913 612 876 q 731 972 681 951 q 845 992 781 992 q 933 988 890 992 q 1013 983 976 984 l 1045 983 l 1045 0 l 1008 0 l 1008 958 q 929 961 972 958 q 849 965 886 965 q 748 947 792 965 q 674 895 704 928 q 627 814 643 862 q 611 708 611 767 l 611 658 l 847 658 l 847 631 l 612 631 l 612 0 l 576 0 l 576 631 l 197 631 l 197 0 l 160 0 z "},"g":{"ha":702,"x_min":59,"x_max":659,"o":"m 338 285 q 424 299 386 285 q 488 339 462 313 q 527 399 514 364 q 541 477 541 434 q 527 555 541 519 q 487 615 513 590 q 423 654 461 640 q 338 668 385 668 q 253 654 291 668 q 190 615 216 640 q 150 555 164 590 q 136 477 136 519 q 150 399 136 434 q 190 339 164 364 q 253 299 216 313 q 338 285 291 285 m 615 -51 q 597 7 615 -15 q 548 41 578 29 q 478 58 518 53 q 396 65 439 63 q 311 69 353 67 q 231 78 268 72 q 175 52 201 67 q 132 19 150 38 q 103 -23 113 0 q 92 -73 92 -46 q 110 -135 92 -106 q 160 -186 127 -165 q 240 -219 193 -207 q 347 -232 288 -232 q 450 -219 401 -232 q 535 -182 499 -206 q 594 -124 572 -158 q 615 -51 615 -91 m 659 653 l 659 642 q 655 633 659 636 q 644 628 651 629 l 522 624 q 561 558 547 595 q 575 478 575 522 q 558 388 575 428 q 510 319 541 348 q 435 275 479 290 q 338 259 392 259 q 223 282 273 259 q 170 236 190 263 q 151 185 151 210 q 172 135 151 153 q 228 110 194 118 q 308 99 263 101 q 400 94 353 97 q 491 87 447 92 q 571 67 536 81 q 627 25 606 52 q 649 -47 649 -2 q 627 -127 649 -89 q 567 -195 606 -166 q 471 -242 527 -224 q 347 -260 415 -260 q 223 -245 276 -260 q 132 -205 169 -231 q 77 -147 96 -180 q 59 -76 59 -113 q 97 22 59 -19 q 201 85 135 63 q 141 118 164 97 q 119 179 119 140 q 125 209 119 193 q 141 239 131 224 q 167 268 152 254 q 202 292 183 282 q 128 368 154 320 q 101 478 101 415 q 118 566 101 526 q 166 635 135 606 q 240 680 197 664 q 338 696 284 696 q 421 685 383 696 q 488 653 459 674 l 659 653 z "},"h":{"ha":758,"x_min":122,"x_max":644,"o":"m 159 554 q 273 657 207 619 q 417 696 339 696 q 516 678 474 696 q 587 627 559 660 q 630 547 615 594 q 644 438 644 499 l 644 0 l 607 0 l 607 438 q 595 534 607 492 q 559 606 583 576 q 497 651 534 635 q 410 667 460 667 q 272 627 335 667 q 159 519 208 588 l 159 0 l 122 0 l 122 1004 l 159 1004 l 159 554 z "},"ĥ":{"ha":758,"x_min":-36,"x_max":644,"o":"m 159 554 q 273 657 207 619 q 417 696 339 696 q 516 678 474 696 q 587 627 559 660 q 630 547 615 594 q 644 438 644 499 l 644 0 l 607 0 l 607 438 q 595 534 607 492 q 559 606 583 576 q 497 651 534 635 q 410 667 460 667 q 272 627 335 667 q 159 519 208 588 l 159 0 l 122 0 l 122 1004 l 159 1004 l 159 554 m 317 1069 l 290 1069 q 280 1070 285 1069 q 270 1077 275 1072 l 144 1222 q 140 1228 141 1224 q 137 1222 139 1224 l 10 1077 q 0 1070 6 1072 q -9 1069 -5 1069 l -36 1069 l 126 1253 l 156 1253 l 317 1069 z "},"ħ":{"ha":758,"x_min":3,"x_max":644,"o":"m 159 551 q 273 655 207 616 q 417 693 339 693 q 516 675 474 693 q 587 625 559 658 q 630 544 615 592 q 644 435 644 496 l 644 0 l 607 0 l 607 435 q 595 531 607 489 q 559 603 583 574 q 497 648 534 633 q 410 664 460 664 q 272 625 335 664 q 159 516 208 585 l 159 0 l 122 0 l 122 828 l 3 828 l 3 853 l 122 853 l 122 1004 l 159 1004 l 159 853 l 378 853 l 378 828 l 159 828 l 159 551 z "},"i":{"ha":297,"x_min":101,"x_max":197,"o":"m 167 685 l 167 0 l 131 0 l 131 685 l 167 685 m 197 932 q 192 914 197 922 q 182 899 188 906 q 166 889 175 892 q 149 885 158 885 q 115 899 129 885 q 101 932 101 913 q 115 966 101 951 q 149 980 129 980 q 166 976 158 980 q 182 966 175 972 q 192 950 188 959 q 197 932 197 942 z "},"į":{"ha":297,"x_min":38,"x_max":253,"o":"m 149 885 q 115 899 129 885 q 101 932 101 913 q 115 966 101 951 q 149 980 129 980 q 166 976 158 980 q 182 966 175 972 q 192 950 188 959 q 197 932 197 942 q 192 914 197 922 q 182 899 188 906 q 166 889 175 892 q 149 885 158 885 m 253 -196 q 207 -223 235 -213 q 149 -233 179 -233 q 69 -208 100 -233 q 38 -136 38 -183 q 46 -95 38 -115 q 67 -58 54 -75 q 97 -26 81 -40 q 131 0 114 -11 l 131 685 l 167 685 l 167 0 l 165 0 q 134 -20 151 -8 q 102 -49 117 -33 q 77 -86 87 -66 q 67 -131 67 -107 q 92 -187 67 -167 q 154 -208 117 -208 q 190 -203 176 -208 q 215 -194 205 -199 q 230 -184 224 -189 q 240 -180 236 -180 q 247 -184 244 -180 l 253 -196 z "},"ı":{"ha":297,"x_min":131,"x_max":167,"o":"m 167 685 l 167 0 l 131 0 l 131 685 l 167 685 z "},"j":{"ha":297,"x_min":-43,"x_max":196,"o":"m 167 685 l 167 -107 q 157 -167 167 -140 q 128 -215 147 -195 q 82 -247 109 -235 q 19 -258 54 -258 q -15 -255 -1 -258 q -43 -244 -29 -251 l -40 -226 q -34 -220 -37 -221 q -24 -222 -31 -220 q -9 -227 -18 -224 q 15 -230 1 -230 q 101 -197 72 -230 q 131 -107 131 -163 l 131 685 l 167 685 m 196 932 q 192 914 196 922 q 181 899 188 906 q 166 889 174 892 q 148 885 157 885 q 114 899 128 885 q 100 932 100 913 q 114 966 100 951 q 148 980 128 980 q 166 976 157 980 q 181 966 174 972 q 192 950 188 959 q 196 932 196 942 z "},"ȷ":{"ha":297,"x_min":-43,"x_max":167,"o":"m 167 685 l 167 -107 q 157 -167 167 -140 q 128 -215 147 -195 q 82 -247 109 -235 q 19 -258 54 -258 q -15 -255 -1 -258 q -43 -244 -29 -251 l -40 -226 q -34 -220 -37 -221 q -24 -222 -31 -220 q -9 -227 -18 -224 q 15 -230 1 -230 q 101 -197 72 -230 q 131 -107 131 -163 l 131 685 l 167 685 z "},"k":{"ha":638,"x_min":122,"x_max":617,"o":"m 159 1004 l 159 381 l 191 381 q 207 383 199 381 q 226 395 215 385 l 531 671 q 543 681 537 678 q 560 685 550 685 l 591 685 l 263 388 q 252 379 257 383 q 241 372 247 375 q 258 362 251 368 q 273 349 266 356 l 617 0 l 586 0 q 573 2 579 0 q 562 11 567 4 l 240 335 q 219 351 228 347 q 188 356 209 356 l 159 356 l 159 0 l 122 0 l 122 1004 l 159 1004 z "},"ĸ":{"ha":638,"x_min":122,"x_max":617,"o":"m 159 685 l 159 381 l 191 381 q 207 383 199 381 q 226 395 215 385 l 531 671 q 543 681 537 678 q 560 685 550 685 l 591 685 l 263 388 q 252 379 257 383 q 241 372 247 375 q 258 362 251 368 q 273 349 266 356 l 617 0 l 586 0 q 573 2 579 0 q 562 11 567 4 l 240 335 q 219 351 228 347 q 188 356 209 356 l 159 356 l 159 0 l 122 0 l 122 685 l 159 685 z "},"ł":{"ha":374,"x_min":35,"x_max":356,"o":"m 356 667 l 356 651 q 355 641 356 645 q 347 634 353 638 l 213 570 l 213 0 l 177 0 l 177 556 l 35 488 l 35 504 q 37 514 35 510 q 45 521 39 517 l 177 585 l 177 1004 l 213 1004 l 213 600 l 356 667 z "},"ľ":{"ha":296,"x_min":130,"x_max":339,"o":"m 166 1004 l 166 0 l 130 0 l 130 1004 l 166 1004 m 326 1006 q 336 1001 333 1006 q 339 989 339 997 q 336 968 339 981 q 330 935 334 956 q 317 886 325 915 q 299 817 310 857 q 294 808 297 812 q 283 805 290 805 l 272 805 l 305 1006 l 326 1006 z "},"m":{"ha":1105,"x_min":122,"x_max":990,"o":"m 122 0 l 122 685 l 140 685 q 153 671 153 685 l 158 556 q 252 658 198 619 q 373 696 307 696 q 497 649 451 696 q 557 516 543 601 q 589 595 567 562 q 640 652 611 629 q 704 685 669 674 q 776 696 739 696 q 865 679 825 696 q 933 629 905 662 q 975 549 960 597 q 990 438 990 501 l 990 0 l 953 0 l 953 438 q 906 608 953 549 q 770 667 858 667 q 695 652 731 667 q 632 609 660 638 q 588 538 605 581 q 572 438 572 495 l 572 0 l 535 0 l 535 438 q 492 607 535 547 q 365 667 449 667 q 251 628 303 667 q 159 521 199 589 l 159 0 l 122 0 z "},"n":{"ha":758,"x_min":122,"x_max":644,"o":"m 158 552 q 272 657 206 618 q 417 696 338 696 q 516 678 474 696 q 587 627 559 660 q 630 547 615 594 q 644 438 644 499 l 644 0 l 607 0 l 607 438 q 595 534 607 492 q 559 606 583 576 q 497 651 534 635 q 410 667 460 667 q 272 627 335 667 q 159 519 208 588 l 159 0 l 122 0 l 122 685 l 140 685 q 153 671 153 685 l 158 552 z "},"ŋ":{"ha":758,"x_min":122,"x_max":644,"o":"m 158 552 q 272 657 206 618 q 417 696 338 696 q 516 678 474 696 q 587 627 559 660 q 630 547 615 594 q 644 438 644 499 l 644 -49 q 598 -205 644 -149 q 463 -260 552 -260 q 415 -255 438 -260 q 368 -240 392 -250 l 372 -226 q 376 -219 373 -220 q 383 -217 379 -217 q 408 -224 388 -217 q 460 -231 427 -231 q 569 -186 531 -231 q 607 -51 607 -142 l 607 438 q 595 534 607 492 q 559 606 583 576 q 497 651 534 635 q 410 667 460 667 q 272 627 335 667 q 159 519 208 588 l 159 0 l 122 0 l 122 685 l 140 685 q 153 671 153 685 l 158 552 z "},"o":{"ha":769,"x_min":80,"x_max":688,"o":"m 384 696 q 514 670 457 696 q 609 599 570 645 q 668 488 648 553 q 688 342 688 422 q 668 198 688 263 q 609 87 648 133 q 514 16 570 41 q 384 -8 457 -8 q 255 16 311 -8 q 159 87 198 41 q 100 198 120 133 q 80 342 80 263 q 100 488 80 422 q 159 599 120 553 q 255 670 198 645 q 384 696 311 696 m 384 21 q 501 44 451 21 q 584 109 551 67 q 635 210 618 151 q 651 342 651 269 q 635 475 651 415 q 584 577 618 535 q 501 643 551 620 q 384 667 451 667 q 267 643 317 667 q 184 577 217 620 q 133 475 150 535 q 117 342 117 415 q 133 210 117 269 q 184 109 150 151 q 267 44 217 67 q 384 21 317 21 z "},"ø":{"ha":767,"x_min":80,"x_max":698,"o":"m 214 76 q 289 35 247 49 q 384 20 331 20 q 501 43 451 20 q 585 109 551 67 q 636 210 619 151 q 653 342 653 269 q 636 474 653 415 q 587 576 620 533 l 214 76 m 569 596 q 490 649 536 631 q 384 667 444 667 q 267 644 317 667 q 183 577 217 620 q 132 475 149 535 q 115 342 115 415 q 135 200 115 263 q 194 94 155 138 l 569 596 m 606 602 q 667 490 647 556 q 688 342 688 424 q 668 198 688 263 q 609 87 648 133 q 514 16 570 41 q 384 -8 457 -8 q 280 7 326 -8 q 196 51 233 22 l 128 -38 q 116 -49 123 -46 q 102 -51 109 -51 l 85 -51 l 176 69 q 104 184 128 115 q 80 342 80 253 q 100 488 80 422 q 159 599 120 553 q 255 670 198 645 q 384 696 311 696 q 499 677 448 696 q 588 622 550 658 l 656 712 q 665 722 660 719 q 677 725 669 725 l 698 725 l 606 602 z "},"œ":{"ha":1206,"x_min":81,"x_max":1131,"o":"m 1099 394 q 1083 512 1099 461 q 1040 598 1067 563 q 975 650 1013 633 q 893 668 937 668 q 796 649 839 668 q 722 593 753 629 q 673 507 691 557 q 651 394 655 456 l 1099 394 m 366 21 q 474 44 428 21 q 551 109 520 67 q 598 210 582 151 q 613 342 613 269 q 598 475 613 415 q 551 577 582 535 q 474 643 520 620 q 366 667 428 667 q 258 643 304 667 q 180 577 211 620 q 133 475 149 535 q 117 342 117 415 q 133 210 117 269 q 180 109 149 151 q 258 44 211 67 q 366 21 304 21 m 1117 84 q 1082 50 1105 67 q 1030 20 1059 33 q 966 0 1000 8 q 895 -8 931 -8 q 724 53 792 -8 q 633 233 656 115 q 599 132 622 176 q 542 56 576 88 q 464 8 508 25 q 364 -8 419 -8 q 244 16 297 -8 q 155 87 191 41 q 100 198 119 133 q 81 342 81 263 q 100 488 81 422 q 155 599 119 553 q 244 670 191 645 q 365 696 297 696 q 463 680 419 696 q 540 633 506 663 q 596 558 574 602 q 631 460 619 515 q 664 557 642 514 q 719 632 686 601 q 796 679 753 663 q 893 696 840 696 q 986 676 943 696 q 1062 616 1030 656 q 1112 519 1094 577 q 1131 385 1131 461 q 1119 370 1131 370 l 649 370 l 649 356 q 667 212 649 274 q 717 107 685 149 q 795 43 750 65 q 897 21 841 21 q 982 33 946 21 q 1043 60 1018 45 q 1081 86 1067 74 q 1100 99 1095 99 q 1109 94 1106 99 l 1117 84 z "},"p":{"ha":759,"x_min":122,"x_max":678,"o":"m 159 142 q 253 48 201 75 q 374 20 306 20 q 491 45 441 20 q 574 113 541 69 q 624 217 608 157 q 641 347 641 276 q 579 588 641 510 q 400 667 517 667 q 266 627 328 667 q 159 517 205 588 l 159 142 m 158 551 q 267 657 203 619 q 408 696 331 696 q 608 610 538 696 q 678 347 678 524 q 659 207 678 272 q 602 94 640 142 q 509 19 565 47 q 379 -8 453 -8 q 159 105 235 -8 l 159 -248 l 122 -248 l 122 685 l 140 685 q 153 671 153 685 l 158 551 z "},"þ":{"ha":759,"x_min":122,"x_max":678,"o":"m 159 142 q 253 48 201 75 q 374 20 306 20 q 491 45 441 20 q 574 113 541 69 q 624 217 608 157 q 641 347 641 276 q 579 588 641 510 q 400 667 517 667 q 266 627 328 667 q 159 517 205 588 l 159 142 m 159 553 q 268 658 205 619 q 408 696 331 696 q 608 610 538 696 q 678 347 678 524 q 659 207 678 272 q 602 94 640 142 q 509 19 565 47 q 379 -8 453 -8 q 159 107 235 -8 l 159 -248 l 122 -248 l 122 1004 l 159 1004 l 159 553 z "},"q":{"ha":758,"x_min":81,"x_max":637,"o":"m 600 547 q 507 639 560 611 q 385 667 453 667 q 268 643 318 667 q 185 574 218 618 q 135 471 151 531 q 118 341 118 411 q 180 99 118 178 q 359 21 241 21 q 493 60 431 21 q 600 170 554 100 l 600 547 m 637 685 l 637 -248 l 600 -248 l 600 135 q 491 30 554 68 q 351 -8 428 -8 q 151 78 221 -8 q 81 341 81 164 q 100 481 81 416 q 157 593 119 545 q 250 668 194 641 q 380 696 306 696 q 508 667 453 696 q 601 581 563 639 l 606 671 q 620 685 606 685 l 637 685 z "},"r":{"ha":483,"x_min":122,"x_max":462,"o":"m 158 501 q 194 584 173 548 q 242 645 215 620 q 304 683 269 670 q 383 696 339 696 q 424 693 403 696 q 462 680 445 690 l 458 658 q 448 651 455 651 q 425 656 440 651 q 378 661 409 661 q 302 648 335 661 q 242 608 268 634 q 196 542 216 581 q 159 449 176 502 l 159 0 l 122 0 l 122 685 l 139 685 q 153 669 153 685 l 158 501 z "},"s":{"ha":585,"x_min":69,"x_max":513,"o":"m 486 615 q 476 608 483 608 q 458 618 469 608 q 426 638 447 627 q 376 658 406 649 q 301 667 346 667 q 227 655 260 667 q 169 623 193 643 q 131 576 144 603 q 118 519 118 549 q 135 461 118 485 q 180 421 152 438 q 243 393 208 405 q 315 370 278 382 q 388 346 352 359 q 451 313 423 333 q 495 265 478 294 q 513 195 513 237 q 497 115 513 152 q 452 49 482 77 q 380 5 423 21 q 283 -11 338 -11 q 216 -5 246 -11 q 160 11 186 1 q 113 38 135 22 q 69 72 90 53 l 78 83 q 84 89 81 87 q 92 90 86 90 q 111 79 99 90 q 146 53 124 67 q 201 28 168 40 q 283 17 235 17 q 368 30 331 17 q 429 67 404 44 q 466 123 453 91 q 478 190 478 154 q 461 252 478 227 q 417 294 444 277 q 353 323 389 311 q 281 346 318 335 q 209 370 244 357 q 146 402 174 383 q 101 449 118 421 q 84 518 84 476 q 100 585 84 553 q 144 642 115 617 q 212 681 172 667 q 301 696 252 696 q 407 679 361 696 q 494 626 453 663 l 486 615 z "},"ş":{"ha":585,"x_min":69,"x_max":513,"o":"m 486 615 q 476 608 483 608 q 458 618 469 608 q 426 638 447 627 q 376 658 406 649 q 301 667 346 667 q 227 655 260 667 q 169 623 193 643 q 131 576 144 603 q 118 519 118 549 q 135 461 118 485 q 180 421 152 438 q 243 393 208 405 q 315 370 278 382 q 388 346 352 359 q 451 313 423 333 q 495 265 478 294 q 513 195 513 237 q 498 116 513 153 q 454 51 483 78 q 383 6 425 23 q 289 -11 342 -10 l 270 -72 q 324 -83 300 -76 q 365 -101 349 -90 q 391 -126 382 -111 q 400 -162 400 -142 q 367 -226 400 -203 q 284 -249 335 -249 q 228 -239 256 -249 q 183 -215 200 -230 l 188 -206 q 197 -200 192 -200 q 206 -205 200 -200 q 222 -214 212 -209 q 248 -224 233 -219 q 286 -228 264 -228 q 348 -211 326 -228 q 369 -164 369 -194 q 359 -131 369 -144 q 332 -110 349 -118 q 291 -97 315 -101 q 240 -89 267 -92 l 265 -10 q 205 -3 233 -9 q 154 14 178 3 q 110 39 131 25 q 69 72 89 53 l 78 83 q 84 89 81 87 q 92 90 86 90 q 111 79 99 90 q 146 53 124 67 q 201 28 168 40 q 283 17 235 17 q 368 30 331 17 q 429 67 404 44 q 466 123 453 91 q 478 190 478 154 q 461 252 478 227 q 417 294 444 277 q 353 323 389 311 q 281 346 318 335 q 209 370 244 357 q 146 402 174 383 q 101 449 118 421 q 84 518 84 476 q 100 585 84 553 q 144 642 115 617 q 212 681 172 667 q 301 696 252 696 q 407 679 361 696 q 494 626 453 663 l 486 615 z "},"ß":{"ha":749,"x_min":122,"x_max":690,"o":"m 413 987 q 509 971 466 987 q 581 930 551 956 q 626 870 610 903 q 642 803 642 838 q 625 726 642 759 q 582 668 608 694 q 526 622 556 642 q 470 581 497 601 q 427 539 444 561 q 410 490 410 517 q 423 445 410 463 q 454 414 435 427 q 499 391 474 401 q 550 371 524 381 q 601 347 576 360 q 646 314 626 334 q 677 265 665 294 q 690 195 690 236 q 674 114 690 151 q 628 48 658 76 q 556 5 599 21 q 461 -11 514 -11 q 396 -5 425 -11 q 342 11 367 1 q 295 38 317 22 q 252 72 273 53 l 260 83 q 266 89 264 87 q 274 90 269 90 q 293 79 281 90 q 327 53 306 67 q 382 28 349 40 q 463 17 415 17 q 545 30 510 17 q 606 67 581 44 q 643 123 631 91 q 656 191 656 155 q 635 272 656 242 q 583 320 615 301 q 515 351 552 338 q 447 379 478 363 q 395 419 416 394 q 374 485 374 443 q 392 542 374 517 q 435 588 409 567 q 492 630 461 610 q 548 676 522 651 q 592 732 574 701 q 609 804 609 763 q 599 852 609 825 q 566 903 589 879 q 505 943 542 926 q 413 959 467 959 q 316 944 363 959 q 235 898 270 929 q 180 817 201 866 q 159 699 159 767 l 159 0 l 122 0 l 122 699 q 144 822 122 769 q 206 912 167 876 q 298 968 244 949 q 413 987 351 987 z "},"ſ":{"ha":349,"x_min":42,"x_max":439,"o":"m 163 756 q 177 858 163 815 q 218 930 192 901 q 280 973 244 959 q 359 987 316 987 q 401 983 379 987 q 439 972 423 980 l 437 956 q 431 951 435 951 q 416 952 426 951 q 393 957 407 954 q 363 959 380 959 q 297 948 327 959 q 245 913 267 937 q 211 850 224 888 q 199 756 199 811 l 199 0 l 163 0 l 163 630 l 56 634 q 42 644 42 635 l 42 658 l 163 658 l 163 756 z "},"t":{"ha":464,"x_min":41,"x_max":439,"o":"m 297 -11 q 197 24 233 -11 q 161 137 161 59 l 161 631 l 54 631 q 41 641 41 631 l 41 653 l 161 658 l 172 922 q 175 930 172 926 q 183 934 178 934 l 198 934 l 198 658 l 424 658 l 424 631 l 198 631 l 198 138 q 206 84 198 106 q 228 47 215 61 q 261 25 242 32 q 303 19 281 19 q 350 27 330 19 q 385 45 371 35 q 409 63 400 55 q 422 72 418 72 q 430 67 426 72 l 439 54 q 411 28 427 40 q 377 7 396 16 q 338 -6 358 -1 q 297 -11 318 -11 z "},"ť":{"ha":461,"x_min":38,"x_max":477,"o":"m 294 -11 q 194 24 231 -11 q 158 137 158 59 l 158 631 l 51 631 q 38 641 38 631 l 38 653 l 158 658 l 169 922 q 172 930 169 926 q 180 934 175 934 l 195 934 l 195 658 l 422 658 l 422 631 l 195 631 l 195 138 q 203 84 195 106 q 226 47 212 61 q 259 25 240 32 q 300 19 278 19 q 348 27 327 19 q 383 45 368 35 q 406 63 397 55 q 419 72 415 72 q 427 67 423 72 l 436 54 q 409 28 424 40 q 374 7 393 16 q 335 -6 356 -1 q 294 -11 315 -11 m 464 1006 q 474 1001 472 1006 q 477 989 477 997 q 475 968 477 981 q 468 935 472 956 q 456 886 463 915 q 438 817 448 857 q 432 808 435 812 q 421 805 428 805 l 410 805 l 443 1006 l 464 1006 z "},"ŧ":{"ha":468,"x_min":44,"x_max":442,"o":"m 51 478 l 164 478 l 164 631 l 57 631 q 44 641 44 631 l 44 653 l 164 658 l 174 922 q 178 930 175 926 q 185 934 181 934 l 201 934 l 201 658 l 427 658 l 427 631 l 201 631 l 201 478 l 424 478 l 424 453 l 201 453 l 201 138 q 209 84 201 106 q 231 47 217 61 q 264 25 245 32 q 306 19 283 19 q 353 27 333 19 q 388 45 374 35 q 412 63 403 55 q 425 72 421 72 q 433 67 428 72 l 442 54 q 414 28 430 40 q 380 7 399 16 q 341 -6 361 -1 q 300 -11 321 -11 q 200 24 236 -11 q 164 137 164 59 l 164 453 l 51 453 l 51 478 z "},"u":{"ha":757,"x_min":115,"x_max":636,"o":"m 636 685 l 636 0 l 619 0 q 605 14 607 0 l 601 133 q 487 28 553 67 q 342 -11 421 -11 q 242 7 285 -11 q 171 57 199 24 q 129 138 143 90 q 115 247 115 186 l 115 685 l 151 685 l 151 247 q 163 151 151 193 q 200 79 175 108 q 261 34 224 49 q 349 18 299 18 q 486 57 423 18 q 600 166 550 97 l 600 685 l 636 685 z "},"ų":{"ha":757,"x_min":115,"x_max":725,"o":"m 725 -196 q 679 -223 707 -213 q 620 -233 651 -233 q 540 -208 572 -233 q 509 -136 509 -183 q 518 -93 509 -113 q 541 -55 527 -72 q 573 -22 556 -37 q 608 4 591 -7 q 605 14 606 6 l 601 133 q 487 28 553 67 q 342 -11 421 -11 q 242 7 285 -11 q 171 57 199 24 q 129 138 143 90 q 115 247 115 186 l 115 685 l 151 685 l 151 247 q 163 151 151 193 q 200 79 175 108 q 261 34 224 49 q 349 18 299 18 q 486 57 423 18 q 600 166 550 97 l 600 685 l 636 685 l 636 0 q 605 -20 622 -8 q 573 -49 588 -33 q 548 -86 558 -66 q 538 -131 538 -107 q 563 -187 538 -167 q 626 -208 588 -208 q 662 -203 647 -208 q 686 -194 676 -199 q 702 -184 696 -189 q 711 -180 708 -180 q 718 -184 715 -180 l 725 -196 z "},"v":{"ha":686,"x_min":33,"x_max":653,"o":"m 653 685 l 358 0 l 328 0 l 33 685 l 60 685 q 72 681 67 685 q 77 672 76 676 l 331 80 q 338 60 335 70 q 343 40 341 50 q 349 60 346 50 q 356 80 351 70 l 610 672 q 617 681 613 678 q 627 685 621 685 l 653 685 z "},"w":{"ha":1047,"x_min":41,"x_max":1006,"o":"m 1006 685 l 774 0 l 750 0 q 739 10 742 0 l 533 615 q 524 643 528 628 q 516 615 521 628 l 307 10 q 297 0 303 0 l 274 0 l 41 685 l 67 685 q 78 681 74 685 q 84 672 83 676 l 279 80 q 285 59 283 69 q 290 38 288 49 q 295 59 292 49 q 302 80 299 69 l 506 678 q 518 688 510 688 l 531 688 q 544 678 540 688 l 746 80 q 752 58 749 69 q 758 38 756 48 q 763 58 760 48 q 769 80 766 68 l 965 672 q 971 681 967 678 q 981 685 976 685 l 1006 685 z "},"x":{"ha":631,"x_min":38,"x_max":593,"o":"m 593 0 l 558 0 q 548 5 551 0 q 542 13 544 9 l 315 333 q 307 317 313 324 l 88 13 q 80 4 84 8 q 70 0 76 0 l 38 0 l 290 349 l 47 685 l 82 685 q 92 681 89 685 q 98 674 95 677 l 317 366 q 320 374 318 370 q 325 383 322 378 l 534 673 q 541 681 537 677 q 550 685 544 685 l 583 685 l 340 352 l 593 0 z "},"y":{"ha":687,"x_min":34,"x_max":655,"o":"m 655 685 l 256 -230 q 247 -242 252 -237 q 233 -248 242 -248 l 209 -248 l 327 17 l 34 685 l 62 685 q 74 681 69 685 q 80 672 78 676 l 335 86 q 346 54 342 71 q 358 86 351 69 l 612 672 q 619 681 615 678 q 629 685 624 685 l 655 685 z "},"z":{"ha":610,"x_min":48,"x_max":560,"o":"m 560 685 l 560 669 q 558 662 560 665 q 553 654 556 658 l 94 29 l 540 29 l 540 0 l 48 0 l 48 13 q 50 21 48 17 q 55 29 51 24 l 515 656 l 72 656 l 72 685 l 560 685 z "},"ª":{"ha":511,"x_min":94,"x_max":397,"o":"m 367 779 q 181 749 240 774 q 122 678 122 723 q 130 642 122 657 q 150 617 138 627 q 179 603 163 608 q 213 599 195 599 q 260 604 238 599 q 300 620 282 610 q 335 643 319 630 q 367 671 351 656 l 367 779 m 117 922 q 183 970 149 954 q 262 985 217 985 q 363 947 329 985 q 397 842 397 909 l 397 582 l 384 582 q 373 592 376 582 l 368 647 q 295 594 333 613 q 206 576 258 576 q 165 581 185 576 q 129 599 144 587 q 103 630 113 611 q 94 676 94 649 q 109 725 94 702 q 158 764 125 747 q 243 790 192 780 q 367 801 295 799 l 367 842 q 342 930 367 899 q 260 960 316 960 q 207 952 228 960 q 170 934 185 944 q 146 916 155 924 q 132 908 138 908 q 126 910 128 908 q 122 913 124 912 l 117 922 z "},"º":{"ha":563,"x_min":91,"x_max":472,"o":"m 282 985 q 363 971 327 985 q 422 929 398 956 q 459 864 447 902 q 472 779 472 826 q 459 694 472 732 q 422 630 447 656 q 363 588 398 603 q 282 574 327 574 q 201 588 236 574 q 141 630 165 603 q 104 694 117 656 q 91 779 91 732 q 104 864 91 826 q 141 929 117 902 q 201 971 165 956 q 282 985 236 985 m 282 597 q 352 609 322 597 q 402 646 382 622 q 433 704 423 670 q 443 779 443 738 q 433 855 443 821 q 402 912 423 888 q 352 949 382 936 q 282 963 322 963 q 211 949 242 963 q 161 912 181 936 q 130 855 140 888 q 120 779 120 821 q 130 704 120 738 q 161 646 140 670 q 211 609 181 622 q 282 597 242 597 z "},"ⁿ":{"ha":406,"x_min":70,"x_max":339,"o":"m 97 911 q 153 963 121 943 q 225 982 185 982 q 310 947 282 982 q 339 851 339 913 l 339 631 l 310 631 l 310 851 q 288 931 310 903 q 217 959 265 959 q 153 941 183 959 q 99 892 124 923 l 99 631 l 70 631 l 70 976 l 85 976 q 94 967 92 976 l 97 911 z "},"`":{"ha":556,"x_min":157,"x_max":340,"o":"m 194 988 q 214 984 208 988 q 228 969 221 980 l 340 805 l 319 805 q 301 813 308 805 l 157 988 l 194 988 z "},"´":{"ha":556,"x_min":227,"x_max":410,"o":"m 410 988 l 266 813 q 249 805 260 805 l 227 805 l 340 969 q 353 984 347 980 q 373 988 359 988 l 410 988 z "},"ˆ":{"ha":556,"x_min":114,"x_max":442,"o":"m 442 813 l 416 813 q 401 819 408 813 l 283 947 q 281 950 282 949 q 278 953 280 952 q 276 950 277 952 q 273 947 274 949 l 155 819 q 140 813 148 813 l 114 813 l 263 976 l 293 976 l 442 813 z "},"ˇ":{"ha":556,"x_min":114,"x_max":442,"o":"m 442 976 l 293 813 l 263 813 l 114 976 l 140 976 q 148 974 144 976 q 154 970 151 972 l 272 842 q 278 835 276 838 q 281 839 279 837 q 283 842 282 840 l 402 970 q 416 976 408 976 l 442 976 z "},"̕":{"ha":0,"x_min":247,"x_max":315,"o":"m 301 1006 q 312 1001 309 1006 q 315 989 315 997 q 312 968 315 981 q 305 935 310 956 q 293 886 301 915 q 275 817 285 857 q 269 808 273 812 q 258 805 266 805 l 247 805 l 281 1006 l 301 1006 z "},"˜":{"ha":556,"x_min":114,"x_max":448,"o":"m 359 873 q 408 894 392 873 q 425 949 424 915 l 448 949 q 442 908 448 927 q 426 876 437 890 q 399 854 415 862 q 360 846 382 846 q 317 858 337 846 q 279 884 297 870 q 242 911 260 899 q 204 923 224 923 q 156 901 173 923 q 138 847 140 879 l 114 847 q 120 888 114 869 q 137 920 126 906 q 165 942 149 934 q 203 951 182 951 q 247 939 226 951 q 285 912 267 926 q 322 885 303 897 q 359 873 340 873 z "},"¨":{"ha":556,"x_min":115,"x_max":441,"o":"m 207 890 q 193 859 207 872 q 160 845 178 845 q 128 859 142 845 q 115 890 115 872 q 128 923 115 909 q 160 936 142 936 q 193 923 178 936 q 207 890 207 909 m 441 890 q 427 859 441 872 q 395 845 413 845 q 363 859 376 845 q 349 890 349 872 q 363 923 349 909 q 395 936 376 936 q 427 923 413 936 q 441 890 441 909 z "},"¯":{"ha":556,"x_min":94,"x_max":462,"o":"m 94 903 l 462 903 l 462 877 l 94 877 l 94 903 z "},"˘":{"ha":556,"x_min":124,"x_max":432,"o":"m 278 813 q 207 826 236 813 q 159 861 178 839 q 132 914 140 884 q 124 976 124 943 l 151 976 q 158 924 151 949 q 180 881 165 899 q 218 850 194 862 q 278 839 242 839 q 337 850 313 839 q 376 881 361 862 q 398 924 391 899 q 404 976 404 949 l 432 976 q 424 914 432 943 q 397 861 415 884 q 349 826 378 839 q 278 813 319 813 z "},"˚":{"ha":556,"x_min":168,"x_max":388,"o":"m 168 899 q 177 941 168 922 q 200 975 185 960 q 235 997 215 989 q 278 1005 255 1005 q 320 997 301 1005 q 355 975 340 989 q 379 941 370 960 q 388 899 388 922 q 379 857 388 876 q 355 824 370 838 q 320 802 340 810 q 278 794 301 794 q 235 802 255 794 q 200 824 215 810 q 177 857 185 838 q 168 899 168 876 m 194 899 q 217 839 194 863 q 278 815 241 815 q 338 839 315 815 q 362 899 362 863 q 356 933 362 917 q 338 959 349 948 q 311 977 327 971 q 278 983 296 983 q 244 977 260 983 q 217 959 228 971 q 200 933 206 948 q 194 899 194 917 z "},"˝":{"ha":556,"x_min":177,"x_max":523,"o":"m 349 988 l 211 813 q 194 805 206 805 l 177 805 l 288 969 q 301 984 294 980 q 322 988 308 988 l 349 988 m 523 988 l 366 813 q 349 805 360 805 l 330 805 l 458 969 q 471 984 465 980 q 491 988 477 988 l 523 988 z "},"˙":{"ha":556,"x_min":230,"x_max":326,"o":"m 326 942 q 322 924 326 933 q 311 909 317 916 q 295 899 304 903 q 278 895 287 895 q 259 899 268 895 q 244 909 251 903 q 234 924 238 916 q 230 942 230 933 q 244 975 230 961 q 278 990 258 990 q 295 986 287 990 q 311 975 304 982 q 322 960 317 969 q 326 942 326 951 z "},"¸":{"ha":556,"x_min":185,"x_max":401,"o":"m 272 -72 q 326 -83 301 -76 q 367 -101 350 -90 q 392 -126 383 -111 q 401 -162 401 -142 q 369 -226 401 -203 q 285 -249 336 -249 q 229 -239 257 -249 q 185 -215 201 -230 l 190 -206 q 198 -200 194 -200 q 207 -205 201 -200 q 224 -214 213 -209 q 250 -224 234 -219 q 288 -228 265 -228 q 349 -211 327 -228 q 371 -164 371 -194 q 361 -131 371 -144 q 333 -110 351 -118 q 292 -97 316 -101 q 242 -89 269 -92 l 271 3 l 294 3 l 272 -72 z "},"˛":{"ha":556,"x_min":178,"x_max":394,"o":"m 380 -180 q 387 -184 384 -180 l 394 -196 q 348 -223 376 -213 q 289 -233 319 -233 q 209 -208 240 -233 q 178 -136 178 -183 q 188 -90 178 -112 q 214 -50 198 -68 q 249 -16 230 -31 q 286 10 268 -1 l 305 0 q 274 -20 291 -8 q 242 -49 257 -33 q 217 -86 227 -66 q 207 -131 207 -107 q 232 -187 207 -167 q 294 -208 257 -208 q 331 -203 316 -208 q 355 -194 345 -199 q 370 -184 365 -189 q 380 -180 376 -180 z "},"Γ":{"ha":752,"x_min":155,"x_max":731,"o":"m 731 944 l 193 944 l 193 0 l 155 0 l 155 976 l 731 976 l 731 944 z "},"Δ":{"ha":893,"x_min":30,"x_max":863,"o":"m 72 31 l 819 31 l 460 894 q 453 914 457 903 q 446 936 449 924 q 439 914 442 924 q 431 894 435 903 l 72 31 m 857 39 q 861 26 860 33 q 863 13 863 19 l 863 0 l 30 0 l 30 10 q 36 37 30 22 l 428 976 l 465 976 l 857 39 z "},"Θ":{"ha":1093,"x_min":90,"x_max":1003,"o":"m 334 517 l 759 517 l 759 484 l 334 484 l 334 517 m 1003 488 q 970 282 1003 374 q 876 125 937 190 q 732 25 816 60 q 546 -10 648 -10 q 361 25 445 -10 q 217 125 277 60 q 123 282 156 190 q 90 488 90 374 q 123 694 90 602 q 217 852 156 787 q 361 952 277 917 q 546 988 445 988 q 732 952 648 988 q 876 852 816 917 q 970 695 937 788 q 1003 488 1003 603 m 963 488 q 933 684 963 597 q 848 831 903 770 q 716 923 792 891 q 546 955 639 955 q 377 923 454 955 q 245 831 301 891 q 159 684 190 770 q 128 488 128 597 q 159 293 128 379 q 245 147 190 206 q 377 55 301 87 q 546 23 454 23 q 716 55 639 23 q 848 147 792 87 q 933 293 903 206 q 963 488 963 379 z "},"Λ":{"ha":894,"x_min":25,"x_max":869,"o":"m 869 0 l 838 0 q 823 12 828 0 l 461 886 q 453 908 457 897 q 446 931 449 919 q 439 908 442 919 q 431 886 435 897 l 69 12 q 53 0 65 0 l 25 0 l 431 976 l 464 976 l 869 0 z "},"Ξ":{"ha":850,"x_min":71,"x_max":785,"o":"m 785 976 l 785 943 l 71 943 l 71 976 l 785 976 m 785 33 l 785 0 l 71 0 l 71 33 l 785 33 m 242 517 l 610 517 l 610 483 l 242 483 l 242 517 z "},"Π":{"ha":1043,"x_min":155,"x_max":888,"o":"m 888 0 l 849 0 l 849 944 l 193 944 l 193 0 l 155 0 l 155 976 l 888 976 l 888 0 z "},"Σ":{"ha":834,"x_min":54,"x_max":768,"o":"m 160 944 q 126 946 142 944 q 92 951 110 947 q 121 925 109 937 q 148 894 133 913 l 443 510 q 451 499 449 504 q 453 490 453 494 q 443 469 453 480 l 142 81 q 115 49 126 61 q 92 28 103 37 q 158 32 126 32 l 768 32 l 768 0 l 54 0 l 54 14 q 57 24 54 19 q 63 32 59 28 l 421 487 l 60 947 q 54 961 54 955 l 54 976 l 768 976 l 768 944 l 160 944 z "},"Φ":{"ha":1107,"x_min":67,"x_max":1040,"o":"m 572 83 q 751 117 672 84 q 886 205 831 149 q 973 335 942 261 q 1003 492 1003 409 q 973 650 1003 576 q 886 780 942 724 q 751 869 831 836 q 572 903 672 902 l 572 83 m 535 903 q 356 869 435 902 q 220 780 276 836 q 134 650 165 724 q 104 492 104 576 q 134 335 104 409 q 220 205 165 261 q 356 117 276 149 q 535 83 435 84 l 535 903 m 572 933 q 770 897 683 933 q 917 801 857 861 q 1009 661 977 741 q 1040 492 1040 581 q 1009 324 1040 403 q 917 184 977 244 q 770 88 857 124 q 572 53 683 53 l 572 -83 l 535 -83 l 535 53 q 337 88 424 53 q 190 184 250 124 q 98 324 130 244 q 67 492 67 403 q 99 661 67 581 q 192 801 131 741 q 340 897 253 861 q 535 933 426 933 l 535 1059 l 572 1059 l 572 933 z "},"Ψ":{"ha":1089,"x_min":86,"x_max":1003,"o":"m 1003 976 l 1003 633 q 974 473 1003 544 q 890 352 945 402 q 752 275 834 302 q 564 247 670 248 l 564 0 l 525 0 l 525 247 q 337 275 419 248 q 199 352 255 302 q 115 473 144 402 q 86 633 86 544 l 86 976 l 110 976 q 122 972 118 976 q 125 961 125 967 l 125 633 q 151 485 125 550 q 228 374 177 419 q 353 304 278 328 q 525 278 428 279 l 525 976 l 564 976 l 564 278 q 736 304 661 279 q 861 374 810 328 q 938 485 912 419 q 964 633 964 550 l 964 961 q 967 972 964 967 q 978 976 971 976 l 1003 976 z "},"Ω":{"ha":1103,"x_min":96,"x_max":1007,"o":"m 368 35 q 396 33 381 35 q 425 30 410 32 q 298 90 358 47 q 193 195 238 133 q 122 340 149 258 q 96 516 96 421 q 133 717 96 629 q 233 864 170 804 q 378 955 296 924 q 551 986 461 986 q 669 972 612 986 q 777 931 726 958 q 870 864 828 904 q 942 772 912 824 q 990 656 973 720 q 1007 516 1007 592 q 981 340 1007 421 q 909 195 954 258 q 805 90 865 133 q 678 30 745 47 q 707 33 692 32 q 735 35 722 35 l 1005 35 l 1005 15 q 1001 4 1005 8 q 990 0 997 0 l 641 0 l 641 47 q 773 105 713 63 q 877 209 833 147 q 944 349 920 271 q 969 516 969 427 q 934 705 969 624 q 841 842 899 787 q 708 925 783 897 q 551 953 633 953 q 445 941 497 953 q 347 904 394 928 q 262 842 301 879 q 194 757 223 806 q 150 648 166 708 q 134 516 134 588 q 158 349 134 427 q 226 209 183 271 q 330 105 269 147 q 462 47 390 63 l 462 0 l 113 0 q 102 4 106 0 q 98 15 98 8 l 98 35 l 368 35 z "},"α":{"ha":794,"x_min":79,"x_max":778,"o":"m 615 479 q 585 549 604 515 q 537 609 566 583 q 470 651 508 635 q 382 667 431 667 q 278 645 326 667 q 194 582 230 624 q 137 477 158 540 q 117 335 117 415 q 135 199 117 258 q 186 101 154 140 q 260 41 218 61 q 349 21 302 21 q 434 39 393 21 q 509 91 476 56 q 565 176 542 125 q 593 293 587 226 l 615 479 m 778 24 l 778 10 q 769 0 778 4 q 738 -4 759 -4 q 681 5 708 -4 q 634 34 654 14 q 601 85 613 53 q 589 161 589 117 q 589 168 589 165 q 590 176 589 172 q 490 39 554 86 q 345 -8 425 -8 q 242 15 290 -8 q 157 81 193 38 q 100 189 121 125 q 79 335 79 253 q 103 488 79 421 q 167 602 126 556 q 261 672 207 648 q 377 696 315 696 q 466 682 426 696 q 536 643 506 667 q 588 589 567 619 q 622 525 610 558 l 639 671 q 653 685 642 685 l 670 685 l 628 295 q 623 227 625 260 q 620 172 620 194 q 630 103 620 131 q 658 58 640 75 q 701 32 676 40 q 756 24 726 24 l 778 24 z "},"β":{"ha":748,"x_min":122,"x_max":673,"o":"m 158 141 q 198 90 177 113 q 245 52 219 68 q 301 28 270 37 q 372 20 333 20 q 482 40 433 20 q 565 94 531 60 q 618 176 599 129 q 636 276 636 222 q 615 381 636 335 q 555 461 594 428 q 461 511 516 494 q 338 529 406 529 l 297 529 l 297 557 l 335 557 q 423 569 380 557 q 498 606 465 581 q 551 669 531 631 q 572 762 572 708 q 558 841 572 805 q 519 903 544 877 q 456 944 493 929 q 370 958 418 958 q 278 939 318 958 q 212 879 238 920 q 172 773 185 838 q 158 616 158 708 l 158 141 m 122 617 q 185 897 122 808 q 371 986 249 986 q 471 969 427 986 q 545 922 515 952 q 591 852 575 892 q 606 764 606 811 q 592 681 606 717 q 552 616 577 644 q 492 571 526 589 q 419 544 458 553 q 525 514 478 536 q 605 458 572 492 q 655 378 638 424 q 673 278 673 333 q 652 166 673 218 q 593 75 631 113 q 500 14 554 36 q 378 -8 445 -8 q 251 19 306 -8 q 158 103 196 47 l 158 -281 l 122 -281 l 122 617 z "},"γ":{"ha":715,"x_min":40,"x_max":672,"o":"m 672 685 q 619 487 647 574 q 559 323 592 399 q 485 177 526 247 q 392 34 444 108 l 392 -248 l 356 -248 l 356 40 q 280 323 315 206 q 209 515 244 440 q 140 624 175 590 q 67 658 105 658 l 40 658 l 40 672 q 44 682 40 678 q 68 687 49 687 q 156 655 116 687 q 233 550 196 623 q 305 357 269 476 q 381 63 341 238 q 463 193 426 126 q 530 334 499 260 q 584 489 560 408 q 629 663 609 571 q 636 681 631 676 q 647 685 640 685 l 672 685 z "},"δ":{"ha":745,"x_min":76,"x_max":668,"o":"m 375 20 q 479 39 432 20 q 560 93 526 58 q 613 178 594 128 q 632 293 632 229 q 611 414 632 362 q 557 506 590 466 q 480 578 523 547 q 393 636 437 609 q 284 592 335 619 q 195 524 233 564 q 135 430 157 483 q 114 309 114 377 q 130 200 114 252 q 179 107 147 147 q 261 44 212 67 q 375 20 310 20 m 577 945 q 573 936 576 938 q 561 934 569 934 q 541 937 558 934 q 499 944 524 940 q 443 951 474 948 q 383 954 413 954 q 304 946 336 954 q 252 925 272 938 q 223 893 232 911 q 215 855 215 875 q 234 795 215 822 q 285 744 253 768 q 358 695 317 719 q 441 644 399 672 q 525 585 484 617 q 597 511 565 552 q 649 417 629 469 q 668 298 668 365 q 646 170 668 226 q 584 74 624 113 q 492 13 545 34 q 375 -8 438 -8 q 245 17 301 -8 q 152 86 190 43 q 95 188 115 130 q 76 310 76 245 q 153 524 76 438 q 369 651 229 610 q 298 695 332 674 q 238 741 264 717 q 196 792 212 765 q 181 853 181 819 q 190 901 181 878 q 224 943 200 925 q 286 972 247 961 q 383 983 324 983 q 426 982 401 983 q 476 978 450 981 q 528 972 502 976 q 579 963 555 968 l 577 945 z "},"ε":{"ha":620,"x_min":79,"x_max":560,"o":"m 560 84 q 526 50 547 67 q 475 20 504 33 q 411 0 447 8 q 336 -8 376 -8 q 233 6 280 -8 q 151 47 185 21 q 98 110 117 74 q 79 189 79 146 q 90 249 79 221 q 124 301 101 278 q 181 341 147 324 q 261 365 215 358 q 185 391 216 374 q 135 431 154 408 q 107 477 116 453 q 99 524 99 501 q 113 586 99 556 q 157 641 128 617 q 232 681 187 666 q 337 696 276 696 q 460 676 408 696 q 547 623 512 656 l 539 610 q 529 605 535 605 q 512 615 524 605 q 477 636 499 624 q 420 657 454 647 q 338 667 385 667 q 246 655 285 667 q 182 622 208 642 q 145 576 157 601 q 133 523 133 550 q 148 466 133 492 q 190 420 163 440 q 257 389 218 400 q 344 378 297 378 l 457 378 l 457 351 l 344 351 q 246 340 289 351 q 174 307 203 328 q 130 256 145 285 q 115 192 115 227 q 132 123 115 154 q 177 68 148 91 q 247 33 206 46 q 338 20 288 20 q 428 32 392 20 q 489 59 465 44 q 524 86 512 74 q 542 99 536 99 q 551 94 547 99 l 560 84 z "},"ζ":{"ha":513,"x_min":78,"x_max":539,"o":"m 530 961 q 529 956 530 959 q 522 946 528 953 q 505 928 516 940 q 473 897 493 917 q 344 771 408 838 q 229 632 281 705 q 146 478 178 558 q 114 313 114 399 q 131 210 114 251 q 177 141 147 169 q 247 97 207 114 q 335 66 288 79 q 446 27 406 47 q 507 -13 487 7 q 533 -52 528 -33 q 539 -91 539 -72 q 525 -171 539 -136 q 491 -239 510 -206 l 463 -226 q 491 -167 478 -199 q 504 -97 504 -135 q 499 -64 504 -81 q 477 -32 494 -48 q 424 1 459 -15 q 328 33 389 17 q 225 68 272 47 q 147 120 179 88 q 96 197 114 151 q 78 308 78 242 q 110 477 78 396 q 197 636 142 558 q 327 791 252 714 q 490 951 403 869 q 354 947 428 948 q 206 947 281 947 l 134 947 q 120 958 120 947 l 120 976 l 527 976 l 530 961 z "},"η":{"ha":786,"x_min":14,"x_max":672,"o":"m 14 677 q 20 686 14 683 q 42 690 26 690 q 141 657 103 690 q 182 551 178 624 q 298 657 231 617 q 444 696 365 696 q 544 678 501 696 q 615 627 587 660 q 657 547 643 594 q 672 438 672 499 l 672 -248 l 635 -248 l 635 438 q 623 534 635 492 q 586 606 611 576 q 525 651 562 635 q 438 667 488 667 q 300 627 363 667 q 186 519 236 588 l 186 0 l 150 0 l 150 533 q 122 631 150 601 q 35 662 94 662 l 14 662 l 14 677 z "},"θ":{"ha":815,"x_min":103,"x_max":713,"o":"m 140 478 q 157 282 140 367 q 208 138 174 197 q 292 50 242 80 q 408 20 342 20 q 524 50 474 20 q 608 138 574 80 q 659 282 642 197 q 677 478 676 367 l 140 478 m 677 506 q 658 699 676 615 q 607 841 640 783 q 523 928 573 898 q 408 958 473 958 q 293 928 342 958 q 210 841 244 898 q 159 699 176 783 q 140 506 141 615 l 677 506 m 408 986 q 537 953 481 986 q 633 858 594 921 q 692 701 672 794 q 713 488 713 608 q 692 274 713 367 q 633 119 672 181 q 537 24 594 56 q 408 -8 481 -8 q 278 24 335 -8 q 183 119 222 56 q 124 274 144 181 q 103 488 103 367 q 124 701 103 608 q 183 858 144 794 q 278 953 222 921 q 408 986 335 986 z "},"ι":{"ha":331,"x_min":117,"x_max":322,"o":"m 117 685 l 153 685 l 153 156 q 183 54 153 89 q 278 19 213 19 l 322 19 l 322 7 q 311 -5 322 -1 q 268 -9 300 -9 q 155 33 194 -9 q 117 154 117 76 l 117 685 z "},"λ":{"ha":721,"x_min":56,"x_max":725,"o":"m 725 23 l 725 8 q 718 -2 725 1 q 689 -6 711 -6 q 645 -1 666 -6 q 607 15 625 3 q 572 47 588 26 q 544 102 556 68 l 356 581 q 346 615 349 600 q 335 583 343 600 l 101 13 q 95 4 100 8 q 83 0 90 0 l 56 0 l 328 650 l 239 878 q 221 913 231 898 q 197 938 211 928 q 164 953 183 948 q 117 958 144 958 l 74 958 l 74 972 q 76 977 74 974 q 81 982 77 980 q 94 985 85 984 q 116 986 102 986 q 215 965 178 986 q 269 894 251 943 l 576 115 q 621 43 596 64 q 684 23 646 23 l 725 23 z "},"μ":{"ha":813,"x_min":122,"x_max":800,"o":"m 800 23 l 800 8 q 790 -2 800 2 q 760 -6 781 -6 q 705 3 731 -6 q 658 28 678 11 q 625 73 638 46 q 610 140 613 101 q 497 31 563 70 q 354 -8 432 -8 q 224 26 274 -8 q 153 126 175 60 q 156 59 155 94 q 157 -3 157 25 l 157 -248 l 139 -248 q 126 -243 131 -248 q 122 -231 122 -239 l 122 685 l 158 685 l 158 251 q 170 155 158 197 q 207 82 182 112 q 268 37 231 53 q 356 22 306 22 q 496 62 432 22 q 607 175 560 102 l 607 685 l 643 685 l 643 152 q 653 94 643 118 q 681 54 663 69 q 723 31 699 38 q 777 23 748 23 l 800 23 z "},"ν":{"ha":692,"x_min":33,"x_max":648,"o":"m 648 685 q 592 479 622 572 q 527 306 563 387 q 447 151 491 225 q 349 0 403 76 l 328 0 l 33 685 l 60 685 q 72 681 67 685 q 77 672 76 676 l 331 80 q 338 59 335 69 q 343 40 341 49 q 499 322 435 167 q 605 667 563 478 q 612 681 607 677 q 622 685 617 685 l 648 685 z "},"ξ":{"ha":522,"x_min":76,"x_max":518,"o":"m 488 962 q 483 950 488 954 q 472 945 478 945 l 418 945 q 311 927 360 945 q 226 877 262 908 q 171 805 191 846 q 151 721 151 765 q 167 649 151 682 q 214 593 183 617 q 290 557 244 570 q 397 544 336 544 l 444 544 l 444 513 l 380 513 q 261 497 312 513 q 178 451 211 481 q 128 381 144 422 q 112 291 112 340 q 131 201 112 238 q 184 136 151 163 q 264 89 218 108 q 360 53 309 69 q 444 20 413 36 q 492 -12 476 4 q 513 -47 508 -29 q 518 -86 518 -65 q 504 -168 518 -132 q 471 -237 490 -205 l 442 -224 q 457 -195 449 -210 q 470 -165 465 -181 q 480 -131 476 -149 q 484 -92 484 -112 q 480 -59 484 -74 q 461 -31 476 -44 q 419 -4 447 -17 q 345 23 392 9 q 244 59 292 38 q 158 109 195 79 q 98 183 120 140 q 76 289 76 226 q 89 371 76 332 q 127 442 101 410 q 193 498 153 474 q 288 531 233 521 q 212 560 244 542 q 159 602 180 578 q 127 657 138 627 q 117 719 117 686 q 131 794 117 758 q 172 861 146 831 q 236 914 199 891 q 319 950 274 938 q 250 948 286 949 q 165 947 214 947 l 90 947 q 76 960 76 947 l 76 976 l 488 976 l 488 962 z "},"π":{"ha":814,"x_min":59,"x_max":759,"o":"m 759 655 q 743 642 759 642 l 615 642 q 614 544 615 589 q 611 458 613 499 q 610 381 610 418 q 609 308 609 344 q 616 162 609 217 q 637 76 623 106 q 674 36 651 46 q 728 26 697 26 l 745 26 l 745 11 q 736 1 745 5 q 706 -3 728 -3 q 650 7 674 -3 q 608 45 625 17 q 583 120 592 72 q 574 243 574 168 q 576 316 574 274 q 579 410 577 358 q 582 520 581 461 q 585 642 584 578 l 259 642 q 240 341 258 464 q 198 141 223 218 q 144 30 173 65 q 89 -4 115 -4 q 75 -2 81 -4 q 69 5 69 1 l 69 31 l 82 31 q 108 45 93 31 q 139 91 123 60 q 170 170 155 122 q 197 286 185 218 q 217 442 210 354 q 226 642 225 531 l 59 642 l 59 656 q 63 667 59 661 q 77 672 67 672 l 759 672 l 759 655 z "},"ρ":{"ha":763,"x_min":113,"x_max":683,"o":"m 150 155 q 252 53 194 87 q 378 20 310 20 q 496 45 446 20 q 579 113 546 69 q 629 217 613 157 q 646 347 646 276 q 627 488 646 428 q 575 588 608 549 q 494 647 541 628 q 392 667 448 667 q 297 648 341 667 q 220 595 253 630 q 169 512 188 561 q 150 401 150 463 l 150 155 m 113 401 q 134 524 113 469 q 192 617 155 578 q 281 675 229 655 q 392 696 332 696 q 508 674 455 696 q 600 609 561 653 q 661 500 640 566 q 683 347 683 435 q 664 207 683 272 q 607 94 645 142 q 514 19 569 47 q 384 -8 458 -8 q 251 25 311 -8 q 150 116 190 58 l 150 -248 l 113 -248 l 113 401 z "},"σ":{"ha":786,"x_min":81,"x_max":758,"o":"m 426 649 q 282 627 341 649 q 187 564 224 604 q 134 466 151 523 q 117 339 117 408 q 136 203 117 263 q 189 103 154 144 q 274 42 224 63 q 387 21 324 21 q 502 43 452 21 q 585 108 551 66 q 635 209 618 149 q 651 344 651 269 q 638 464 651 410 q 599 556 625 517 q 535 619 574 595 q 447 649 497 642 l 426 649 m 758 678 l 758 665 q 754 655 758 660 q 740 649 750 649 l 521 649 q 647 539 604 617 q 689 343 689 460 q 669 200 689 265 q 611 89 649 135 q 517 17 573 42 q 388 -8 460 -8 q 261 15 318 -8 q 165 83 205 38 q 102 192 124 127 q 81 340 81 256 q 100 478 81 416 q 162 585 120 541 q 269 654 204 630 q 425 678 335 678 l 758 678 z "},"ς":{"ha":624,"x_min":78,"x_max":582,"o":"m 573 610 q 569 606 571 608 q 563 604 567 604 q 546 614 558 604 q 514 635 535 624 q 460 657 492 647 q 383 667 428 667 q 270 644 319 667 q 186 582 220 622 q 133 488 151 542 q 115 367 115 433 q 139 236 115 288 q 203 148 163 183 q 296 92 243 113 q 407 52 349 70 q 491 19 460 35 q 539 -13 522 3 q 560 -48 555 -30 q 565 -87 565 -66 q 550 -169 565 -133 q 517 -239 536 -206 l 488 -225 q 503 -197 496 -212 q 517 -166 511 -182 q 527 -132 523 -150 q 531 -93 531 -114 q 526 -61 531 -76 q 508 -32 522 -46 q 466 -5 493 -18 q 392 22 438 8 q 266 66 324 42 q 167 130 209 91 q 102 225 126 168 q 78 366 78 282 q 99 497 78 436 q 158 601 119 557 q 253 670 197 645 q 382 696 310 696 q 496 675 446 696 q 582 622 546 655 l 573 610 z "},"τ":{"ha":622,"x_min":30,"x_max":583,"o":"m 583 658 q 567 642 583 642 l 300 642 l 300 162 q 330 60 300 95 q 424 26 360 26 l 468 26 l 468 13 q 458 1 468 6 q 415 -3 447 -3 q 302 40 341 -3 q 264 160 264 82 l 264 642 l 30 642 l 30 659 q 44 672 30 672 l 583 672 l 583 658 z "},"υ":{"ha":751,"x_min":115,"x_max":650,"o":"m 609 685 q 626 605 618 642 q 639 531 633 567 q 647 455 644 494 q 650 372 650 417 q 627 200 650 272 q 567 80 605 127 q 478 11 528 33 q 372 -11 428 -11 q 266 6 313 -11 q 184 57 218 24 q 133 138 151 90 q 115 247 115 186 l 115 685 l 151 685 l 151 247 q 167 151 151 193 q 212 79 183 108 q 282 34 241 49 q 373 18 323 18 q 460 37 417 18 q 538 98 503 56 q 593 208 572 140 q 614 372 614 275 q 602 521 614 444 q 574 669 590 597 q 576 681 572 677 q 585 685 581 685 l 609 685 z "},"φ":{"ha":931,"x_min":78,"x_max":853,"o":"m 481 20 q 629 48 566 21 q 734 122 692 75 q 796 232 776 169 q 817 368 817 295 q 800 484 817 429 q 756 579 784 538 q 688 643 727 619 q 602 667 648 667 q 510 630 540 667 q 481 515 481 592 l 481 20 m 446 515 q 484 650 446 604 q 602 696 523 696 q 703 670 657 696 q 782 600 749 644 q 834 497 815 556 q 853 368 853 437 q 829 219 853 288 q 759 100 806 151 q 642 21 712 50 q 481 -8 572 -8 l 481 -248 l 446 -248 l 446 -8 q 285 21 354 -8 q 170 97 216 49 q 101 209 124 145 q 78 342 78 272 q 93 458 78 404 q 137 557 108 513 q 206 636 165 601 q 298 692 247 670 l 306 677 q 306 666 308 672 q 299 659 304 660 q 218 605 253 638 q 160 531 183 572 q 126 441 138 490 q 115 342 115 393 q 134 221 115 279 q 195 119 154 163 q 298 48 235 74 q 446 20 360 21 l 446 515 z "},"χ":{"ha":628,"x_min":-1,"x_max":647,"o":"m 647 -224 l 647 -239 q 642 -249 647 -246 q 621 -253 638 -253 q 583 -249 601 -253 q 547 -233 565 -244 q 513 -200 530 -221 q 481 -145 497 -178 l 317 217 q 306 186 312 201 q 294 158 299 171 l 91 -233 q 85 -241 89 -237 q 73 -246 81 -246 l 49 -246 l 299 243 l 145 581 q 125 616 135 601 q 100 641 115 631 q 66 656 86 651 q 19 660 47 660 l -1 660 l -1 675 q 3 685 -1 681 q 25 689 6 689 q 119 667 85 689 q 176 597 154 645 l 326 265 q 349 326 336 299 l 526 672 q 533 680 528 676 q 544 685 537 685 l 568 685 l 343 241 l 514 -132 q 538 -175 526 -157 q 563 -203 549 -192 q 591 -219 576 -215 q 626 -224 607 -224 l 647 -224 z "},"ψ":{"ha":993,"x_min":112,"x_max":894,"o":"m 853 685 q 870 605 863 642 q 883 531 878 567 q 891 455 888 494 q 894 372 894 417 q 879 247 894 302 q 837 150 864 192 q 773 78 810 108 q 695 29 737 48 q 607 0 653 10 q 515 -10 561 -9 l 515 -248 l 479 -248 l 479 -11 q 334 12 401 -9 q 217 72 267 33 q 140 168 168 111 q 112 300 112 226 l 112 685 l 135 685 q 145 680 141 685 q 149 669 149 674 l 149 300 q 173 187 149 238 q 240 99 197 136 q 345 41 284 63 q 479 18 406 20 l 479 976 l 515 976 l 515 19 q 594 28 553 20 q 673 54 635 37 q 745 98 711 72 q 804 164 779 125 q 844 254 829 203 q 859 372 859 306 q 846 524 859 450 q 817 669 833 599 q 820 681 817 677 q 829 685 824 685 l 853 685 z "},"ω":{"ha":985,"x_min":81,"x_max":903,"o":"m 796 685 q 838 601 818 643 q 872 514 857 559 q 895 421 886 469 q 903 317 903 372 q 883 169 903 231 q 830 67 863 108 q 755 8 797 27 q 669 -11 713 -11 q 613 -2 640 -11 q 562 25 585 6 q 520 72 538 43 q 492 140 502 100 q 464 72 483 100 q 423 25 446 43 q 372 -2 399 6 q 317 -11 344 -11 q 231 8 273 -11 q 155 67 188 27 q 102 169 122 108 q 81 317 81 231 q 90 421 81 372 q 113 514 99 469 q 147 601 128 559 q 189 685 167 643 l 213 685 q 222 680 217 685 q 223 667 227 676 q 145 494 174 581 q 117 317 117 406 q 138 172 117 229 q 189 80 158 114 q 255 32 219 46 q 319 18 290 18 q 384 33 355 18 q 433 75 413 48 q 464 142 453 103 q 474 228 474 181 l 474 453 l 511 453 l 511 228 q 522 142 511 181 q 553 75 533 103 q 602 33 573 48 q 667 18 631 18 q 730 32 695 18 q 796 80 765 46 q 847 172 826 114 q 868 317 868 229 q 840 494 868 406 q 763 667 812 581 q 763 680 758 676 q 773 685 767 685 l 796 685 z "},"΄":{"ha":556,"x_min":265,"x_max":365,"o":"m 265 803 l 325 1013 l 349 1013 q 361 1006 358 1013 q 362 990 365 999 l 291 803 l 265 803 z "},"΅":{"ha":556,"x_min":116,"x_max":499,"o":"m 264 804 l 324 1014 l 349 1014 q 361 1007 358 1014 q 362 990 365 1000 l 291 804 l 264 804 m 499 872 q 486 843 499 856 q 456 830 472 830 q 424 843 438 830 q 411 872 411 856 q 424 903 411 890 q 456 916 438 916 q 486 903 472 916 q 499 872 499 890 m 203 872 q 190 843 203 856 q 160 830 176 830 q 129 843 142 830 q 116 872 116 856 q 129 903 116 890 q 160 916 142 916 q 190 903 176 916 q 203 872 203 890 z "},"ʹ":{"ha":264,"x_min":83,"x_max":172,"o":"m 169 1040 q 171 968 172 1005 q 163 896 170 932 q 140 827 155 860 q 99 764 124 793 l 90 771 q 88 783 83 776 q 133 874 118 824 q 133 976 147 924 l 133 1025 q 136 1035 133 1031 q 147 1040 139 1040 l 169 1040 z "},"͵":{"ha":264,"x_min":83,"x_max":172,"o":"m 169 169 q 171 98 172 134 q 163 25 170 61 q 140 -44 155 -10 q 99 -107 124 -78 l 90 -100 q 88 -88 83 -95 q 133 3 118 -47 q 133 105 147 53 l 133 154 q 136 165 133 160 q 147 169 139 169 l 169 169 z "},"Б":{"ha":837,"x_min":155,"x_max":756,"o":"m 440 31 q 648 92 577 31 q 718 267 718 153 q 648 436 718 381 q 442 492 578 492 l 193 492 l 193 31 l 440 31 m 442 524 q 677 458 598 524 q 756 269 756 392 q 735 156 756 206 q 675 72 715 106 q 576 18 635 37 q 440 0 517 0 l 155 0 l 155 976 l 728 976 l 728 946 l 193 946 l 193 524 l 442 524 z "},"Г":{"ha":738,"x_min":155,"x_max":717,"o":"m 717 944 l 193 944 l 193 0 l 155 0 l 155 976 l 717 976 l 717 944 z "},"Ґ":{"ha":738,"x_min":155,"x_max":717,"o":"m 717 944 l 193 944 l 193 0 l 155 0 l 155 976 l 685 976 l 685 1204 l 717 1204 l 717 944 z "},"Д":{"ha":1035,"x_min":10,"x_max":1000,"o":"m 786 32 l 786 944 l 357 944 q 340 674 350 794 q 316 460 330 554 q 285 294 302 365 q 247 172 267 224 q 204 87 227 121 q 156 32 181 53 l 786 32 m 1000 32 l 1000 -235 q 986 -249 1000 -249 l 965 -249 l 965 0 l 46 0 l 46 -235 q 31 -249 46 -249 l 10 -249 l 10 32 l 97 32 q 149 67 124 42 q 197 140 174 92 q 239 258 219 187 q 275 432 259 330 q 302 668 290 533 q 321 976 314 803 l 825 976 l 825 32 l 1000 32 z "},"Ж":{"ha":1368,"x_min":32,"x_max":1337,"o":"m 1337 0 l 1312 0 q 1295 4 1303 0 q 1283 15 1288 8 l 945 430 q 924 452 935 442 q 900 469 913 462 q 871 479 887 476 q 834 483 855 483 l 703 483 l 703 0 l 665 0 l 665 483 l 535 483 q 468 469 493 483 q 423 430 443 455 l 85 15 q 74 4 81 8 q 58 0 66 0 l 32 0 l 388 442 q 427 480 406 465 q 480 501 449 495 q 431 522 451 508 q 392 559 410 535 l 46 976 l 74 976 q 88 972 81 976 q 99 962 94 968 l 429 565 q 456 539 442 549 q 484 523 469 528 q 514 515 498 517 q 547 513 529 513 l 665 513 l 665 976 l 703 976 l 703 513 l 821 513 q 884 523 857 513 q 939 565 912 533 l 1269 962 q 1280 972 1274 968 q 1294 976 1287 976 l 1323 976 l 976 559 q 938 522 958 535 q 888 501 917 508 q 941 480 919 495 q 981 442 963 465 l 1337 0 z "},"З":{"ha":783,"x_min":53,"x_max":692,"o":"m 97 888 q 153 931 124 913 q 214 961 181 949 q 284 980 247 974 q 365 985 321 985 q 487 967 433 985 q 580 917 542 949 q 639 842 618 885 q 659 748 659 799 q 644 667 659 703 q 604 603 629 631 q 547 557 579 576 q 478 528 514 538 q 569 494 529 517 q 636 438 609 470 q 678 364 664 405 q 692 279 692 324 q 670 166 692 219 q 605 74 647 113 q 500 13 562 35 q 358 -10 438 -10 q 261 -1 305 -10 q 180 24 217 8 q 112 64 143 40 q 53 117 81 88 l 63 131 q 68 136 66 135 q 76 138 71 138 q 91 130 81 138 q 115 108 100 121 q 152 80 130 95 q 203 52 174 65 q 271 31 233 40 q 359 22 310 22 q 485 42 430 22 q 578 96 540 62 q 636 176 616 130 q 656 276 656 222 q 638 367 656 324 q 588 442 621 410 q 505 492 554 474 q 393 510 456 510 l 267 510 l 267 544 l 400 544 q 482 558 442 544 q 553 597 522 572 q 603 660 585 623 q 622 746 622 698 q 605 829 622 791 q 553 895 587 867 q 473 938 520 922 q 367 953 426 953 q 256 940 301 953 q 184 910 212 926 q 140 880 156 893 q 117 866 125 866 q 106 874 110 866 l 97 888 z "},"И":{"ha":1043,"x_min":155,"x_max":888,"o":"m 888 976 l 888 0 l 849 0 l 849 859 q 850 894 849 876 q 852 931 851 912 q 836 902 844 915 q 820 878 828 890 l 201 12 q 182 0 194 0 l 155 0 l 155 976 l 193 976 l 193 117 q 193 82 193 99 q 190 44 192 64 q 206 73 198 60 q 222 99 214 86 l 842 965 q 861 976 849 976 l 888 976 z "},"К":{"ha":867,"x_min":155,"x_max":843,"o":"m 843 0 l 812 0 q 795 4 802 0 q 781 18 788 8 l 427 435 q 408 456 417 447 q 386 470 398 465 q 360 480 375 476 q 325 483 346 483 l 193 483 l 193 0 l 155 0 l 155 976 l 193 976 l 193 513 l 313 513 q 345 515 331 513 q 374 522 360 517 q 399 538 387 528 q 425 564 411 548 l 759 962 q 786 976 769 976 l 815 976 l 463 557 q 425 521 444 535 q 378 501 406 508 q 427 482 408 496 q 465 444 446 468 l 843 0 z "},"Л":{"ha":961,"x_min":-8,"x_max":806,"o":"m 806 0 l 768 0 l 768 944 l 339 944 q 315 600 330 747 q 281 347 301 453 q 235 173 260 242 q 178 64 209 104 q 112 8 148 24 q 36 -8 76 -8 q 21 -7 29 -8 q 7 -5 13 -6 q -4 -2 0 -3 q -8 3 -8 0 l -8 26 l 31 26 q 97 42 65 26 q 155 99 128 58 q 206 208 183 139 q 248 382 229 276 q 280 634 266 488 q 302 976 294 781 l 806 976 l 806 0 z "},"Љ":{"ha":1431,"x_min":-8,"x_max":1369,"o":"m 1053 31 q 1261 92 1190 31 q 1331 267 1331 153 q 1261 436 1331 381 q 1055 492 1192 492 l 806 492 l 806 31 l 1053 31 m 1055 524 q 1290 458 1211 524 q 1369 269 1369 392 q 1349 156 1369 206 q 1288 72 1328 106 q 1189 18 1248 37 q 1053 0 1130 0 l 768 0 l 768 944 l 339 944 q 315 600 330 747 q 281 347 301 453 q 235 173 260 242 q 178 64 209 104 q 112 8 148 24 q 36 -8 76 -8 q 21 -7 29 -8 q 7 -5 13 -6 q -4 -2 0 -3 q -8 3 -8 0 l -8 26 l 31 26 q 97 42 65 26 q 155 99 128 58 q 206 208 183 139 q 248 382 229 276 q 280 634 266 488 q 302 976 294 781 l 806 976 l 806 524 l 1055 524 z "},"Њ":{"ha":1513,"x_min":155,"x_max":1451,"o":"m 1135 31 q 1343 92 1272 31 q 1413 267 1413 153 q 1343 436 1413 381 q 1137 492 1274 492 l 888 492 l 888 31 l 1135 31 m 1137 524 q 1372 458 1292 524 q 1451 269 1451 392 q 1431 156 1451 206 q 1370 72 1410 106 q 1271 18 1330 37 q 1135 0 1212 0 l 849 0 l 849 480 l 193 480 l 193 0 l 155 0 l 155 976 l 193 976 l 193 510 l 849 510 l 849 976 l 888 976 l 888 524 l 1137 524 z "},"Ѳ":{"ha":1093,"x_min":90,"x_max":1003,"o":"m 128 485 q 160 291 129 377 q 246 145 191 205 q 378 55 301 86 q 546 23 454 23 q 715 55 638 23 q 847 145 792 86 q 932 291 901 205 q 963 485 963 377 l 128 485 m 963 517 q 926 701 958 619 q 840 839 894 782 q 710 925 785 895 q 546 955 635 955 q 383 925 457 955 q 253 839 308 895 q 166 701 198 782 q 129 517 133 619 l 963 517 m 546 988 q 732 952 648 988 q 876 852 816 917 q 970 695 937 788 q 1003 488 1003 603 q 970 282 1003 374 q 876 125 937 190 q 732 25 816 60 q 546 -10 648 -10 q 361 25 445 -10 q 217 125 277 60 q 123 282 156 190 q 90 488 90 374 q 123 694 90 602 q 217 852 156 787 q 361 952 277 917 q 546 988 445 988 z "},"П":{"ha":996,"x_min":155,"x_max":841,"o":"m 841 0 l 803 0 l 803 944 l 193 944 l 193 0 l 155 0 l 155 976 l 841 976 l 841 0 z "},"У":{"ha":820,"x_min":33,"x_max":797,"o":"m 797 976 l 395 110 q 364 56 381 78 q 327 20 347 34 q 284 -1 308 6 q 233 -8 261 -8 q 218 -7 226 -8 q 204 -5 210 -6 q 193 -2 197 -3 q 189 3 189 0 l 189 26 l 228 26 q 306 50 272 26 q 362 125 339 74 l 426 269 l 33 976 l 67 976 q 84 966 78 976 l 421 353 q 446 297 436 327 q 455 325 449 311 q 468 354 461 340 l 749 966 q 765 976 753 976 l 797 976 z "},"Ѵ":{"ha":931,"x_min":25,"x_max":910,"o":"m 742 881 q 764 923 751 905 q 794 953 778 941 q 830 971 811 965 q 867 977 849 977 q 882 976 874 977 q 896 975 890 976 q 906 972 902 974 q 910 967 910 970 l 910 946 l 872 946 q 817 925 843 946 q 778 869 791 905 l 464 0 l 431 0 l 25 976 l 55 976 q 70 965 65 976 l 432 90 q 440 68 436 79 q 448 44 444 57 q 455 68 451 57 q 463 90 458 79 l 742 881 z "},"Ф":{"ha":1031,"x_min":74,"x_max":956,"o":"m 534 153 q 693 183 622 153 q 815 262 765 212 q 891 378 865 312 q 918 518 918 444 q 891 659 918 592 q 815 775 865 725 q 693 854 765 825 q 534 884 622 883 l 534 153 m 497 884 q 337 854 408 883 q 216 775 266 825 q 140 659 167 725 q 113 518 113 592 q 140 378 113 444 q 216 262 167 312 q 337 183 266 212 q 497 153 408 153 l 497 884 m 534 914 q 712 881 633 913 q 844 795 790 849 q 927 669 899 741 q 956 518 956 598 q 927 366 956 438 q 844 240 899 294 q 712 154 790 185 q 534 122 633 122 l 534 0 l 497 0 l 497 122 q 319 154 397 122 q 186 240 240 185 q 102 366 131 294 q 74 518 74 438 q 103 669 74 598 q 188 795 133 741 q 321 881 242 849 q 497 914 399 913 l 497 1028 l 534 1028 l 534 914 z "},"Ц":{"ha":1047,"x_min":155,"x_max":1008,"o":"m 1008 32 l 1008 -235 q 994 -249 1008 -249 l 974 -249 l 974 0 l 155 0 l 155 976 l 193 976 l 193 32 l 803 32 l 803 976 l 841 976 l 841 32 l 1008 32 z "},"Џ":{"ha":996,"x_min":155,"x_max":841,"o":"m 841 976 l 841 0 l 515 0 l 515 -235 q 501 -249 515 -249 l 481 -249 l 481 0 l 155 0 l 155 976 l 193 976 l 193 32 l 803 32 l 803 976 l 841 976 z "},"Ч":{"ha":881,"x_min":81,"x_max":726,"o":"m 726 976 l 726 0 l 688 0 l 688 485 q 536 446 611 462 q 394 426 462 430 q 269 431 326 422 q 170 468 212 440 q 104 543 128 495 q 81 664 81 591 l 81 976 l 119 976 l 119 664 q 139 562 119 603 q 193 495 158 520 q 280 462 229 471 q 394 457 331 453 q 532 476 458 460 q 688 516 606 492 l 688 976 l 726 976 z "},"Ш":{"ha":1473,"x_min":155,"x_max":1318,"o":"m 1318 976 l 1318 0 l 155 0 l 155 976 l 193 976 l 193 32 l 714 32 l 714 976 l 753 976 l 753 32 l 1280 32 l 1280 976 l 1318 976 z "},"Щ":{"ha":1524,"x_min":155,"x_max":1485,"o":"m 1485 32 l 1485 -235 q 1472 -249 1485 -249 l 1450 -249 l 1450 0 l 155 0 l 155 976 l 193 976 l 193 32 l 714 32 l 714 976 l 753 976 l 753 32 l 1280 32 l 1280 976 l 1318 976 l 1318 32 l 1485 32 z "},"Ъ":{"ha":974,"x_min":20,"x_max":913,"o":"m 597 31 q 804 92 733 31 q 874 267 874 153 q 805 436 874 381 q 598 492 735 492 l 349 492 l 349 31 l 597 31 m 598 524 q 833 458 754 524 q 913 269 913 392 q 892 156 913 206 q 831 72 871 106 q 732 18 791 37 q 597 0 673 0 l 311 0 l 311 944 l 20 944 l 20 976 l 349 976 l 349 524 l 598 524 z "},"Ы":{"ha":1199,"x_min":155,"x_max":1044,"o":"m 440 31 q 648 92 577 31 q 718 267 718 153 q 648 436 718 381 q 442 492 578 492 l 193 492 l 193 31 l 440 31 m 442 524 q 677 458 598 524 q 756 269 756 392 q 735 156 756 206 q 675 72 715 106 q 576 18 635 37 q 440 0 517 0 l 155 0 l 155 976 l 193 976 l 193 524 l 442 524 m 1044 0 l 1006 0 l 1006 976 l 1044 976 l 1044 0 z "},"Ь":{"ha":818,"x_min":155,"x_max":756,"o":"m 440 31 q 648 92 577 31 q 718 267 718 153 q 648 436 718 381 q 442 492 578 492 l 193 492 l 193 31 l 440 31 m 442 524 q 677 458 598 524 q 756 269 756 392 q 735 156 756 206 q 675 72 715 106 q 576 18 635 37 q 440 0 517 0 l 155 0 l 155 976 l 193 976 l 193 524 l 442 524 z "},"Э":{"ha":957,"x_min":65,"x_max":867,"o":"m 84 872 q 225 958 149 928 q 399 988 300 988 q 589 951 503 988 q 738 850 676 915 q 833 692 799 784 q 867 488 867 600 q 834 281 867 374 q 740 124 800 189 q 595 24 679 59 q 412 -11 512 -11 q 301 -1 351 -11 q 209 27 251 9 q 131 70 167 45 q 65 126 96 96 l 80 142 q 88 145 83 145 q 97 140 92 145 q 159 90 128 112 q 228 52 191 67 q 309 29 265 37 q 410 22 354 22 q 576 53 500 22 q 708 144 652 85 q 796 290 764 204 q 828 485 828 376 l 261 485 l 261 517 l 828 517 q 790 699 824 618 q 700 837 757 781 q 567 924 644 894 q 399 955 490 955 q 311 947 350 955 q 240 928 272 940 q 186 903 209 917 q 146 878 163 890 q 119 859 129 867 q 105 851 109 851 q 94 856 97 851 l 84 872 z "},"Є":{"ha":958,"x_min":89,"x_max":892,"o":"m 869 145 q 877 142 872 145 l 892 126 q 826 70 861 96 q 748 27 790 45 q 655 -1 706 9 q 544 -11 605 -11 q 361 24 445 -11 q 217 124 278 59 q 123 281 157 189 q 89 488 89 374 q 123 692 89 600 q 219 850 157 784 q 368 951 281 915 q 558 988 454 988 q 732 958 656 988 q 873 872 808 928 l 863 856 q 851 851 860 851 q 837 859 847 851 q 811 878 827 867 q 771 903 794 890 q 717 928 748 917 q 646 947 685 940 q 558 955 606 955 q 390 924 467 955 q 257 837 313 894 q 167 699 200 781 q 129 517 133 618 l 696 517 l 696 485 l 128 485 q 160 290 128 376 q 248 144 192 204 q 381 53 304 85 q 547 22 457 22 q 647 29 603 22 q 729 52 692 37 q 798 90 766 67 q 860 140 829 112 q 869 145 865 145 z "},"Ю":{"ha":1393,"x_min":155,"x_max":1301,"o":"m 886 24 q 1039 55 969 24 q 1157 147 1108 87 q 1234 293 1207 207 q 1262 488 1262 379 q 1234 684 1262 597 q 1157 831 1207 771 q 1039 924 1108 892 q 886 956 969 956 q 734 924 803 956 q 615 831 665 892 q 538 684 565 771 q 510 488 510 597 q 538 293 510 379 q 615 147 565 207 q 734 55 665 87 q 886 24 803 24 m 471 507 q 505 706 474 617 q 591 858 537 795 q 721 954 646 920 q 886 988 797 988 q 1054 952 978 988 q 1185 852 1131 917 q 1271 694 1240 787 q 1301 488 1301 602 q 1271 282 1301 374 q 1185 125 1240 190 q 1054 26 1131 61 q 886 -8 978 -8 q 720 25 796 -8 q 590 122 644 59 q 504 274 535 184 q 471 475 473 363 l 193 475 l 193 0 l 155 0 l 155 976 l 193 976 l 193 507 l 471 507 z "},"Я":{"ha":888,"x_min":11,"x_max":733,"o":"m 694 484 l 694 945 l 447 945 q 239 887 310 945 q 169 715 169 828 q 239 543 169 601 q 445 484 308 484 l 694 484 m 733 0 l 694 0 l 694 453 l 499 453 q 460 450 478 453 q 425 439 442 447 q 391 415 408 431 q 354 375 374 400 l 67 15 q 55 4 63 8 q 39 0 47 0 l 11 0 l 317 383 q 364 431 341 413 q 411 458 387 449 q 201 533 272 465 q 131 716 131 601 q 151 826 131 778 q 213 908 172 875 q 311 959 253 942 q 447 976 370 976 l 733 976 l 733 0 z "},"Ђ":{"ha":994,"x_min":17,"x_max":937,"o":"m 622 524 q 857 458 778 524 q 937 269 937 392 q 916 156 937 206 q 855 72 895 106 q 756 18 815 37 q 621 0 697 0 l 542 0 l 542 31 l 621 31 q 828 92 758 31 q 899 267 899 153 q 829 436 899 381 q 622 492 759 492 l 358 492 l 358 0 l 319 0 l 319 944 l 17 944 l 17 976 l 718 976 l 718 944 l 358 944 l 358 524 l 622 524 z "},"Ћ":{"ha":1010,"x_min":17,"x_max":928,"o":"m 358 519 q 507 558 435 542 q 642 578 578 574 q 757 573 705 583 q 848 536 810 564 q 907 461 885 509 q 928 340 928 413 l 928 0 l 890 0 l 890 340 q 850 480 890 431 q 741 543 811 528 q 573 541 670 557 q 358 488 475 526 l 358 0 l 319 0 l 319 944 l 17 944 l 17 976 l 718 976 l 718 944 l 358 944 l 358 519 z "},"Ѣ":{"ha":982,"x_min":48,"x_max":919,"o":"m 603 31 q 810 92 740 31 q 881 267 881 153 q 811 436 881 381 q 604 492 741 492 l 356 492 l 356 31 l 603 31 m 604 524 q 840 458 760 524 q 919 269 919 392 q 898 156 919 206 q 837 72 877 106 q 738 18 797 37 q 603 0 679 0 l 317 0 l 317 765 l 48 765 l 48 797 l 317 797 l 317 976 l 356 976 l 356 797 l 688 797 l 688 765 l 356 765 l 356 524 l 604 524 z "},"б":{"ha":799,"x_min":103,"x_max":718,"o":"m 408 19 q 525 41 474 19 q 610 103 576 63 q 663 200 645 143 q 681 326 681 256 q 664 451 681 394 q 614 549 647 508 q 533 611 581 589 q 420 633 484 633 q 310 615 360 633 q 222 560 259 596 q 165 474 185 525 q 144 360 144 424 q 161 220 144 283 q 212 113 178 158 q 295 44 246 68 q 408 19 344 19 m 452 921 q 214 786 290 903 q 134 453 138 670 q 175 542 147 503 q 242 608 203 581 q 327 648 281 634 q 425 661 374 661 q 549 637 494 661 q 641 569 603 613 q 698 463 678 525 q 718 326 718 401 q 697 189 718 251 q 635 84 675 128 q 538 16 595 40 q 408 -8 480 -8 q 292 13 347 -8 q 195 84 237 33 q 128 221 153 135 q 103 436 103 306 q 123 643 103 551 q 186 801 144 735 q 294 906 229 867 q 449 954 360 944 l 697 982 l 699 965 q 685 947 701 948 l 452 921 z "},"в":{"ha":674,"x_min":122,"x_max":598,"o":"m 354 27 q 442 39 403 27 q 508 72 481 50 q 549 123 535 93 q 564 191 564 153 q 552 254 564 226 q 515 303 540 283 q 450 334 490 323 q 356 344 410 344 l 158 344 l 158 27 l 354 27 m 158 658 l 158 370 l 336 370 q 413 381 378 370 q 473 413 448 392 q 512 462 498 433 q 526 525 526 490 q 517 574 526 550 q 485 617 507 598 q 426 647 463 635 q 337 658 390 658 l 158 658 m 338 685 q 441 672 399 685 q 509 638 483 659 q 547 588 535 616 q 558 528 558 560 q 551 480 558 506 q 526 430 544 453 q 478 388 508 406 q 403 361 449 369 q 493 342 456 357 q 553 305 530 327 q 587 254 576 283 q 598 192 598 225 q 581 112 598 147 q 532 51 563 76 q 455 13 500 26 q 354 0 410 0 l 122 0 l 122 685 l 338 685 z "},"г":{"ha":554,"x_min":122,"x_max":529,"o":"m 529 656 l 159 656 l 159 0 l 122 0 l 122 685 l 529 685 l 529 656 z "},"ґ":{"ha":554,"x_min":122,"x_max":530,"o":"m 530 865 l 530 656 l 159 656 l 159 0 l 122 0 l 122 685 l 498 685 l 498 865 l 530 865 z "},"д":{"ha":819,"x_min":22,"x_max":784,"o":"m 624 28 l 624 654 l 314 654 q 288 384 306 495 q 245 199 270 273 q 193 85 221 126 q 138 28 165 45 l 624 28 m 784 28 l 784 -235 q 772 -249 784 -249 l 752 -249 l 752 0 l 54 0 l 54 -238 q 52 -245 54 -242 q 44 -249 49 -249 l 22 -249 l 22 28 l 51 28 q 101 39 76 28 q 150 79 126 51 q 195 156 174 108 q 234 277 217 204 q 265 451 252 350 q 283 685 277 551 l 659 685 l 659 28 l 784 28 z "},"ж":{"ha":1019,"x_min":29,"x_max":990,"o":"m 990 0 l 965 0 q 938 13 944 0 l 743 273 q 691 318 721 302 q 624 334 661 334 l 528 334 l 528 -1 l 492 -1 l 492 334 l 397 334 q 329 318 359 334 q 277 273 299 302 l 83 13 q 55 0 75 0 l 29 0 l 246 286 q 346 351 285 339 q 299 375 319 359 q 264 410 280 390 l 51 685 l 78 685 q 99 673 92 685 l 301 415 q 348 375 319 390 q 406 360 376 360 l 492 360 l 492 685 l 528 685 l 528 360 l 614 360 q 672 375 643 360 q 719 415 700 390 l 920 673 q 942 685 927 685 l 969 685 l 756 410 q 720 375 740 390 q 674 351 701 359 q 729 330 705 346 q 774 286 753 313 l 990 0 z "},"з":{"ha":619,"x_min":60,"x_max":540,"o":"m 73 623 q 161 676 108 656 q 285 696 214 696 q 390 681 345 696 q 463 642 434 666 q 506 587 492 617 q 520 526 520 556 q 511 478 520 503 q 483 431 503 453 q 431 392 463 409 q 352 366 399 374 q 435 343 399 359 q 493 303 470 326 q 528 250 517 279 q 540 189 540 221 q 521 110 540 146 q 468 47 501 74 q 388 6 434 21 q 287 -8 341 -8 q 211 0 247 -8 q 147 20 176 8 q 95 50 117 33 q 60 84 73 67 l 69 94 q 78 99 72 99 q 98 86 84 99 q 135 59 111 74 q 196 32 160 44 q 285 20 233 20 q 375 33 334 20 q 444 68 415 45 q 489 122 473 91 q 505 191 505 153 q 490 256 505 226 q 445 306 474 285 q 373 340 416 328 q 276 351 331 351 l 198 351 l 198 378 l 276 378 q 363 389 324 378 q 430 419 402 400 q 473 466 458 439 q 488 523 488 492 q 475 576 488 550 q 438 622 463 601 q 375 654 413 642 q 284 667 336 667 q 201 657 235 667 q 144 636 167 647 q 108 615 121 624 q 91 605 96 605 q 81 610 85 605 l 73 623 z "},"и":{"ha":781,"x_min":122,"x_max":658,"o":"m 658 685 l 658 0 l 622 0 l 622 598 q 624 631 622 615 q 616 618 619 624 q 608 607 612 612 q 587 579 607 606 q 535 510 567 553 q 463 415 503 468 q 380 306 422 361 q 156 10 281 175 q 150 3 153 6 q 142 0 146 0 l 122 0 l 122 685 l 159 685 l 159 87 q 157 53 159 70 q 165 67 161 61 q 172 78 169 73 q 193 106 173 79 q 245 174 213 132 q 317 270 277 216 q 400 379 358 324 q 624 675 499 510 q 631 682 627 678 q 639 685 635 685 l 658 685 z "},"к":{"ha":653,"x_min":122,"x_max":624,"o":"m 552 673 q 562 681 556 678 q 574 685 567 685 l 601 685 l 388 410 q 353 374 372 390 q 306 351 333 359 q 362 329 338 345 q 406 286 386 313 l 624 0 l 598 0 q 569 13 578 0 l 375 273 q 323 318 353 302 q 256 334 293 334 l 159 334 l 159 -1 l 122 -1 l 122 685 l 159 685 l 159 360 l 247 360 q 304 375 276 360 q 351 415 333 390 l 552 673 z "},"л":{"ha":780,"x_min":-5,"x_max":658,"o":"m 658 0 l 621 0 l 621 654 l 312 654 q 289 413 305 516 q 252 237 274 310 q 203 116 230 164 q 146 41 176 69 q 86 3 117 14 q 27 -8 56 -8 q 6 -6 17 -8 q -5 -1 -5 -4 l -5 23 l 23 23 q 75 34 48 23 q 129 73 103 44 q 180 148 156 101 q 225 269 205 196 q 260 445 245 343 q 281 685 274 547 l 658 685 l 658 0 z "},"љ":{"ha":1149,"x_min":-5,"x_max":1090,"o":"m 853 28 q 943 41 905 28 q 1007 76 982 53 q 1045 129 1033 98 q 1057 196 1057 160 q 1047 260 1057 230 q 1012 311 1036 290 q 948 346 988 333 q 849 359 908 359 l 658 359 l 658 28 l 853 28 m 849 387 q 965 370 919 387 q 1040 328 1012 354 q 1079 267 1067 301 q 1090 197 1090 233 q 1075 119 1090 155 q 1031 56 1060 83 q 956 15 1001 30 q 853 0 912 0 l 621 0 l 621 654 l 312 654 q 289 413 305 516 q 252 237 274 310 q 203 116 230 164 q 146 41 176 69 q 86 3 117 14 q 27 -8 56 -8 q 6 -6 17 -8 q -5 -1 -5 -4 l -5 23 l 23 23 q 75 34 48 23 q 129 73 103 44 q 180 148 156 101 q 225 269 205 196 q 260 445 245 343 q 281 685 274 547 l 658 685 l 658 387 l 849 387 z "},"м":{"ha":952,"x_min":122,"x_max":830,"o":"m 830 689 l 830 0 l 798 0 l 798 603 q 799 619 798 610 q 801 635 799 627 l 495 133 q 490 126 493 129 q 483 123 488 123 l 478 123 q 471 126 474 123 q 466 133 468 129 l 151 635 q 153 619 153 627 q 154 603 154 610 l 154 0 l 122 0 l 122 689 l 144 689 q 158 681 153 689 l 471 185 q 476 175 474 180 q 481 165 478 169 q 485 175 483 169 q 490 185 487 180 l 794 681 q 808 689 799 689 l 830 689 z "},"н":{"ha":766,"x_min":122,"x_max":644,"o":"m 644 685 l 644 0 l 607 0 l 607 356 l 159 356 l 159 0 l 122 0 l 122 685 l 159 685 l 159 384 l 607 384 l 607 685 l 644 685 z "},"њ":{"ha":1136,"x_min":122,"x_max":1076,"o":"m 840 28 q 930 41 892 28 q 994 76 969 53 q 1031 129 1019 98 q 1043 196 1043 160 q 1033 260 1043 230 q 998 311 1022 290 q 934 346 974 333 q 835 359 894 359 l 644 359 l 644 28 l 840 28 m 835 387 q 952 370 906 387 q 1026 328 999 354 q 1065 267 1053 301 q 1076 197 1076 233 q 1061 119 1076 155 q 1017 56 1047 83 q 943 15 988 30 q 840 0 899 0 l 607 0 l 607 356 l 159 356 l 159 0 l 122 0 l 122 685 l 159 685 l 159 384 l 607 384 l 607 685 l 644 685 l 644 387 l 835 387 z "},"ѳ":{"ha":769,"x_min":80,"x_max":688,"o":"m 115 329 q 134 202 117 259 q 186 105 152 145 q 269 42 220 64 q 384 20 319 20 q 499 42 449 20 q 582 105 548 64 q 634 202 616 145 q 653 329 651 259 l 115 329 m 653 356 q 634 483 651 426 q 582 581 616 540 q 499 645 548 622 q 384 667 449 667 q 269 645 319 667 q 186 581 220 622 q 134 483 152 540 q 115 356 117 426 l 653 356 m 384 696 q 514 670 457 696 q 609 599 570 645 q 668 488 648 553 q 688 342 688 422 q 668 198 688 263 q 609 87 648 133 q 514 16 570 41 q 384 -8 457 -8 q 255 16 311 -8 q 159 87 198 41 q 100 198 120 133 q 80 342 80 263 q 100 488 80 422 q 159 599 120 553 q 255 670 198 645 q 384 696 311 696 z "},"п":{"ha":766,"x_min":122,"x_max":644,"o":"m 644 0 l 607 0 l 607 656 l 159 656 l 159 0 l 122 0 l 122 685 l 644 685 l 644 0 z "},"т":{"ha":682,"x_min":24,"x_max":658,"o":"m 658 656 l 359 656 l 359 0 l 323 0 l 323 656 l 24 656 l 24 685 l 658 685 l 658 656 z "},"ѵ":{"ha":719,"x_min":33,"x_max":688,"o":"m 549 602 q 572 648 559 631 q 599 675 585 665 q 628 687 613 684 q 658 690 643 690 q 681 688 674 690 q 688 683 688 685 l 688 663 l 669 663 q 616 647 636 663 q 581 597 595 632 l 350 0 l 319 0 l 33 685 l 59 685 q 71 681 67 685 q 76 672 75 676 l 322 80 q 335 39 331 58 q 347 80 340 60 l 549 602 z "},"ф":{"ha":913,"x_min":78,"x_max":834,"o":"m 474 20 q 618 46 557 22 q 718 112 678 69 q 778 213 758 154 q 797 342 797 271 q 778 473 797 414 q 718 575 758 532 q 618 641 678 617 q 474 667 557 665 l 474 639 l 473 606 l 473 78 l 474 53 l 474 20 m 439 667 q 294 641 356 665 q 193 575 233 617 q 134 473 153 532 q 115 342 115 414 q 134 213 115 271 q 193 112 153 154 q 294 46 233 69 q 439 20 356 22 l 439 53 l 440 76 l 440 606 l 439 626 l 439 667 m 474 696 q 631 668 563 694 q 743 596 698 642 q 811 485 789 550 q 834 342 834 421 q 811 200 834 264 q 743 90 789 136 q 631 19 698 44 q 474 -8 563 -6 l 474 -249 l 439 -249 l 439 -8 q 282 19 349 -6 q 169 90 215 44 q 101 200 124 136 q 78 342 78 264 q 101 485 78 421 q 169 596 124 550 q 282 668 215 642 q 439 696 349 694 l 439 976 l 474 976 l 474 696 z "},"ц":{"ha":803,"x_min":122,"x_max":769,"o":"m 769 28 l 769 -235 q 756 -249 769 -249 l 737 -249 l 737 0 l 122 0 l 122 685 l 159 685 l 159 28 l 607 28 l 607 685 l 644 685 l 644 28 l 769 28 z "},"џ":{"ha":766,"x_min":122,"x_max":644,"o":"m 644 685 l 644 0 l 399 0 l 399 -235 q 386 -249 399 -249 l 367 -249 l 367 0 l 122 0 l 122 685 l 159 685 l 159 28 l 607 28 l 607 685 l 644 685 z "},"ч":{"ha":683,"x_min":73,"x_max":561,"o":"m 561 685 l 561 0 l 525 0 l 525 333 q 411 306 467 317 q 306 292 356 295 q 213 297 256 290 q 139 324 170 304 q 90 377 108 343 q 73 462 73 411 l 73 685 l 109 685 l 109 465 q 142 367 109 401 q 231 324 174 334 q 363 325 288 315 q 525 360 439 336 l 525 685 l 561 685 z "},"ш":{"ha":1119,"x_min":122,"x_max":997,"o":"m 997 685 l 997 0 l 122 0 l 122 685 l 159 685 l 159 28 l 541 28 l 541 685 l 578 685 l 578 28 l 960 28 l 960 685 l 997 685 z "},"щ":{"ha":1157,"x_min":122,"x_max":1123,"o":"m 960 685 l 997 685 l 997 0 l 122 0 l 122 685 l 159 685 l 159 28 l 541 28 l 541 685 l 578 685 l 578 28 l 960 28 l 960 685 m 1123 28 l 1123 -235 q 1110 -249 1123 -249 l 1090 -249 l 1090 0 l 997 0 l 997 28 l 1123 28 z "},"ъ":{"ha":788,"x_min":24,"x_max":729,"o":"m 492 28 q 582 41 544 28 q 646 76 621 53 q 684 129 672 98 q 696 196 696 160 q 685 260 696 230 q 651 311 675 290 q 587 346 626 333 q 488 359 547 359 l 296 359 l 296 28 l 492 28 m 488 387 q 604 370 558 387 q 678 328 651 354 q 718 267 706 301 q 729 197 729 233 q 714 119 729 155 q 669 56 699 83 q 595 15 640 30 q 492 0 551 0 l 260 0 l 260 655 l 24 655 l 24 685 l 296 685 l 296 387 l 488 387 z "},"ы":{"ha":951,"x_min":122,"x_max":828,"o":"m 354 28 q 444 41 406 28 q 508 76 483 53 q 545 129 533 98 q 558 196 558 160 q 547 260 558 230 q 513 311 537 290 q 449 346 489 333 q 350 359 409 359 l 158 359 l 158 28 l 354 28 m 350 387 q 467 370 420 387 q 541 328 513 354 q 580 267 568 301 q 591 197 591 233 q 576 119 591 155 q 531 56 561 83 q 457 15 501 30 q 354 0 413 0 l 122 0 l 122 685 l 158 685 l 158 387 l 350 387 m 828 685 l 828 0 l 792 0 l 792 685 l 828 685 z "},"ь":{"ha":649,"x_min":122,"x_max":591,"o":"m 354 28 q 444 41 406 28 q 508 76 483 53 q 545 129 533 98 q 558 196 558 160 q 547 260 558 230 q 513 311 537 290 q 449 346 489 333 q 350 359 409 359 l 158 359 l 158 28 l 354 28 m 350 387 q 467 370 420 387 q 541 328 513 354 q 580 267 568 301 q 591 197 591 233 q 576 119 591 155 q 531 56 561 83 q 457 15 501 30 q 354 0 413 0 l 122 0 l 122 685 l 158 685 l 158 387 l 350 387 z "},"э":{"ha":658,"x_min":64,"x_max":578,"o":"m 74 622 q 160 675 110 655 q 274 696 210 696 q 403 670 347 696 q 498 598 459 644 q 557 487 537 552 q 578 342 578 422 q 557 194 578 260 q 498 84 536 129 q 407 15 460 39 q 288 -8 353 -8 q 213 0 248 -8 q 149 20 178 8 q 98 50 120 33 q 64 84 76 67 l 72 94 q 81 98 75 98 q 99 86 87 98 q 135 59 112 74 q 194 32 158 44 q 283 20 231 20 q 388 41 341 20 q 469 103 435 63 q 522 202 503 143 q 542 336 541 260 l 153 336 l 153 364 l 541 364 q 519 490 538 434 q 466 585 500 546 q 383 645 431 624 q 273 667 334 667 q 196 657 228 667 q 143 636 164 647 q 110 615 122 624 q 93 605 98 605 q 88 607 90 605 q 83 610 85 608 l 74 622 z "},"є":{"ha":658,"x_min":80,"x_max":594,"o":"m 574 610 q 570 607 572 608 q 565 605 568 605 q 548 615 559 605 q 515 636 536 624 q 462 657 494 647 q 385 667 430 667 q 275 645 324 667 q 192 585 226 624 q 138 490 158 546 q 116 364 119 434 l 505 364 l 505 336 l 116 336 q 135 201 117 260 q 188 102 154 142 q 269 41 222 62 q 374 20 317 20 q 463 32 427 20 q 523 59 499 44 q 558 86 546 74 q 576 98 571 98 q 585 94 582 98 l 594 84 q 559 50 581 67 q 509 20 538 33 q 445 0 480 8 q 370 -8 410 -8 q 251 15 304 -8 q 159 84 197 39 q 101 194 122 129 q 80 342 80 260 q 100 487 80 422 q 160 598 121 552 q 255 670 199 644 q 383 696 311 696 q 497 675 447 696 q 583 622 547 655 l 574 610 z "},"ю":{"ha":1036,"x_min":122,"x_max":956,"o":"m 669 21 q 778 44 732 21 q 856 109 825 67 q 902 210 887 151 q 918 342 918 269 q 902 475 918 415 q 856 577 887 535 q 778 643 825 620 q 669 667 732 667 q 561 643 608 667 q 484 577 515 620 q 437 475 453 535 q 422 342 422 415 q 437 210 422 269 q 484 109 453 151 q 561 44 515 67 q 669 21 608 21 m 385 356 q 406 496 387 433 q 462 603 426 559 q 551 672 499 647 q 669 696 603 696 q 791 670 738 696 q 881 599 844 645 q 936 488 917 553 q 956 342 956 422 q 936 198 956 263 q 881 87 917 133 q 791 16 844 41 q 669 -8 738 -8 q 550 15 603 -8 q 462 83 498 39 q 406 189 426 127 q 385 328 386 251 l 159 328 l 159 0 l 122 0 l 122 685 l 159 685 l 159 356 l 385 356 z "},"я":{"ha":648,"x_min":28,"x_max":526,"o":"m 490 343 l 490 658 l 326 658 q 236 643 272 658 q 178 605 200 628 q 146 552 156 581 q 136 496 136 524 q 151 432 136 460 q 194 384 166 403 q 264 353 223 364 q 356 343 304 343 l 490 343 m 526 685 l 526 0 l 490 0 l 490 317 l 391 317 q 363 316 374 317 q 341 310 351 314 q 324 299 332 306 q 308 282 316 292 l 81 13 q 53 0 73 0 l 28 0 l 277 292 q 323 326 294 317 q 221 343 263 328 q 152 381 179 358 q 114 435 126 404 q 101 502 101 466 q 113 566 101 533 q 151 625 125 598 q 220 668 178 651 q 324 685 263 685 l 526 685 z "},"ђ":{"ha":740,"x_min":-28,"x_max":651,"o":"m 159 503 q 273 607 207 568 q 417 645 339 645 q 518 625 474 645 q 592 569 563 606 q 636 482 622 533 q 651 369 651 431 q 638 202 651 281 q 597 49 624 123 q 531 -97 570 -26 q 441 -238 492 -167 l 413 -224 q 496 -90 458 -158 q 560 51 533 -22 q 601 202 587 123 q 615 369 615 281 q 602 470 615 425 q 563 548 589 516 q 499 598 537 581 q 410 616 460 616 q 272 577 335 616 q 159 468 208 538 l 159 0 l 122 0 l 122 790 l -28 790 l -28 820 l 122 820 l 122 1004 l 159 1004 l 159 820 l 447 820 l 447 790 l 159 790 l 159 503 z "},"ѣ":{"ha":767,"x_min":24,"x_max":713,"o":"m 476 28 q 566 41 528 28 q 630 76 604 53 q 667 129 655 98 q 679 196 679 160 q 669 260 679 230 q 634 311 658 290 q 570 346 610 333 q 472 359 531 359 l 265 359 l 265 28 l 476 28 m 472 387 q 588 370 542 387 q 662 328 635 354 q 701 267 690 301 q 713 197 713 233 q 698 119 713 155 q 653 56 683 83 q 579 15 623 30 q 476 0 535 0 l 230 0 l 230 654 l 24 654 l 24 685 l 230 685 l 230 904 l 265 904 l 265 685 l 506 685 l 506 654 l 265 654 l 265 387 l 472 387 z "},"!":{"ha":343,"x_min":117,"x_max":223,"o":"m 191 976 l 191 579 q 191 522 191 549 q 190 466 190 494 q 188 406 189 438 q 185 333 186 374 l 160 333 q 157 406 158 374 q 155 466 156 438 q 154 522 154 494 q 153 579 153 549 l 153 976 l 191 976 m 117 41 q 132 79 117 63 q 169 94 147 94 q 207 79 192 94 q 223 41 223 63 q 207 4 223 19 q 169 -11 192 -11 q 132 4 147 -11 q 117 41 117 19 z "},"?":{"ha":589,"x_min":70,"x_max":515,"o":"m 70 892 q 109 927 88 910 q 158 958 131 944 q 217 980 185 972 q 287 988 249 988 q 373 974 332 988 q 446 934 415 960 q 497 870 478 908 q 515 785 515 833 q 506 715 515 746 q 480 658 496 683 q 443 613 464 633 q 401 576 423 593 q 359 544 380 559 q 322 515 338 530 q 294 485 305 500 q 283 451 284 469 l 278 333 l 253 333 l 251 453 q 267 503 251 481 q 310 544 284 524 q 365 586 335 565 q 420 635 394 608 q 463 699 446 663 q 480 784 480 735 q 464 857 480 825 q 420 912 447 890 q 358 946 393 934 q 285 958 323 958 q 202 944 237 958 q 143 915 167 931 q 106 886 119 899 q 89 873 92 873 q 79 878 83 873 l 70 892 m 213 41 q 228 79 213 63 q 265 94 243 94 q 303 79 288 94 q 319 41 319 63 q 303 4 319 19 q 265 -11 288 -11 q 228 4 243 -11 q 213 41 213 19 z "},"‽":{"ha":616,"x_min":84,"x_max":545,"o":"m 270 94 q 308 79 292 94 q 324 41 324 63 q 308 4 324 19 q 270 -11 292 -11 q 233 4 248 -11 q 218 41 218 19 q 233 79 218 63 q 270 94 248 94 m 232 950 q 315 962 271 962 q 407 948 365 962 q 480 909 449 934 q 528 847 511 883 q 545 766 545 810 q 524 678 545 715 q 473 616 503 642 q 405 569 442 589 q 336 531 368 549 q 283 494 305 513 q 260 449 262 474 l 283 308 l 260 308 q 230 419 244 363 q 200 531 215 474 l 84 972 l 119 979 l 224 569 q 232 533 226 558 q 243 481 238 509 q 277 523 253 504 q 331 560 301 542 q 392 598 360 578 q 450 641 424 617 q 493 695 476 665 q 510 767 510 726 q 496 834 510 803 q 456 886 482 864 q 393 919 430 908 q 312 931 357 931 q 268 928 283 931 q 249 925 253 925 q 237 932 238 925 l 232 950 z "},",":{"ha":299,"x_min":101,"x_max":201,"o":"m 105 -164 q 101 -156 101 -160 q 105 -149 101 -154 q 122 -128 110 -142 q 145 -94 133 -114 q 165 -50 156 -74 q 176 3 174 -25 q 148 -5 165 -5 q 115 9 128 -5 q 101 45 101 23 q 115 80 101 65 q 151 94 128 94 q 188 78 174 94 q 201 33 201 62 q 176 -76 201 -23 q 110 -169 151 -129 l 105 -164 z "},";":{"ha":340,"x_min":118,"x_max":224,"o":"m 124 -164 q 121 -156 121 -160 q 124 -149 121 -154 q 141 -128 130 -142 q 164 -94 153 -114 q 185 -50 176 -74 q 196 3 194 -25 q 167 -5 184 -5 q 134 9 147 -5 q 121 45 121 23 q 134 80 121 65 q 170 94 148 94 q 207 78 193 94 q 221 33 221 62 q 196 -76 221 -23 q 130 -169 171 -129 l 124 -164 m 118 612 q 133 650 118 634 q 170 665 148 665 q 208 650 192 665 q 224 612 224 634 q 208 575 224 590 q 170 560 192 560 q 133 575 148 560 q 118 612 118 590 z "},":":{"ha":327,"x_min":111,"x_max":217,"o":"m 111 41 q 126 79 111 63 q 163 94 141 94 q 201 79 185 94 q 217 41 217 63 q 201 4 217 19 q 163 -11 185 -11 q 126 4 141 -11 q 111 41 111 19 m 111 612 q 126 650 111 634 q 163 665 141 665 q 201 650 185 665 q 217 612 217 634 q 201 575 217 590 q 163 560 185 560 q 126 575 141 560 q 111 612 111 590 z "},".":{"ha":323,"x_min":109,"x_max":215,"o":"m 109 41 q 124 79 109 63 q 161 94 139 94 q 199 79 183 94 q 215 41 215 63 q 199 4 215 19 q 161 -11 183 -11 q 124 4 139 -11 q 109 41 109 19 z "},"…":{"ha":988,"x_min":109,"x_max":878,"o":"m 109 41 q 124 79 109 63 q 161 94 139 94 q 199 79 183 94 q 215 41 215 63 q 199 4 215 19 q 161 -11 183 -11 q 124 4 139 -11 q 109 41 109 19 m 773 41 q 788 79 773 63 q 825 94 803 94 q 863 79 847 94 q 878 41 878 63 q 863 4 878 19 q 825 -11 847 -11 q 788 4 803 -11 q 773 41 773 19 m 441 41 q 456 79 441 63 q 493 94 471 94 q 531 79 515 94 q 547 41 547 63 q 531 4 547 19 q 493 -11 515 -11 q 456 4 471 -11 q 441 41 441 19 z "},"‘":{"ha":280,"x_min":98,"x_max":187,"o":"m 135 687 q 106 771 113 726 q 103 861 98 816 q 125 947 108 906 q 172 1019 143 988 l 181 1013 q 182 1001 187 1008 q 146 930 158 968 q 133 854 134 892 q 139 780 131 816 q 163 716 147 744 q 166 706 167 710 q 160 698 165 701 l 135 687 z "},"’":{"ha":278,"x_min":97,"x_max":187,"o":"m 150 1043 q 179 959 172 1004 q 182 868 187 913 q 159 782 176 824 q 113 710 142 741 l 103 717 q 103 728 97 722 q 138 799 126 761 q 152 875 150 837 q 145 949 153 913 q 122 1013 137 985 q 118 1024 118 1019 q 124 1031 119 1028 l 150 1043 z "},"“":{"ha":455,"x_min":98,"x_max":362,"o":"m 135 687 q 106 771 113 726 q 103 861 98 816 q 125 947 108 906 q 172 1019 143 988 l 181 1013 q 182 1001 187 1008 q 146 930 158 968 q 133 854 134 892 q 139 780 131 816 q 163 716 147 744 q 166 706 167 710 q 160 698 165 701 l 135 687 m 310 687 q 281 771 288 726 q 278 861 273 816 q 300 947 283 906 q 347 1019 318 988 l 356 1013 q 357 1001 362 1008 q 321 930 333 968 q 308 854 309 892 q 314 780 306 816 q 338 716 322 744 q 341 706 342 710 q 335 698 340 701 l 310 687 z "},"”":{"ha":453,"x_min":97,"x_max":362,"o":"m 150 1043 q 179 959 172 1004 q 182 868 187 913 q 159 782 176 824 q 113 710 142 741 l 103 717 q 103 728 97 722 q 138 799 126 761 q 152 875 150 837 q 145 949 153 913 q 122 1013 137 985 q 118 1024 118 1019 q 124 1031 119 1028 l 150 1043 m 325 1043 q 354 959 347 1004 q 357 868 362 913 q 334 782 351 824 q 288 710 317 741 l 278 717 q 278 728 272 722 q 313 799 301 761 q 327 875 325 837 q 320 949 328 913 q 297 1013 312 985 q 293 1024 293 1019 q 299 1031 294 1028 l 325 1043 z "},"‚":{"ha":293,"x_min":97,"x_max":188,"o":"m 151 128 q 180 43 172 89 q 182 -47 188 -2 q 160 -133 177 -92 q 113 -205 142 -174 l 103 -199 q 103 -187 97 -193 q 139 -116 127 -154 q 152 -40 151 -78 q 146 34 154 -2 q 122 98 138 69 q 119 108 119 103 q 125 116 119 113 l 151 128 z "},"„":{"ha":468,"x_min":97,"x_max":363,"o":"m 151 128 q 180 43 172 89 q 182 -47 188 -2 q 160 -133 177 -92 q 113 -205 142 -174 l 103 -199 q 103 -187 97 -193 q 139 -116 127 -154 q 152 -40 151 -78 q 146 34 154 -2 q 122 98 138 69 q 119 108 119 103 q 125 116 119 113 l 151 128 m 326 128 q 355 43 347 89 q 357 -47 363 -2 q 335 -133 352 -92 q 288 -205 317 -174 l 278 -199 q 278 -187 272 -193 q 314 -116 302 -154 q 327 -40 326 -78 q 321 34 329 -2 q 297 98 313 69 q 294 108 294 103 q 300 116 294 113 l 326 128 z "},"‹":{"ha":366,"x_min":83,"x_max":271,"o":"m 261 124 q 265 110 267 116 q 258 101 263 104 l 247 94 l 83 354 l 83 359 l 247 619 l 258 613 q 261 590 271 606 l 126 374 q 112 357 117 360 q 126 340 117 353 l 261 124 z "},"›":{"ha":367,"x_min":97,"x_max":285,"o":"m 285 359 l 285 354 l 120 94 l 110 101 q 102 110 104 104 q 106 124 101 116 l 242 340 q 256 357 250 353 q 242 374 251 360 l 106 590 q 110 613 97 606 l 120 619 l 285 359 z "},"«":{"ha":528,"x_min":83,"x_max":433,"o":"m 261 124 q 265 110 267 116 q 258 101 263 104 l 247 94 l 83 354 l 83 359 l 247 619 l 258 613 q 261 590 271 606 l 126 374 q 112 357 117 360 q 126 340 117 353 l 261 124 m 424 124 q 427 110 429 116 q 420 101 426 104 l 410 94 l 245 354 l 245 359 l 410 619 l 420 613 q 424 590 433 606 l 288 374 q 274 357 279 360 q 288 340 280 353 l 424 124 z "},"»":{"ha":530,"x_min":97,"x_max":447,"o":"m 285 359 l 285 354 l 120 94 l 110 101 q 102 110 104 104 q 106 124 101 116 l 242 340 q 256 357 250 353 q 242 374 251 360 l 106 590 q 110 613 97 606 l 120 619 l 285 359 m 447 359 l 447 354 l 283 94 l 272 101 q 265 110 267 104 q 269 124 263 116 l 404 340 q 418 357 413 353 q 404 374 413 360 l 269 590 q 272 613 259 606 l 283 619 l 447 359 z "},"/":{"ha":592,"x_min":57,"x_max":535,"o":"m 96 -40 q 85 -52 92 -49 q 71 -56 78 -56 l 57 -56 l 496 989 q 519 1004 503 1004 l 535 1004 l 96 -40 z "},"|":{"ha":322,"x_min":147,"x_max":176,"o":"m 147 1047 l 176 1047 l 176 -249 l 147 -249 l 147 1047 z "},"¦":{"ha":326,"x_min":149,"x_max":178,"o":"m 149 1047 l 178 1047 l 178 514 l 149 514 l 149 1047 m 149 285 l 178 285 l 178 -248 l 149 -248 l 149 285 z "},"\\":{"ha":592,"x_min":57,"x_max":535,"o":"m 57 1004 l 72 1004 q 95 989 89 1004 l 535 -56 l 521 -56 q 506 -52 513 -56 q 496 -40 499 -49 l 57 1004 z "},"-":{"ha":513,"x_min":100,"x_max":413,"o":"m 100 425 l 413 425 l 413 394 l 100 394 l 100 425 z "},"–":{"ha":806,"x_min":132,"x_max":674,"o":"m 132 411 l 674 411 l 674 383 l 132 383 l 132 411 z "},"—":{"ha":1090,"x_min":101,"x_max":990,"o":"m 101 411 l 990 411 l 990 383 l 101 383 l 101 411 z "},"_":{"ha":619,"x_min":36,"x_max":583,"o":"m 583 -157 l 583 -185 l 36 -185 l 36 -157 l 583 -157 z "},"•":{"ha":806,"x_min":227,"x_max":578,"o":"m 227 415 q 241 484 227 451 q 278 540 255 516 q 334 578 302 564 q 401 592 366 592 q 470 578 438 592 q 527 540 503 564 q 565 484 551 516 q 578 415 578 451 q 565 347 578 379 q 527 292 551 315 q 470 254 503 268 q 401 240 438 240 q 334 254 366 240 q 278 292 302 268 q 241 347 255 315 q 227 415 227 379 z "},"·":{"ha":324,"x_min":109,"x_max":215,"o":"m 109 410 q 125 449 109 433 q 160 465 140 465 q 199 449 183 465 q 215 410 215 433 q 211 391 215 400 q 199 374 206 381 q 182 363 192 367 q 160 358 172 358 q 141 363 150 358 q 125 374 132 367 q 113 391 117 381 q 109 410 109 400 z "},"(":{"ha":352,"x_min":84,"x_max":298,"o":"m 117 438 q 160 134 117 278 q 293 -145 204 -10 q 297 -157 298 -153 q 292 -164 295 -162 l 276 -174 q 185 -15 222 -92 q 126 135 149 61 q 94 284 103 210 q 84 438 84 359 q 94 592 84 517 q 126 741 103 667 q 185 892 149 816 q 276 1051 222 968 l 292 1041 q 297 1034 295 1039 q 293 1022 298 1030 q 161 742 205 887 q 117 438 117 597 z "},")":{"ha":352,"x_min":54,"x_max":268,"o":"m 236 438 q 192 742 236 597 q 59 1022 147 887 q 56 1034 54 1030 q 60 1041 57 1039 l 76 1051 q 167 892 131 968 q 226 741 203 816 q 258 592 249 667 q 268 438 268 517 q 258 284 268 359 q 226 135 249 210 q 167 -15 203 61 q 76 -174 131 -92 l 60 -164 q 56 -157 57 -162 q 59 -145 54 -153 q 192 134 148 -10 q 236 438 236 278 z "},"[":{"ha":406,"x_min":148,"x_max":350,"o":"m 180 1022 l 180 -149 l 336 -149 q 350 -162 350 -149 l 350 -174 l 148 -174 l 148 1047 l 350 1047 l 350 1035 q 336 1022 350 1022 l 180 1022 z "},"]":{"ha":406,"x_min":56,"x_max":258,"o":"m 258 -174 l 56 -174 l 56 -162 q 69 -149 56 -149 l 226 -149 l 226 1022 l 69 1022 q 56 1035 56 1022 l 56 1047 l 258 1047 l 258 -174 z "},"{":{"ha":406,"x_min":62,"x_max":349,"o":"m 309 1022 q 251 1010 278 1022 q 206 978 225 999 q 175 927 186 957 q 165 862 165 898 q 172 784 165 822 q 187 708 178 746 q 202 633 195 671 q 209 557 209 595 q 200 510 209 531 q 176 474 191 490 q 143 450 162 459 q 106 437 125 440 q 143 424 125 433 q 176 399 162 414 q 200 363 191 383 q 209 316 209 342 q 202 240 209 278 q 187 165 195 202 q 172 89 178 127 q 165 11 165 51 q 175 -55 165 -26 q 206 -106 186 -85 q 251 -137 225 -126 q 309 -149 278 -149 l 337 -149 q 345 -151 342 -149 q 349 -159 349 -154 l 349 -174 l 310 -174 q 236 -160 269 -174 q 180 -120 203 -146 q 144 -61 157 -95 q 132 13 132 -27 q 139 90 132 53 q 155 165 146 128 q 170 239 163 201 q 177 316 177 276 q 168 359 177 340 q 144 394 160 379 q 108 416 129 408 q 62 424 87 424 l 62 449 q 108 457 87 449 q 144 480 129 465 q 168 514 160 494 q 177 557 177 533 q 170 634 177 597 q 155 708 163 671 q 139 783 146 745 q 132 860 132 820 q 144 934 132 900 q 180 993 157 968 q 236 1033 203 1019 q 310 1047 269 1047 l 349 1047 l 349 1033 q 345 1024 349 1027 q 337 1022 342 1022 l 309 1022 z "},"}":{"ha":406,"x_min":57,"x_max":344,"o":"m 344 424 q 298 416 319 424 q 261 394 276 408 q 237 359 246 379 q 228 316 228 340 q 235 239 228 276 q 251 165 242 201 q 267 90 260 128 q 274 13 274 53 q 261 -61 274 -27 q 225 -120 249 -95 q 169 -160 202 -146 q 96 -174 136 -174 l 57 -174 l 57 -159 q 60 -151 57 -154 q 69 -149 64 -149 l 97 -149 q 154 -137 128 -149 q 200 -106 181 -126 q 230 -55 219 -85 q 241 11 241 -26 q 234 89 241 51 q 219 165 227 127 q 203 240 210 202 q 197 316 197 278 q 206 363 197 342 q 229 399 215 383 q 262 424 244 414 q 299 437 281 433 q 262 450 281 440 q 229 474 244 459 q 206 510 215 490 q 197 557 197 531 q 203 633 197 595 q 219 708 210 671 q 234 784 227 746 q 241 862 241 822 q 230 927 241 898 q 200 978 219 957 q 154 1010 181 999 q 97 1022 128 1022 l 69 1022 q 60 1024 64 1022 q 57 1033 57 1027 l 57 1047 l 96 1047 q 169 1033 136 1047 q 225 993 202 1019 q 261 934 249 968 q 274 860 274 900 q 267 783 274 820 q 251 708 260 745 q 235 634 242 671 q 228 557 228 597 q 237 514 228 533 q 261 480 246 494 q 298 457 276 465 q 344 449 319 449 l 344 424 z "},"*":{"ha":590,"x_min":113,"x_max":477,"o":"m 477 742 l 466 722 l 328 801 q 315 810 319 807 q 300 825 310 814 q 304 806 303 813 q 306 790 306 799 l 306 635 l 283 635 l 283 790 q 285 806 283 799 q 290 824 287 813 l 290 824 q 276 811 281 815 q 262 801 270 807 l 126 722 l 115 742 l 251 822 q 266 828 259 827 q 285 833 273 830 l 285 833 q 266 839 272 837 q 251 846 259 840 l 113 926 l 124 945 l 262 866 q 269 861 266 863 q 275 856 272 858 q 282 849 278 853 q 290 841 285 846 q 285 861 287 853 q 283 878 283 868 l 283 1032 l 306 1032 l 306 878 q 305 861 306 868 q 300 841 303 853 q 314 856 308 851 q 328 866 319 860 l 465 945 l 476 926 l 340 846 q 324 838 331 840 q 305 833 317 835 q 325 828 318 830 q 340 822 331 827 l 477 742 z "},"†":{"ha":806,"x_min":128,"x_max":677,"o":"m 417 632 l 417 259 l 423 -248 q 414 -252 419 -250 q 403 -253 408 -253 q 392 -252 397 -253 q 383 -248 387 -250 l 388 259 l 388 632 l 128 632 l 128 644 q 133 657 128 651 q 147 663 138 663 q 267 658 203 661 q 388 654 330 656 l 383 988 q 403 993 392 993 q 423 988 414 993 l 417 654 q 539 658 476 656 q 658 663 602 661 q 672 657 667 663 q 677 644 677 651 l 677 632 l 417 632 z "},"‡":{"ha":806,"x_min":128,"x_max":677,"o":"m 417 108 l 677 108 l 677 96 q 672 83 677 89 q 658 78 667 78 q 539 81 602 78 q 417 85 476 84 l 423 -248 q 414 -252 419 -250 q 403 -253 408 -253 q 392 -252 397 -253 q 383 -248 387 -250 l 388 85 q 267 81 330 84 q 147 78 203 78 q 133 83 138 78 q 128 96 128 89 l 128 108 l 388 108 l 388 632 l 128 632 l 128 644 q 133 657 128 651 q 147 663 138 663 q 267 658 203 661 q 388 654 330 656 l 383 988 q 403 993 392 993 q 423 988 414 993 l 417 654 q 539 658 476 656 q 658 663 602 661 q 672 657 667 663 q 677 644 677 651 l 677 632 l 417 632 l 417 108 z "},"§":{"ha":666,"x_min":86,"x_max":578,"o":"m 119 506 q 134 449 119 474 q 174 405 149 424 q 232 368 199 385 q 301 336 265 351 q 374 304 338 320 q 442 269 410 288 q 521 331 497 294 q 545 415 545 367 q 532 476 545 449 q 495 524 518 503 q 442 562 472 545 q 379 593 412 578 q 313 622 347 608 q 249 653 278 637 q 148 588 177 625 q 119 506 119 551 m 539 906 q 528 900 535 900 q 511 909 522 900 q 479 930 499 919 q 428 950 459 940 q 354 959 398 959 q 278 947 313 959 q 220 914 244 935 q 183 867 196 894 q 169 810 169 840 q 187 750 169 776 q 233 704 205 724 q 299 667 262 683 q 374 633 335 650 q 449 597 412 616 q 514 553 485 578 q 560 497 542 528 q 578 421 578 465 q 548 321 578 363 q 463 255 519 279 q 525 195 501 228 q 549 113 549 161 q 533 33 549 70 q 489 -33 518 -5 q 416 -77 459 -61 q 319 -93 374 -93 q 252 -87 282 -93 q 197 -70 222 -81 q 149 -44 172 -60 q 106 -10 127 -29 l 115 1 q 128 8 120 8 q 148 -3 135 8 q 182 -28 160 -15 q 238 -54 204 -42 q 320 -65 272 -65 q 404 -52 367 -65 q 465 -15 440 -38 q 503 41 490 9 q 516 108 516 72 q 498 174 516 146 q 449 224 479 202 q 380 264 419 246 q 301 298 342 281 q 222 334 260 315 q 153 376 183 353 q 105 430 123 399 q 86 501 86 460 q 94 551 86 527 q 118 596 101 575 q 161 635 135 617 q 226 667 188 653 q 161 726 187 692 q 136 809 136 760 q 152 877 136 844 q 196 934 167 909 q 265 973 225 958 q 353 988 305 988 q 459 971 413 988 q 546 918 505 954 l 539 906 z "},"¶":{"ha":881,"x_min":56,"x_max":832,"o":"m 832 944 l 674 944 l 674 -128 l 640 -128 l 640 944 l 394 944 l 394 -128 l 360 -128 l 360 499 q 232 518 288 499 q 136 569 176 536 q 76 647 97 602 q 56 744 56 692 q 76 840 56 797 q 136 914 97 883 q 232 960 176 944 q 360 976 288 976 l 832 976 l 832 944 z "},"^":{"ha":806,"x_min":135,"x_max":671,"o":"m 671 503 l 647 503 q 636 507 641 503 q 628 516 631 510 l 418 905 q 409 923 413 915 q 403 941 406 931 q 396 923 399 931 q 388 905 392 915 l 178 516 q 172 508 176 512 q 160 503 167 503 l 135 503 l 392 976 l 413 976 l 671 503 z "},"~":{"ha":806,"x_min":108,"x_max":702,"o":"m 550 378 q 600 388 578 378 q 639 416 623 398 q 663 458 654 434 q 672 510 672 482 l 702 510 q 692 448 702 477 q 663 396 682 418 q 615 360 643 374 q 551 347 588 347 q 478 362 516 347 q 402 395 440 377 q 328 427 364 413 q 260 442 292 442 q 209 432 231 442 q 171 404 187 422 q 147 362 156 386 q 138 309 138 338 l 108 309 q 118 372 108 342 q 147 424 128 401 q 194 459 166 447 q 258 472 222 472 q 307 465 282 472 q 357 448 332 458 q 408 425 383 438 q 458 402 433 413 q 505 385 482 392 q 550 378 528 378 z "},"'":{"ha":265,"x_min":117,"x_max":149,"o":"m 149 976 l 149 773 l 145 667 q 133 653 144 653 q 120 667 122 653 l 117 773 l 117 976 l 149 976 z "},"\"":{"ha":452,"x_min":117,"x_max":335,"o":"m 149 976 l 149 773 l 145 667 q 133 653 144 653 q 120 667 122 653 l 117 773 l 117 976 l 149 976 m 335 976 l 335 773 l 332 667 q 319 653 331 653 q 307 667 308 653 l 304 773 l 304 976 l 335 976 z "},"&":{"ha":960,"x_min":81,"x_max":933,"o":"m 346 523 q 253 476 295 505 q 182 412 212 448 q 135 334 151 376 q 118 246 118 292 q 141 145 118 188 q 199 75 163 103 q 277 33 234 47 q 360 19 319 19 q 463 32 415 19 q 551 69 510 45 q 626 124 592 92 q 687 192 660 155 l 360 509 l 346 523 m 933 0 l 901 0 q 887 1 892 0 q 874 10 881 3 l 708 171 q 641 99 678 133 q 560 42 604 66 q 464 3 515 17 q 356 -11 413 -11 q 256 6 305 -11 q 168 55 207 22 q 105 134 129 87 q 81 244 81 182 q 100 342 81 295 q 152 427 119 388 q 230 495 185 465 q 327 542 275 524 q 245 653 272 600 q 218 769 218 706 q 235 857 218 817 q 284 926 253 897 q 359 971 315 955 q 456 988 403 988 q 539 972 499 988 q 608 931 578 957 q 656 871 638 905 q 675 799 674 837 l 658 796 q 648 798 653 795 q 642 809 644 801 q 627 853 640 828 q 593 902 615 879 q 536 942 570 926 q 456 958 502 958 q 374 944 411 958 q 309 906 336 931 q 268 846 283 881 q 253 769 253 811 q 285 651 253 708 q 383 532 317 595 l 706 219 q 759 327 740 272 q 784 433 778 382 q 788 443 785 440 q 797 447 790 447 l 816 447 q 792 325 815 390 q 728 198 769 260 l 933 0 z "},"@":{"ha":1145,"x_min":89,"x_max":1066,"o":"m 766 596 q 728 604 747 601 q 681 607 709 607 q 558 580 613 607 q 465 509 503 552 q 406 411 426 465 q 385 303 385 357 q 393 248 385 274 q 415 203 400 222 q 453 173 431 184 q 506 162 476 162 q 562 171 533 162 q 618 204 591 180 q 668 269 645 228 q 708 374 692 310 l 766 596 m 739 374 q 722 262 721 305 q 736 196 723 219 q 773 165 750 173 q 821 157 796 157 q 902 178 863 157 q 972 240 942 200 q 1019 338 1001 281 q 1037 467 1037 395 q 1001 653 1037 574 q 906 785 966 733 q 767 862 847 837 q 601 888 688 888 q 476 870 537 888 q 362 822 415 853 q 264 744 308 790 q 187 642 219 699 q 137 517 155 585 q 119 374 119 450 q 159 154 119 249 q 268 -6 199 58 q 428 -104 337 -71 q 623 -137 520 -137 q 974 -39 824 -137 q 985 -36 980 -35 q 992 -43 990 -37 l 999 -58 q 827 -137 920 -110 q 623 -165 734 -165 q 415 -129 512 -165 q 245 -25 317 -94 q 131 143 172 43 q 89 374 89 244 q 107 523 89 452 q 159 653 126 593 q 240 761 193 713 q 344 843 287 810 q 466 895 401 877 q 601 914 531 914 q 719 901 661 914 q 830 864 778 889 q 925 802 881 840 q 999 716 968 765 q 1048 604 1031 666 q 1066 467 1066 542 q 1046 330 1066 392 q 993 223 1026 267 q 914 155 959 179 q 817 131 868 131 q 722 169 750 131 q 697 274 694 208 q 610 168 660 201 q 499 135 560 135 q 434 148 462 135 q 389 184 407 161 q 362 237 371 206 q 353 303 353 267 q 376 421 353 362 q 441 527 399 480 q 545 604 484 574 q 685 633 607 633 q 747 628 717 633 q 801 611 778 622 l 739 374 z "},"©":{"ha":1175,"x_min":90,"x_max":1085,"o":"m 802 278 q 807 279 806 279 q 810 278 809 278 l 825 264 q 729 202 784 226 q 594 178 674 178 q 472 200 528 178 q 376 263 417 222 q 314 360 336 303 q 292 488 292 417 q 315 615 292 558 q 378 714 338 672 q 477 777 419 755 q 603 800 535 800 q 669 795 640 800 q 723 781 698 790 q 770 758 748 772 q 815 726 792 744 l 806 715 q 797 710 803 710 q 780 719 791 710 q 746 741 768 729 q 690 762 724 752 q 605 772 656 772 q 492 752 543 772 q 403 695 440 732 q 346 606 367 658 q 326 488 326 553 q 346 369 326 422 q 402 281 366 317 q 487 226 438 245 q 594 207 536 207 q 663 212 633 207 q 717 226 693 217 q 761 249 741 235 q 802 278 781 262 m 90 488 q 107 620 90 557 q 158 740 125 684 q 235 840 190 795 q 336 918 281 885 q 455 968 392 951 q 588 986 519 986 q 720 968 656 986 q 839 918 783 951 q 939 840 894 885 q 1017 740 985 795 q 1068 620 1050 684 q 1085 488 1085 557 q 1068 356 1085 419 q 1017 237 1050 292 q 939 136 985 181 q 839 58 894 91 q 720 8 783 26 q 588 -10 656 -10 q 455 8 519 -10 q 336 58 392 26 q 235 136 281 91 q 158 237 190 181 q 107 356 125 292 q 90 488 90 419 m 116 488 q 133 363 116 423 q 180 249 149 302 q 253 153 210 197 q 349 80 297 110 q 462 32 401 49 q 588 15 522 15 q 713 32 653 15 q 826 80 774 49 q 922 153 878 110 q 996 249 965 197 q 1043 363 1026 302 q 1060 488 1060 423 q 1043 614 1060 553 q 996 728 1026 675 q 922 824 965 781 q 826 898 878 867 q 713 945 774 928 q 588 963 653 963 q 462 945 522 963 q 349 898 401 928 q 253 824 297 867 q 180 728 210 781 q 133 614 149 675 q 116 488 116 553 z "},"℗":{"ha":1175,"x_min":90,"x_max":1085,"o":"m 582 467 q 670 478 633 467 q 730 510 707 490 q 764 560 753 531 q 775 622 775 588 q 731 730 775 692 q 591 768 688 768 l 467 768 l 467 467 l 582 467 m 591 794 q 754 748 699 794 q 808 622 808 701 q 794 551 808 584 q 753 493 781 517 q 683 455 725 469 q 583 440 640 440 l 467 440 l 467 182 l 434 182 l 434 794 l 591 794 m 588 15 q 713 32 653 15 q 826 80 774 49 q 922 153 878 110 q 996 249 965 197 q 1043 363 1026 302 q 1060 488 1060 423 q 1043 614 1060 553 q 996 728 1026 675 q 922 824 965 781 q 826 898 878 867 q 713 945 774 928 q 588 963 653 963 q 462 945 522 963 q 349 898 401 928 q 253 824 297 867 q 180 728 210 781 q 133 614 149 675 q 116 488 116 553 q 133 363 116 423 q 180 249 149 302 q 253 153 210 197 q 349 80 297 110 q 462 32 401 49 q 588 15 522 15 m 588 986 q 720 968 656 986 q 839 918 783 951 q 939 840 894 885 q 1017 740 985 795 q 1068 620 1050 684 q 1085 488 1085 557 q 1068 356 1085 419 q 1017 237 1050 292 q 939 136 985 181 q 839 58 894 91 q 720 8 783 26 q 588 -10 656 -10 q 455 8 519 -10 q 336 58 392 26 q 235 136 281 91 q 158 237 190 181 q 107 356 125 292 q 90 488 90 419 q 107 620 90 557 q 158 740 125 684 q 235 840 190 795 q 336 918 281 885 q 455 968 392 951 q 588 986 519 986 z "},"®":{"ha":1175,"x_min":90,"x_max":1085,"o":"m 561 494 q 695 531 649 494 q 742 636 742 567 q 700 737 742 706 q 570 768 658 768 l 447 768 l 447 494 l 561 494 m 570 794 q 722 756 669 794 q 775 638 775 718 q 762 574 775 603 q 726 523 749 544 q 668 489 702 502 q 592 472 634 476 q 615 450 606 465 l 834 182 l 803 182 q 795 183 799 182 q 788 190 792 185 l 576 451 q 562 463 570 458 q 534 467 553 467 l 447 467 l 447 182 l 413 182 l 413 794 l 570 794 m 588 15 q 713 32 653 15 q 826 80 774 49 q 922 153 878 110 q 996 249 965 197 q 1043 363 1026 302 q 1060 488 1060 423 q 1043 614 1060 553 q 996 728 1026 675 q 922 824 965 781 q 826 898 878 867 q 713 945 774 928 q 588 963 653 963 q 462 945 522 963 q 349 898 401 928 q 253 824 297 867 q 180 728 210 781 q 133 614 149 675 q 116 488 116 553 q 133 363 116 423 q 180 249 149 302 q 253 153 210 197 q 349 80 297 110 q 462 32 401 49 q 588 15 522 15 m 588 986 q 720 968 656 986 q 839 918 783 951 q 939 840 894 885 q 1017 740 985 795 q 1068 620 1050 684 q 1085 488 1085 557 q 1068 356 1085 419 q 1017 237 1050 292 q 939 136 985 181 q 839 58 894 91 q 720 8 783 26 q 588 -10 656 -10 q 455 8 519 -10 q 336 58 392 26 q 235 136 281 91 q 158 237 190 181 q 107 356 125 292 q 90 488 90 419 q 107 620 90 557 q 158 740 125 684 q 235 840 190 795 q 336 918 281 885 q 455 968 392 951 q 588 986 519 986 z "},"™":{"ha":1027,"x_min":69,"x_max":897,"o":"m 69 976 l 391 976 l 391 951 l 246 951 l 246 583 l 216 583 l 216 951 l 69 951 l 69 976 m 897 976 l 897 583 l 872 583 l 872 919 l 873 938 l 708 659 q 697 652 706 652 l 693 652 q 681 659 684 652 l 513 938 l 515 919 l 515 583 l 488 583 l 488 976 l 510 976 q 517 975 515 976 q 522 970 519 974 l 690 696 q 693 690 692 692 q 695 683 694 687 q 698 690 697 687 q 701 696 699 692 l 864 970 q 875 976 867 976 l 897 976 z "},"℠":{"ha":1001,"x_min":115,"x_max":872,"o":"m 339 932 q 331 928 337 928 q 322 933 328 928 q 307 944 317 938 q 282 955 297 950 q 246 960 267 960 q 209 955 225 960 q 182 938 192 949 q 165 914 171 928 q 159 885 159 900 q 174 843 159 858 q 210 819 188 828 q 257 802 232 810 q 305 783 283 794 q 341 753 326 772 q 356 703 356 735 q 347 656 356 678 q 323 618 339 635 q 284 593 307 602 q 231 584 260 584 q 164 598 191 584 q 115 635 136 611 l 122 647 q 130 651 126 651 q 141 644 134 651 q 159 629 147 638 q 188 613 170 620 q 231 606 205 606 q 273 614 254 606 q 304 633 291 621 q 323 663 317 646 q 330 699 330 680 q 315 741 330 726 q 279 766 301 756 q 232 782 257 775 q 184 801 206 790 q 148 831 163 813 q 133 883 133 850 q 141 921 133 903 q 163 953 149 940 q 198 976 177 967 q 246 984 219 984 q 344 944 305 984 l 339 932 m 872 976 l 872 583 l 846 583 l 846 919 l 848 938 l 683 659 q 672 652 681 652 l 667 652 q 656 659 659 652 l 488 938 l 490 919 l 490 583 l 463 583 l 463 976 l 485 976 q 497 970 492 976 l 665 696 q 669 683 667 691 q 676 696 672 690 l 839 970 q 850 976 842 976 l 872 976 z "},"°":{"ha":574,"x_min":87,"x_max":488,"o":"m 87 790 q 102 867 87 831 q 145 930 118 903 q 209 972 172 957 q 287 988 245 988 q 365 972 328 988 q 429 930 402 957 q 472 867 456 903 q 488 790 488 831 q 472 713 488 749 q 429 650 456 677 q 365 607 402 623 q 287 592 328 592 q 209 607 245 592 q 145 650 172 623 q 102 713 118 677 q 87 790 87 749 m 117 790 q 130 724 117 755 q 166 669 143 692 q 220 633 190 646 q 287 619 251 619 q 353 633 322 619 q 408 669 385 646 q 444 724 431 692 q 458 790 458 755 q 444 857 458 826 q 408 911 431 888 q 353 948 385 934 q 287 961 322 961 q 220 948 251 961 q 166 911 190 934 q 130 857 143 888 q 117 790 117 826 z "},"¤":{"ha":806,"x_min":120,"x_max":685,"o":"m 199 465 q 215 386 199 424 q 259 322 231 349 q 324 277 287 294 q 403 261 361 261 q 483 277 445 261 q 548 322 520 294 q 592 386 576 349 q 608 465 608 424 q 592 545 608 508 q 548 611 576 583 q 483 655 520 639 q 403 672 445 672 q 324 655 361 672 q 259 611 287 639 q 215 545 231 583 q 199 465 199 508 m 578 622 q 621 551 606 590 q 637 465 637 511 q 621 381 637 420 q 578 310 606 342 l 685 203 l 666 183 l 558 291 q 488 248 527 264 q 403 233 448 233 q 319 248 358 233 q 249 291 280 264 l 140 183 l 120 202 l 229 311 q 186 382 201 342 q 170 465 170 421 q 186 550 170 510 q 228 620 201 589 l 120 728 l 140 748 l 248 640 q 318 684 279 668 q 403 699 358 699 q 488 684 448 699 q 558 641 527 668 l 666 749 l 685 728 l 578 622 z "},"€":{"ha":806,"x_min":12,"x_max":778,"o":"m 12 586 l 133 586 q 173 755 143 681 q 249 881 202 829 q 360 959 297 932 q 501 986 424 986 q 581 979 544 986 q 649 957 617 972 q 709 920 681 942 q 763 869 737 899 l 753 857 q 744 852 750 852 q 723 868 738 852 q 681 903 708 884 q 610 939 653 923 q 502 955 567 955 q 376 931 433 955 q 277 860 319 907 q 207 744 234 813 q 169 586 179 676 l 607 586 l 607 575 q 604 566 607 569 q 592 562 601 562 l 167 562 q 165 525 166 544 q 165 488 165 507 q 165 457 165 472 q 166 426 165 441 l 544 426 l 544 415 q 529 401 544 401 l 168 401 q 203 236 176 308 q 273 117 231 165 q 372 44 315 69 q 498 20 429 20 q 579 29 544 20 q 642 52 615 38 q 688 82 669 66 q 721 111 708 97 q 743 134 735 125 q 758 143 752 143 q 767 138 761 143 l 778 126 q 725 70 753 96 q 661 27 696 45 q 586 -1 627 9 q 496 -11 544 -11 q 355 16 418 -11 q 244 96 291 43 q 169 225 198 149 q 131 401 140 302 l 12 401 l 12 426 l 130 426 q 128 488 128 456 q 128 525 128 507 q 131 562 129 544 l 12 562 l 12 586 z "},"$":{"ha":806,"x_min":107,"x_max":694,"o":"m 404 20 q 512 44 465 23 q 593 99 560 65 q 643 177 626 133 q 660 273 660 222 q 640 361 660 326 q 587 420 620 397 q 511 460 554 444 q 424 491 469 476 l 404 20 m 417 956 q 318 936 360 953 q 246 889 275 918 q 202 823 217 860 q 188 745 188 785 q 205 663 188 697 q 251 606 222 629 q 319 565 281 582 q 399 535 358 549 l 417 956 m 425 526 q 523 493 474 510 q 609 449 571 476 q 670 381 647 422 q 694 279 694 340 q 674 168 694 220 q 618 77 655 117 q 526 15 581 38 q 403 -11 472 -8 l 397 -170 q 383 -185 397 -185 l 369 -185 l 376 -11 q 291 -1 330 -10 q 220 25 253 8 q 160 64 188 41 q 107 116 132 87 l 116 128 q 122 134 119 132 q 129 135 124 135 q 143 127 134 135 q 165 106 151 119 q 197 79 178 94 q 242 51 216 65 q 301 29 268 38 q 378 19 335 20 l 398 499 q 308 532 351 514 q 230 576 264 549 q 174 643 195 603 q 153 743 153 683 q 171 833 153 790 q 222 910 188 876 q 305 964 256 943 q 418 986 354 985 l 423 1111 q 436 1126 423 1126 l 450 1126 l 444 986 q 566 959 513 983 q 663 888 618 935 l 656 876 q 644 869 651 869 q 624 882 637 869 q 588 910 611 894 q 530 940 565 926 q 443 956 494 953 l 425 526 z "},"¢":{"ha":806,"x_min":124,"x_max":686,"o":"m 452 667 q 328 643 383 666 q 237 578 274 620 q 180 476 199 536 q 160 342 160 417 q 178 210 160 268 q 232 110 197 151 q 317 47 267 69 q 426 21 366 24 l 452 667 m 686 84 q 651 51 674 67 q 598 22 628 35 q 531 1 568 9 q 452 -8 494 -8 l 446 -167 q 433 -182 444 -182 l 418 -182 l 425 -8 q 301 19 357 -6 q 206 89 246 44 q 145 198 167 134 q 124 342 124 262 q 146 486 124 422 q 210 598 168 551 q 314 669 252 644 q 453 696 375 695 l 460 849 q 473 864 460 864 l 487 864 l 480 695 q 590 672 542 692 q 674 622 639 652 l 665 610 q 656 605 661 605 q 639 614 651 605 q 606 633 627 622 q 554 654 585 644 q 479 666 523 664 l 453 20 q 548 33 510 21 q 611 60 586 46 q 650 87 636 75 q 669 99 663 99 q 678 94 674 99 l 686 84 z "},"£":{"ha":806,"x_min":47,"x_max":758,"o":"m 47 458 q 51 468 47 465 q 63 472 56 472 l 188 472 l 188 688 q 206 807 188 753 q 258 901 224 862 q 345 964 293 941 q 465 986 397 986 q 557 974 517 986 q 626 940 597 961 q 675 889 655 918 q 710 828 696 860 l 695 822 q 683 820 688 819 q 673 829 678 822 q 643 876 659 853 q 603 916 626 899 q 546 945 579 934 q 465 956 513 956 q 361 936 406 956 q 286 881 317 916 q 241 796 256 845 q 226 688 226 747 l 226 472 l 572 472 l 572 458 q 568 449 572 452 q 558 446 564 446 l 226 446 l 226 212 q 197 100 226 144 q 118 28 167 57 q 172 32 145 32 l 758 32 l 758 17 q 753 6 758 11 q 740 0 749 0 l 65 0 l 65 27 q 111 52 89 38 q 151 88 133 67 q 178 138 168 110 q 188 206 188 167 l 188 446 l 47 446 l 47 458 z "},"¥":{"ha":806,"x_min":78,"x_max":728,"o":"m 429 424 l 684 424 l 684 400 l 421 400 l 421 314 l 684 314 l 684 290 l 421 290 l 421 0 l 385 0 l 385 290 l 121 290 l 121 314 l 385 314 l 385 400 l 121 400 l 121 424 l 376 424 l 78 976 l 108 976 q 124 966 119 976 l 390 469 q 397 452 394 460 q 403 437 400 444 q 409 452 406 444 q 416 469 412 460 l 681 966 q 697 976 687 976 l 728 976 l 429 424 z "},"℅":{"ha":1097,"x_min":63,"x_max":1036,"o":"m 865 968 q 872 974 869 972 q 882 976 876 976 l 906 976 l 213 8 q 197 0 207 0 l 172 0 l 865 968 m 451 574 q 456 572 453 574 l 468 559 q 395 508 437 527 q 293 489 354 489 q 199 507 242 489 q 127 557 157 524 q 80 636 97 590 q 63 740 63 683 q 80 843 63 797 q 128 922 97 889 q 203 973 160 955 q 299 991 247 991 q 388 976 349 991 q 459 932 427 961 l 449 919 q 442 915 448 915 q 429 922 438 915 q 402 939 419 930 q 360 957 385 949 q 299 965 335 965 q 216 949 254 965 q 151 905 178 933 q 109 834 124 876 q 94 740 94 792 q 109 646 94 688 q 151 575 124 604 q 215 531 178 546 q 294 515 251 515 q 343 519 322 515 q 382 530 364 522 q 415 547 399 537 q 444 571 430 557 q 451 574 448 574 m 1036 239 q 1019 136 1036 182 q 972 57 1002 90 q 898 6 941 24 q 803 -12 855 -12 q 708 6 751 -12 q 635 57 665 24 q 587 136 604 90 q 570 239 570 182 q 587 342 570 296 q 635 421 604 388 q 708 472 665 453 q 803 490 751 490 q 898 472 855 490 q 972 421 941 454 q 1019 342 1002 388 q 1036 239 1036 296 m 1004 239 q 990 333 1004 291 q 949 403 975 374 q 885 448 922 433 q 803 463 848 463 q 722 448 758 463 q 658 403 685 433 q 617 333 631 374 q 602 239 602 291 q 617 144 602 186 q 658 74 631 103 q 722 30 685 45 q 803 15 758 15 q 885 30 848 15 q 949 74 922 45 q 990 144 975 103 q 1004 239 1004 186 z "},"№":{"ha":1560,"x_min":165,"x_max":1467,"o":"m 1263 962 q 1193 949 1225 962 q 1139 910 1162 935 q 1103 850 1116 885 q 1090 769 1090 814 q 1103 689 1090 724 q 1139 629 1116 653 q 1193 591 1162 604 q 1263 578 1225 578 q 1333 591 1301 578 q 1388 629 1365 604 q 1423 689 1410 653 q 1435 769 1435 724 q 1423 850 1435 814 q 1388 910 1410 885 q 1333 949 1365 935 q 1263 962 1301 962 m 1263 552 q 1181 567 1218 552 q 1118 611 1144 583 q 1076 680 1091 640 q 1062 769 1062 720 q 1076 859 1062 819 q 1118 927 1091 899 q 1181 971 1144 956 q 1263 987 1218 987 q 1346 971 1308 987 q 1410 927 1383 956 q 1451 859 1437 899 q 1466 769 1466 819 q 1451 680 1466 720 q 1410 611 1437 640 q 1346 567 1383 583 q 1263 552 1308 552 m 865 976 l 898 976 l 898 0 l 882 0 q 867 8 873 0 l 197 914 q 198 901 197 908 q 198 889 198 894 l 198 0 l 165 0 l 165 976 l 182 976 q 191 975 188 976 q 199 967 194 973 l 866 65 q 865 78 865 72 q 865 90 865 84 l 865 976 m 1467 426 l 1467 399 l 1060 399 l 1060 426 l 1467 426 z "},"#":{"ha":806,"x_min":65,"x_max":740,"o":"m 544 635 l 319 635 l 256 342 l 481 342 l 544 635 m 740 662 l 738 649 q 719 635 736 635 l 576 635 l 512 342 l 685 342 q 699 326 701 342 l 698 315 l 508 315 l 439 0 l 426 0 q 414 5 418 0 q 412 19 409 9 l 476 315 l 251 315 l 187 18 q 180 4 185 8 q 167 0 174 0 l 151 0 l 220 315 l 80 315 q 69 318 73 315 q 66 331 65 322 l 67 342 l 224 342 l 288 635 l 103 635 l 105 648 q 123 662 106 662 l 292 662 l 356 959 q 377 976 359 976 l 392 976 l 323 662 l 549 662 l 617 976 l 633 976 q 644 971 640 976 q 644 956 647 966 l 580 662 l 740 662 z "},"₀":{"ha":464,"x_min":56,"x_max":408,"o":"m 408 88 q 394 -24 408 24 q 357 -102 381 -71 q 300 -148 333 -133 q 232 -162 268 -162 q 163 -148 195 -162 q 107 -102 131 -133 q 69 -24 83 -71 q 56 88 56 24 q 69 200 56 153 q 107 278 83 247 q 163 324 131 309 q 232 340 195 340 q 300 324 268 340 q 357 278 333 309 q 394 200 381 247 q 408 88 408 153 m 378 88 q 366 192 378 149 q 334 262 354 235 q 288 302 315 290 q 232 315 262 315 q 175 302 201 315 q 128 262 148 290 q 96 192 108 235 q 85 88 85 149 q 97 -15 85 28 q 128 -85 108 -58 q 175 -125 149 -112 q 232 -137 202 -137 q 288 -125 262 -137 q 334 -85 315 -112 q 366 -15 354 -58 q 378 88 378 28 z "},"₁":{"ha":464,"x_min":105,"x_max":378,"o":"m 378 -136 l 378 -157 l 125 -157 l 125 -136 l 240 -136 l 240 275 l 242 299 l 128 198 q 120 195 125 194 q 113 199 116 196 l 105 211 l 247 337 l 269 337 l 269 -136 l 378 -136 z "},"₂":{"ha":464,"x_min":70,"x_max":386,"o":"m 376 -131 q 386 -140 386 -131 l 386 -157 l 70 -157 l 70 -147 q 76 -133 70 -140 l 245 38 q 284 78 266 58 q 316 118 302 98 q 337 161 329 139 q 344 207 344 183 q 335 255 344 235 q 310 289 326 276 q 274 308 294 302 q 233 315 254 315 q 153 287 184 315 q 113 215 122 260 q 97 206 109 205 l 82 208 q 99 264 86 240 q 132 305 112 288 q 177 331 151 322 q 233 340 203 340 q 286 332 261 340 q 331 307 312 324 q 362 266 351 291 q 374 208 374 241 q 365 156 374 180 q 342 110 356 132 q 308 68 327 88 q 267 26 288 47 l 109 -135 q 156 -131 130 -131 l 376 -131 z "},"₃":{"ha":464,"x_min":67,"x_max":385,"o":"m 83 208 q 133 305 92 271 q 234 340 174 340 q 287 332 262 340 q 331 309 312 324 q 360 270 349 293 q 372 216 372 247 q 364 173 372 192 q 343 138 356 153 q 312 113 330 123 q 273 97 294 102 q 356 56 328 88 q 385 -23 385 25 q 373 -78 385 -53 q 339 -123 360 -104 q 289 -152 318 -142 q 227 -162 260 -162 q 157 -151 185 -162 q 111 -122 128 -140 q 83 -82 93 -103 q 67 -38 74 -60 l 78 -33 q 89 -31 83 -31 q 98 -40 95 -32 q 105 -60 100 -44 q 123 -94 110 -76 q 161 -125 137 -111 q 226 -138 186 -138 q 282 -128 258 -138 q 323 -101 306 -117 q 347 -64 339 -84 q 355 -24 355 -44 q 347 19 355 -1 q 322 53 339 39 q 277 76 305 68 q 211 84 250 84 l 211 104 q 309 135 275 106 q 343 212 343 164 q 334 258 343 238 q 310 290 325 277 q 275 308 294 302 q 233 315 255 315 q 154 287 185 315 q 113 215 123 259 q 99 206 110 205 l 83 208 z "},"₄":{"ha":464,"x_min":44,"x_max":412,"o":"m 292 8 l 292 274 q 294 301 292 286 l 74 8 l 292 8 m 412 8 l 412 -6 q 403 -15 412 -15 l 318 -15 l 318 -157 l 292 -157 l 292 -15 l 58 -15 q 47 -8 47 -15 l 44 6 l 292 334 l 318 334 l 318 8 l 412 8 z "},"₅":{"ha":464,"x_min":81,"x_max":375,"o":"m 133 138 q 176 146 156 143 q 216 149 197 149 q 286 138 256 149 q 336 108 316 128 q 365 62 356 89 q 375 3 375 35 q 361 -66 375 -35 q 325 -119 348 -97 q 271 -151 302 -140 q 206 -162 240 -162 q 133 -150 166 -162 q 81 -121 101 -137 l 89 -108 q 97 -103 92 -103 q 110 -109 101 -103 q 132 -120 119 -114 q 164 -132 146 -127 q 208 -137 183 -137 q 260 -128 235 -137 q 304 -102 285 -119 q 334 -58 323 -84 q 344 1 344 -33 q 313 90 344 56 q 213 124 281 124 q 124 111 172 124 l 105 117 l 143 334 l 363 334 l 363 322 q 358 311 363 315 q 345 307 353 307 l 164 307 l 133 138 z "},"₆":{"ha":464,"x_min":79,"x_max":394,"o":"m 232 -140 q 288 -130 263 -140 q 329 -104 312 -121 q 356 -64 347 -87 q 365 -13 365 -40 q 356 39 365 16 q 330 78 347 63 q 291 103 314 94 q 242 112 269 112 q 185 101 210 112 q 143 73 160 90 q 117 34 126 56 q 108 -10 108 12 q 117 -62 108 -38 q 142 -103 126 -85 q 181 -130 158 -120 q 232 -140 203 -140 m 175 145 q 150 111 161 127 q 130 81 139 96 q 182 120 151 106 q 248 134 213 134 q 307 124 280 134 q 353 95 333 114 q 383 49 372 76 q 394 -11 394 22 q 382 -72 394 -44 q 349 -120 370 -100 q 297 -151 327 -140 q 231 -162 267 -162 q 169 -152 197 -162 q 122 -120 142 -141 q 90 -69 101 -99 q 79 -1 79 -40 q 94 63 79 26 q 142 144 108 99 l 278 327 q 293 334 281 334 l 317 334 l 175 145 z "},"₇":{"ha":464,"x_min":72,"x_max":398,"o":"m 398 334 l 398 321 q 397 312 398 315 q 393 303 395 308 l 166 -144 q 160 -153 164 -149 q 149 -157 156 -157 l 127 -157 l 356 287 q 361 297 358 292 q 367 306 363 302 l 80 306 q 74 309 76 306 q 72 316 72 312 l 72 334 l 398 334 z "},"₈":{"ha":464,"x_min":73,"x_max":391,"o":"m 233 -140 q 285 -132 261 -140 q 326 -109 309 -124 q 352 -73 343 -94 q 362 -27 362 -52 q 349 28 362 6 q 317 64 337 51 q 275 82 298 76 q 233 87 253 87 q 189 82 212 87 q 148 64 167 76 q 116 28 128 51 q 103 -27 103 6 q 113 -73 103 -52 q 139 -109 122 -94 q 180 -132 156 -124 q 233 -140 203 -140 m 119 215 q 126 175 119 194 q 147 142 133 156 q 183 118 161 127 q 233 110 204 110 q 282 118 261 110 q 317 142 303 127 q 338 175 331 156 q 345 215 345 194 q 338 255 345 236 q 315 288 330 274 q 280 309 301 301 q 233 317 259 317 q 184 309 206 317 q 149 288 163 301 q 126 255 134 274 q 119 215 119 236 m 282 99 q 326 84 306 94 q 360 58 346 74 q 383 21 375 42 q 391 -28 391 -1 q 379 -84 391 -60 q 347 -126 367 -109 q 297 -153 326 -144 q 233 -162 267 -162 q 168 -153 197 -162 q 118 -126 139 -144 q 85 -84 97 -109 q 73 -28 73 -60 q 81 21 73 -1 q 104 58 90 42 q 139 84 119 74 q 183 99 159 94 q 115 142 138 111 q 91 215 91 173 q 101 264 91 241 q 129 303 110 287 q 174 330 147 320 q 233 340 200 340 q 291 330 265 340 q 335 303 317 320 q 363 264 353 287 q 373 215 373 241 q 350 142 373 173 q 282 99 326 111 z "},"₉":{"ha":464,"x_min":76,"x_max":379,"o":"m 223 76 q 277 86 253 76 q 318 113 301 97 q 343 151 334 130 q 351 192 351 172 q 342 242 351 219 q 317 281 333 265 q 279 306 301 297 q 231 315 257 315 q 180 307 203 315 q 140 282 157 298 q 115 245 124 267 q 106 196 106 223 q 138 108 106 140 q 223 76 169 76 m 288 44 q 310 75 300 60 q 328 103 320 89 q 279 66 308 79 q 217 53 250 53 q 160 64 185 53 q 115 93 134 74 q 86 137 97 111 q 76 194 76 163 q 88 251 76 224 q 120 298 99 278 q 169 328 141 317 q 231 340 198 340 q 291 329 263 340 q 338 298 318 318 q 368 250 357 278 q 379 188 379 222 q 375 151 379 168 q 363 116 371 133 q 343 79 355 98 q 317 39 331 60 l 188 -151 q 182 -156 185 -154 q 174 -157 178 -157 l 147 -157 l 288 44 z "},"₊":{"ha":464,"x_min":69,"x_max":394,"o":"m 394 66 l 244 66 l 244 -93 l 220 -93 l 220 66 l 69 66 l 69 89 l 220 89 l 220 247 l 244 247 l 244 89 l 394 89 l 394 66 z "},"₋":{"ha":464,"x_min":88,"x_max":376,"o":"m 88 89 l 376 89 l 376 66 l 88 66 l 88 89 z "},"₌":{"ha":464,"x_min":89,"x_max":375,"o":"m 89 37 l 375 37 l 375 14 l 89 14 l 89 37 m 89 144 l 375 144 l 375 122 l 89 122 l 89 144 z "},"₍":{"ha":232,"x_min":63,"x_max":179,"o":"m 89 90 q 174 -199 89 -66 q 172 -212 179 -208 l 158 -220 q 114 -141 132 -179 q 84 -64 96 -102 q 68 12 73 -26 q 63 90 63 50 q 68 168 63 130 q 84 244 73 206 q 114 320 96 281 q 158 399 132 358 l 172 392 q 176 387 175 390 q 174 378 177 385 q 89 90 89 244 z "},"₎":{"ha":232,"x_min":54,"x_max":169,"o":"m 144 90 q 122 240 144 168 q 58 378 99 311 q 56 387 54 385 q 60 392 57 390 l 74 399 q 119 320 101 358 q 148 244 137 281 q 165 168 160 206 q 169 90 169 130 q 165 12 169 50 q 148 -64 160 -26 q 119 -141 137 -102 q 74 -220 101 -179 l 60 -212 q 56 -207 57 -210 q 58 -199 54 -204 q 122 -60 99 -132 q 144 90 144 11 z "},"⁄":{"ha":194,"x_min":-197,"x_max":393,"o":"m -156 14 q -168 3 -162 6 q -181 0 -174 0 l -197 0 l 353 962 q 376 976 360 976 l 393 976 l -156 14 z "},"⅔":{"ha":1008,"x_min":82,"x_max":929,"o":"m 274 14 q 263 3 269 6 q 250 0 257 0 l 234 0 l 783 962 q 807 976 790 976 l 824 976 l 274 14 m 388 512 q 398 502 398 512 l 398 485 l 82 485 l 82 495 q 88 509 82 503 l 257 680 q 296 720 278 701 q 327 761 314 740 q 349 803 341 781 q 356 849 356 825 q 347 898 356 877 q 322 931 338 918 q 286 951 306 944 q 244 957 266 957 q 165 930 196 957 q 124 857 134 902 q 108 848 121 847 l 94 851 q 111 906 98 882 q 143 947 124 931 q 189 973 163 964 q 245 982 215 982 q 298 974 273 982 q 343 950 324 966 q 374 908 363 933 q 385 850 385 883 q 377 798 385 822 q 353 752 368 774 q 319 710 339 731 q 279 668 300 690 l 121 508 q 168 512 142 512 l 388 512 m 628 365 q 677 462 637 428 q 778 497 718 497 q 831 489 806 497 q 875 466 856 481 q 905 427 894 450 q 916 373 916 404 q 908 330 916 349 q 888 295 901 310 q 856 269 874 280 q 817 254 838 259 q 901 213 872 244 q 929 134 929 182 q 917 78 929 104 q 884 34 905 53 q 834 5 863 15 q 772 -6 805 -6 q 701 6 729 -6 q 655 35 673 17 q 628 75 638 53 q 612 119 618 97 l 623 124 q 634 126 628 126 q 642 117 640 125 q 649 97 644 113 q 668 63 654 81 q 706 32 681 46 q 771 19 731 19 q 827 29 803 19 q 867 56 851 40 q 891 93 883 73 q 899 133 899 113 q 891 176 899 156 q 866 210 883 196 q 822 233 849 225 q 756 241 794 241 l 756 261 q 853 292 819 263 q 888 369 888 321 q 878 415 888 395 q 854 447 869 434 q 819 465 839 459 q 778 472 799 472 q 698 444 729 472 q 658 372 667 416 q 643 363 654 362 l 628 365 z "},"⅖":{"ha":1000,"x_min":81,"x_max":914,"o":"m 274 14 q 262 3 268 6 q 249 0 256 0 l 233 0 l 783 962 q 806 976 790 976 l 823 976 l 274 14 m 388 512 q 397 502 397 512 l 397 485 l 81 485 l 81 495 q 88 509 81 503 l 256 680 q 295 720 277 701 q 327 761 313 740 q 348 803 340 781 q 356 849 356 825 q 346 898 356 877 q 321 931 337 918 q 285 951 306 944 q 244 957 265 957 q 164 930 195 957 q 124 857 133 902 q 108 848 120 847 l 93 851 q 110 906 97 882 q 143 947 123 931 q 188 973 163 964 q 244 982 214 982 q 298 974 272 982 q 342 950 323 966 q 373 908 362 933 q 385 850 385 883 q 376 798 385 822 q 353 752 367 774 q 319 710 338 731 q 278 668 299 690 l 120 508 q 167 512 141 512 l 388 512 m 672 294 q 715 303 694 300 q 755 306 736 306 q 825 295 795 306 q 875 265 855 285 q 904 219 894 246 q 914 160 914 192 q 900 91 914 122 q 864 38 887 60 q 810 6 841 17 q 745 -6 779 -6 q 672 7 705 -6 q 619 36 640 20 l 628 49 q 636 53 631 53 q 649 48 640 53 q 671 36 658 43 q 703 25 685 30 q 747 19 722 19 q 799 28 774 19 q 843 55 824 38 q 873 99 862 73 q 883 158 883 124 q 852 247 883 213 q 751 281 820 281 q 663 268 711 281 l 644 274 l 682 491 l 901 491 l 901 478 q 897 468 901 472 q 884 464 892 464 l 703 464 l 672 294 z "},"+":{"ha":806,"x_min":81,"x_max":726,"o":"m 726 451 l 417 451 l 417 128 l 388 128 l 388 451 l 81 451 l 81 480 l 388 480 l 388 801 l 417 801 l 417 480 l 726 480 l 726 451 z "},"−":{"ha":806,"x_min":121,"x_max":685,"o":"m 121 480 l 685 480 l 685 451 l 121 451 l 121 480 z "},"×":{"ha":806,"x_min":117,"x_max":689,"o":"m 669 180 l 403 444 l 137 178 l 117 199 l 383 465 l 118 729 l 140 751 l 403 486 l 666 749 l 688 728 l 424 465 l 689 200 l 669 180 z "},"÷":{"ha":806,"x_min":80,"x_max":724,"o":"m 80 480 l 724 480 l 724 451 l 80 451 l 80 480 m 349 711 q 364 749 349 733 q 401 765 379 765 q 439 749 424 765 q 455 711 455 733 q 439 674 455 689 q 401 659 424 659 q 364 674 379 659 q 349 711 349 689 m 349 217 q 364 255 349 239 q 401 270 379 270 q 439 255 424 270 q 455 217 455 239 q 439 180 455 194 q 401 165 424 165 q 364 180 379 165 q 349 217 349 194 z "},"=":{"ha":806,"x_min":121,"x_max":684,"o":"m 121 379 l 684 379 l 684 351 l 121 351 l 121 379 m 121 589 l 684 589 l 684 560 l 121 560 l 121 589 z "},"≠":{"ha":806,"x_min":122,"x_max":685,"o":"m 467 560 l 390 379 l 685 379 l 685 351 l 378 351 l 297 156 l 269 156 l 350 351 l 122 351 l 122 379 l 362 379 l 438 560 l 122 560 l 122 589 l 449 589 l 531 784 l 560 784 l 478 589 l 685 589 l 685 560 l 467 560 z "},"≈":{"ha":806,"x_min":147,"x_max":660,"o":"m 541 545 q 603 560 574 545 q 649 597 633 575 l 660 576 q 609 532 641 548 q 540 516 576 516 q 469 529 504 516 q 400 558 434 542 q 333 587 366 574 q 267 600 299 600 q 202 585 231 600 q 158 548 174 569 l 147 567 q 197 613 165 597 q 268 628 228 628 q 339 615 304 628 q 408 586 374 602 q 475 558 442 571 q 541 545 508 545 m 541 334 q 603 349 574 334 q 649 386 633 364 l 660 366 q 609 321 641 338 q 540 305 576 305 q 469 318 504 305 q 400 347 434 331 q 333 376 366 363 q 267 389 299 389 q 202 374 231 389 q 158 337 174 358 l 147 356 q 197 402 165 385 q 268 418 228 418 q 339 405 304 418 q 408 376 374 392 q 475 347 442 360 q 541 334 508 334 z "},"<":{"ha":806,"x_min":126,"x_max":638,"o":"m 201 481 q 159 466 181 471 q 201 450 182 460 l 623 236 q 638 218 638 228 l 638 195 l 126 458 l 126 474 l 638 736 l 638 713 q 623 694 638 703 l 201 481 z "},">":{"ha":806,"x_min":167,"x_max":680,"o":"m 680 474 l 680 458 l 167 195 l 167 218 q 183 236 167 228 l 605 450 q 625 459 615 455 q 647 465 635 463 q 605 481 625 470 l 183 694 q 167 713 167 703 l 167 736 l 680 474 z "},"±":{"ha":806,"x_min":81,"x_max":725,"o":"m 81 84 l 725 84 l 725 56 l 81 56 l 81 84 m 725 491 l 725 463 l 417 463 l 417 170 l 387 170 l 387 463 l 81 463 l 81 491 l 387 491 l 387 783 l 417 783 l 417 491 l 725 491 z "},"≤":{"ha":806,"x_min":144,"x_max":657,"o":"m 144 84 l 657 84 l 657 56 l 144 56 l 144 84 m 220 491 q 176 476 200 481 q 199 469 188 473 q 220 461 210 466 l 640 249 q 653 241 650 245 q 657 231 657 236 l 657 208 l 144 468 l 144 484 l 657 743 l 657 722 q 653 711 657 715 q 640 702 650 707 l 220 491 z "},"≥":{"ha":806,"x_min":149,"x_max":661,"o":"m 149 84 l 661 84 l 661 56 l 149 56 l 149 84 m 661 484 l 661 468 l 149 208 l 149 231 q 152 241 149 236 q 165 249 156 245 l 585 461 q 606 469 595 466 q 629 476 617 473 q 585 491 605 481 l 165 702 q 152 711 156 707 q 149 722 149 715 l 149 743 l 661 484 z "},"¬":{"ha":806,"x_min":123,"x_max":687,"o":"m 687 244 l 655 244 l 655 451 l 123 451 l 123 480 l 687 480 l 687 244 z "},"℮":{"ha":1163,"x_min":90,"x_max":1086,"o":"m 1042 547 q 1027 656 1042 603 q 985 755 1013 708 q 918 839 958 801 q 829 905 878 877 q 720 947 779 932 q 594 963 661 963 q 414 929 497 963 q 272 838 332 896 q 177 703 212 781 q 140 538 142 626 l 1042 538 l 1042 547 m 140 456 q 154 351 140 404 q 197 250 169 299 q 266 159 225 201 q 360 85 307 117 q 477 36 413 54 q 617 18 542 18 q 842 67 747 18 q 1007 202 938 115 l 1028 186 q 855 44 959 96 q 610 -8 750 -8 q 461 11 531 -8 q 334 64 392 30 q 231 143 276 97 q 154 245 185 190 q 107 362 123 300 q 90 489 90 424 q 127 686 90 595 q 231 844 165 778 q 390 949 298 911 q 594 988 483 988 q 793 952 703 988 q 948 853 883 916 q 1049 703 1013 790 q 1086 515 1085 616 l 140 515 l 140 456 z "},"ℓ":{"ha":656,"x_min":52,"x_max":624,"o":"m 499 958 q 398 918 447 958 q 309 809 349 878 q 240 646 268 740 q 200 444 211 552 q 360 514 288 474 q 484 605 433 555 q 564 711 536 654 q 592 831 592 769 q 567 926 592 895 q 499 958 542 958 m 52 404 q 109 417 81 410 q 164 433 138 424 q 188 583 171 511 q 228 716 204 654 q 284 828 253 778 q 350 913 315 878 q 424 968 385 949 q 503 988 463 988 q 559 974 536 988 q 597 940 583 961 q 618 891 611 919 q 624 835 624 864 q 595 703 624 765 q 510 586 565 640 q 376 489 455 533 q 198 414 297 446 q 195 371 197 392 q 194 328 194 350 q 202 183 194 242 q 225 87 210 124 q 264 34 240 50 q 317 17 287 17 q 373 29 345 17 q 427 65 401 40 q 478 130 453 90 q 525 224 503 169 l 554 216 q 519 133 542 174 q 465 60 496 92 q 396 7 434 27 q 314 -13 358 -13 q 246 4 275 -13 q 198 61 217 22 q 169 165 178 101 q 159 324 159 230 q 160 364 159 344 q 162 403 160 383 q 111 389 137 395 q 58 377 85 383 l 52 404 z "},"∞":{"ha":1038,"x_min":102,"x_max":935,"o":"m 744 236 q 806 248 777 236 q 856 282 835 260 q 890 336 877 304 q 902 410 902 369 q 890 483 902 451 q 856 538 877 515 q 806 572 835 560 q 744 584 777 584 q 682 569 710 584 q 628 531 653 555 q 581 475 603 506 q 536 410 558 443 q 581 345 558 376 q 628 290 603 314 q 682 251 653 265 q 744 236 710 236 m 294 236 q 356 251 327 236 q 409 290 384 265 q 456 345 433 314 q 501 410 478 376 q 456 475 478 443 q 409 531 433 506 q 356 569 384 555 q 294 584 327 584 q 231 572 260 584 q 180 538 202 560 q 146 483 158 515 q 133 410 133 451 q 146 336 133 369 q 180 282 158 304 q 231 248 202 260 q 294 236 260 236 m 744 614 q 817 600 782 614 q 878 560 851 586 q 920 495 904 533 q 935 410 935 458 q 920 325 935 363 q 878 260 904 287 q 817 220 851 234 q 744 206 782 206 q 675 220 706 206 q 616 260 643 235 q 565 317 589 285 q 519 383 541 349 q 472 317 496 349 q 422 260 449 285 q 363 220 394 235 q 293 206 331 206 q 220 220 255 206 q 160 260 186 234 q 118 325 133 287 q 102 410 102 363 q 118 495 102 458 q 160 560 133 533 q 220 600 186 586 q 293 614 255 614 q 363 599 331 614 q 422 559 394 584 q 472 503 449 535 q 519 437 496 471 q 565 503 541 471 q 616 559 589 535 q 675 599 643 584 q 744 614 706 614 z "},"∂":{"ha":784,"x_min":81,"x_max":705,"o":"m 326 22 q 443 49 390 22 q 537 126 496 76 q 607 245 578 176 q 650 400 635 315 q 628 477 644 439 q 585 544 612 515 q 521 593 559 574 q 431 611 483 611 q 300 584 358 611 q 202 509 242 556 q 140 397 161 461 q 118 258 118 333 q 133 159 118 203 q 175 84 148 115 q 241 38 203 54 q 326 22 280 22 m 281 933 q 327 959 306 948 q 371 976 349 969 q 414 986 392 983 q 460 990 435 990 q 565 965 519 990 q 642 894 610 941 q 689 780 673 847 q 705 626 705 712 q 694 456 705 537 q 662 304 683 374 q 608 176 640 233 q 533 78 576 119 q 438 15 491 37 q 322 -8 385 -8 q 223 11 267 -8 q 147 63 178 29 q 98 146 115 97 q 81 257 81 195 q 105 406 81 336 q 175 528 130 476 q 284 610 220 580 q 426 640 347 640 q 500 630 463 640 q 567 597 536 619 q 623 539 599 574 q 661 454 647 503 q 666 505 664 479 q 669 553 668 530 q 670 595 670 576 q 671 626 671 614 q 657 768 671 706 q 616 873 643 831 q 549 937 589 915 q 457 959 509 959 q 394 952 421 959 q 348 936 367 944 q 316 920 328 928 q 298 913 304 913 q 288 920 292 913 l 281 933 z "},"∫":{"ha":713,"x_min":11,"x_max":702,"o":"m 385 874 q 414 989 393 941 q 466 1068 435 1037 q 538 1113 497 1099 q 624 1127 578 1127 q 667 1124 647 1127 q 702 1113 688 1121 l 699 1099 q 692 1092 696 1093 q 680 1093 688 1092 q 660 1097 672 1094 q 629 1099 648 1099 q 552 1086 588 1099 q 491 1048 517 1074 q 446 978 464 1021 q 420 874 428 935 l 328 0 q 299 -115 320 -67 q 247 -194 278 -163 q 175 -239 215 -225 q 89 -253 135 -253 q 46 -250 67 -253 q 11 -240 25 -247 l 15 -225 q 21 -219 17 -219 q 33 -219 25 -218 q 53 -223 41 -221 q 84 -225 65 -225 q 161 -213 126 -225 q 223 -174 196 -201 q 267 -105 249 -147 q 292 -1 285 -62 l 385 874 z "},"√":{"ha":879,"x_min":47,"x_max":855,"o":"m 855 1197 l 465 0 l 436 0 l 244 490 l 64 490 q 52 493 57 490 q 47 506 47 497 l 47 516 l 258 516 q 270 512 265 516 q 276 503 274 508 l 440 83 q 451 42 448 60 q 455 61 453 51 q 460 80 457 70 l 818 1184 q 835 1197 824 1197 l 855 1197 z "},"∏":{"ha":925,"x_min":49,"x_max":876,"o":"m 876 944 l 722 944 l 722 -248 l 685 -248 l 685 944 l 240 944 l 240 -248 l 203 -248 l 203 944 l 49 944 l 49 976 l 876 976 l 876 944 z "},"∑":{"ha":947,"x_min":54,"x_max":876,"o":"m 876 944 l 112 944 l 585 369 l 585 360 l 111 -216 l 876 -216 l 876 -248 l 54 -248 l 54 -233 q 55 -226 54 -229 q 59 -219 56 -222 l 542 365 l 60 947 q 54 961 54 953 l 54 976 l 876 976 l 876 944 z "},"◊":{"ha":806,"x_min":104,"x_max":701,"o":"m 665 463 l 416 969 q 403 1008 407 988 q 390 969 399 988 l 142 463 l 390 -44 q 403 -83 399 -63 q 417 -44 407 -62 l 665 463 m 701 463 l 415 -119 l 390 -119 l 104 463 l 390 1044 l 415 1044 l 701 463 z "},"←":{"ha":1389,"x_min":90,"x_max":1294,"o":"m 90 440 l 466 816 l 477 806 q 481 794 483 799 q 474 783 479 789 l 175 485 q 155 466 164 474 q 137 452 145 458 q 168 455 151 454 q 208 456 185 456 l 1294 456 l 1294 422 l 208 422 q 168 423 185 422 q 138 426 151 424 q 155 413 145 421 q 175 394 164 405 l 477 92 q 484 82 482 86 q 480 71 485 77 l 469 59 l 90 440 z "},"→":{"ha":1389,"x_min":94,"x_max":1299,"o":"m 1299 439 l 922 63 l 912 73 q 908 85 906 80 q 915 95 910 90 l 1214 394 q 1234 413 1225 405 q 1251 426 1244 421 q 1220 423 1238 424 q 1180 422 1203 422 l 94 422 l 94 456 l 1180 456 q 1220 455 1203 456 q 1251 452 1238 453 q 1234 466 1244 458 q 1214 485 1225 474 l 912 787 q 905 797 907 792 q 909 808 903 801 l 919 819 l 1299 439 z "},"↑":{"ha":1042,"x_min":142,"x_max":898,"o":"m 898 671 l 888 660 q 876 657 881 655 q 865 664 871 658 l 567 963 q 548 983 556 974 q 534 1001 540 992 q 537 970 536 987 q 538 928 538 953 l 538 -157 l 504 -157 l 504 928 q 506 969 504 952 q 508 1000 507 986 q 495 983 503 992 q 476 963 487 974 l 174 661 q 164 654 169 656 q 153 658 160 652 l 142 669 l 522 1048 l 898 671 z "},"↓":{"ha":1042,"x_min":144,"x_max":901,"o":"m 901 151 l 521 -228 l 144 148 l 155 159 q 167 163 162 165 q 177 156 172 161 l 476 -143 q 508 -181 497 -164 q 505 -150 506 -167 q 504 -110 504 -133 l 504 976 l 538 976 l 538 -110 q 537 -150 538 -133 q 534 -181 535 -167 q 548 -164 540 -173 q 567 -143 556 -154 l 868 159 q 878 166 874 164 q 890 162 883 167 l 901 151 z "},"↗":{"ha":1042,"x_min":47,"x_max":910,"o":"m 910 858 l 910 324 l 895 325 q 884 330 886 326 q 882 342 882 335 l 882 765 q 883 793 882 781 q 885 815 884 805 q 866 790 877 803 q 838 761 855 778 l 70 -6 l 47 17 l 815 785 q 844 813 831 801 q 867 833 856 824 q 845 830 858 831 q 818 829 833 829 l 391 829 q 379 831 383 829 q 374 842 374 833 l 373 858 l 910 858 z "},"↖":{"ha":1042,"x_min":131,"x_max":994,"o":"m 994 17 l 972 -6 l 203 761 q 176 790 187 778 q 156 815 165 803 q 159 793 158 805 q 160 765 160 781 l 160 342 q 158 330 160 335 q 147 325 156 326 l 131 324 l 131 858 l 669 858 l 668 842 q 663 831 667 833 q 651 829 658 829 l 224 829 q 196 830 208 829 q 174 833 184 831 q 198 813 185 824 q 227 785 210 801 l 994 17 z "},"↘":{"ha":1042,"x_min":47,"x_max":910,"o":"m 910 533 l 910 0 l 373 0 l 374 15 q 379 26 374 24 q 391 28 383 28 l 818 28 q 845 27 833 28 q 867 25 858 26 q 843 45 856 34 q 815 72 831 56 l 47 840 l 70 863 l 838 96 q 866 67 855 79 q 885 43 876 55 q 883 65 884 53 q 882 92 882 77 l 882 515 q 884 527 882 523 q 895 533 886 532 l 910 533 z "},"↙":{"ha":1042,"x_min":131,"x_max":994,"o":"m 131 0 l 131 533 l 147 533 q 158 527 156 532 q 160 515 160 522 l 160 92 q 159 65 160 76 q 156 43 158 53 q 176 67 165 54 q 203 96 187 79 l 972 863 l 994 840 l 227 72 q 198 45 210 56 q 174 25 185 34 q 196 27 184 26 q 224 28 208 28 l 651 28 q 663 26 658 28 q 668 15 667 24 l 669 0 l 131 0 z "},"↔":{"ha":1389,"x_min":90,"x_max":1299,"o":"m 1299 439 l 922 63 l 912 73 q 908 85 906 80 q 915 95 910 90 l 1214 394 q 1234 413 1225 405 q 1251 426 1244 421 q 1220 423 1238 424 q 1180 422 1203 422 l 143 422 q 158 410 151 417 q 175 394 166 403 l 477 92 q 484 82 482 86 q 480 71 485 77 l 469 59 l 90 440 l 466 816 l 477 806 q 481 794 483 799 q 474 783 479 789 l 175 485 q 158 469 165 476 q 142 456 150 462 l 1180 456 q 1220 455 1203 456 q 1251 452 1238 453 q 1234 466 1244 458 q 1214 485 1225 474 l 912 787 q 905 797 907 792 q 909 808 903 801 l 919 819 l 1299 439 z "},"↕":{"ha":1042,"x_min":141,"x_max":902,"o":"m 522 -228 l 144 148 l 156 159 q 167 163 162 165 q 178 156 172 161 l 476 -143 q 492 -160 485 -152 q 504 -174 499 -167 l 504 928 q 505 969 504 952 q 508 1000 506 986 q 476 963 498 985 l 174 660 q 164 654 168 656 q 153 658 159 652 l 141 668 l 522 1048 l 898 671 l 888 660 q 876 657 881 655 q 865 664 871 658 l 567 963 q 548 983 556 974 q 534 1000 540 992 q 537 969 536 986 q 538 928 538 952 l 538 -176 q 551 -160 544 -168 q 567 -143 558 -153 l 869 159 q 879 166 874 164 q 890 162 884 167 l 902 151 l 522 -228 z "},"Ơ":{"ha":1147,"x_min":90,"x_max":1101,"o":"m 546 23 q 716 55 639 23 q 848 147 792 87 q 933 293 903 206 q 963 488 963 379 q 933 684 963 597 q 848 831 903 770 q 716 923 792 891 q 546 955 639 955 q 377 923 454 955 q 245 831 301 891 q 159 684 190 770 q 128 488 128 597 q 159 293 128 379 q 245 147 190 206 q 377 55 301 87 q 546 23 454 23 m 1090 1068 q 1099 1034 1096 1052 q 1101 999 1101 1017 q 1086 920 1101 953 q 1043 865 1070 888 q 982 830 1017 842 q 908 815 947 818 q 978 670 953 752 q 1003 488 1003 588 q 970 282 1003 374 q 876 125 937 190 q 732 25 816 60 q 546 -10 648 -10 q 361 25 445 -10 q 217 125 277 60 q 123 282 156 190 q 90 488 90 374 q 123 694 90 602 q 217 852 156 787 q 361 952 277 917 q 546 988 445 988 q 742 949 654 988 q 891 836 830 910 q 958 847 927 838 q 1012 870 990 856 q 1047 906 1034 885 q 1060 951 1060 926 q 1054 979 1060 969 q 1041 996 1048 989 q 1028 1011 1034 1003 q 1022 1033 1022 1019 q 1032 1059 1022 1050 q 1060 1068 1042 1068 l 1090 1068 z "},"Ư":{"ha":1092,"x_min":142,"x_max":1085,"o":"m 1074 1068 q 1082 1034 1079 1052 q 1085 999 1085 1017 q 1066 915 1085 949 q 1016 858 1047 880 q 945 825 985 835 q 862 814 905 814 l 862 367 q 837 218 862 288 q 765 98 812 149 q 652 17 718 47 q 502 -12 585 -12 q 352 17 419 -12 q 239 98 285 47 q 167 218 192 149 q 142 367 142 288 l 142 976 l 181 976 l 181 368 q 202 233 181 296 q 266 123 224 169 q 367 49 307 76 q 502 22 426 22 q 637 49 578 22 q 738 122 697 76 q 801 232 779 169 q 823 367 823 294 l 823 976 l 862 976 l 862 836 q 934 844 901 836 q 991 868 967 853 q 1029 905 1015 883 q 1043 951 1043 926 q 1037 979 1043 969 q 1024 996 1031 989 q 1011 1011 1017 1003 q 1006 1033 1006 1019 q 1016 1059 1006 1050 q 1044 1068 1026 1068 l 1074 1068 z "},"ơ":{"ha":815,"x_min":80,"x_max":808,"o":"m 384 21 q 501 44 451 21 q 584 109 551 67 q 635 210 618 151 q 651 342 651 269 q 635 475 651 415 q 584 577 618 535 q 501 643 551 620 q 384 667 451 667 q 267 643 317 667 q 184 577 217 620 q 133 475 150 535 q 117 342 117 415 q 133 210 117 269 q 184 109 150 151 q 267 44 217 67 q 384 21 317 21 m 799 788 q 806 757 804 773 q 808 726 808 742 q 794 656 808 685 q 757 606 781 626 q 702 575 733 586 q 636 561 671 564 q 675 463 662 517 q 688 342 688 408 q 668 198 688 263 q 609 87 648 133 q 514 16 570 41 q 384 -8 457 -8 q 255 16 311 -8 q 159 87 198 41 q 100 198 120 133 q 80 342 80 263 q 100 488 80 422 q 159 599 120 553 q 255 670 198 645 q 384 696 311 696 q 525 666 465 696 q 624 580 585 635 q 683 590 656 581 q 729 612 710 598 q 760 646 749 626 q 771 691 771 666 q 766 711 771 704 q 754 724 760 719 q 742 737 747 730 q 737 756 737 744 q 746 780 737 772 q 772 788 756 788 l 799 788 z "},"ư":{"ha":822,"x_min":115,"x_max":821,"o":"m 811 788 q 819 757 817 773 q 821 726 821 742 q 806 653 821 684 q 766 602 791 623 q 707 572 740 582 q 636 560 673 562 l 636 0 l 619 0 q 605 14 607 0 l 601 133 q 487 28 553 67 q 342 -11 421 -11 q 242 7 285 -11 q 171 57 199 24 q 129 138 143 90 q 115 247 115 186 l 115 685 l 151 685 l 151 247 q 163 151 151 193 q 200 79 175 108 q 261 34 224 49 q 349 18 299 18 q 486 57 423 18 q 600 166 550 97 l 600 685 l 636 685 l 636 580 q 695 590 668 581 q 742 612 722 598 q 772 646 761 626 q 783 691 783 666 q 778 711 783 704 q 766 724 773 719 q 755 737 760 730 q 749 756 749 744 q 759 780 749 772 q 784 788 768 788 l 811 788 z "},"₫":{"ha":810,"x_min":74,"x_max":741,"o":"m 81 -133 l 707 -133 l 707 -159 l 81 -159 l 81 -133 m 594 542 q 549 599 572 576 q 499 637 526 622 q 443 658 473 651 q 380 664 413 664 q 261 640 312 664 q 178 572 211 616 q 128 466 144 528 q 111 328 111 404 q 127 197 111 254 q 173 100 143 139 q 247 41 203 61 q 346 21 291 21 q 487 60 426 21 q 594 171 549 100 l 594 542 m 741 835 l 741 809 l 630 809 l 630 0 l 613 0 q 599 14 600 0 l 595 138 q 482 29 543 67 q 340 -8 421 -8 q 227 14 276 -8 q 144 80 178 37 q 92 185 110 123 q 74 328 74 248 q 93 477 74 410 q 151 592 113 544 q 245 667 190 640 q 374 693 301 693 q 501 664 449 693 q 594 578 554 635 l 594 809 l 420 809 l 420 835 l 594 835 l 594 1004 l 630 1004 l 630 835 l 741 835 z "},"○":{"ha":922,"x_min":80,"x_max":841,"o":"m 80 453 q 110 601 80 532 q 191 723 140 671 q 313 804 243 774 q 460 834 382 834 q 608 804 539 834 q 730 723 678 774 q 811 601 781 671 q 841 453 841 532 q 811 306 841 375 q 730 184 781 236 q 608 103 678 133 q 460 73 539 73 q 313 103 382 73 q 191 184 243 133 q 110 306 140 236 q 80 453 80 375 m 113 453 q 140 318 113 381 q 214 207 167 254 q 324 133 261 160 q 460 106 388 106 q 597 133 533 106 q 707 207 660 160 q 781 317 754 253 q 808 453 808 381 q 781 589 808 526 q 707 700 754 653 q 597 774 660 747 q 460 801 533 801 q 324 774 388 801 q 214 700 261 747 q 140 590 167 653 q 113 453 113 526 z "},"◌":{"ha":922,"x_min":102,"x_max":822,"o":"m 438 790 q 444 806 438 799 q 461 813 451 813 q 478 806 471 813 q 485 790 485 799 q 478 773 485 780 q 461 765 471 765 q 444 773 451 765 q 438 790 438 780 m 565 764 q 572 781 565 774 q 589 788 579 788 q 606 781 599 788 q 613 764 613 774 q 606 747 613 754 q 589 740 599 740 q 572 747 579 740 q 565 764 565 754 m 674 692 q 681 708 674 701 q 698 715 688 715 q 715 708 708 715 q 722 692 722 701 q 715 675 722 682 q 698 667 708 667 q 681 675 688 667 q 674 692 674 682 m 744 584 q 751 601 744 594 q 768 608 758 608 q 785 601 778 608 q 793 584 793 594 q 785 567 793 574 q 768 560 778 560 q 751 567 758 560 q 744 584 744 574 m 774 454 q 781 471 774 464 q 798 478 788 478 q 815 471 808 478 q 822 454 822 464 q 815 437 822 444 q 798 430 808 430 q 781 437 788 430 q 774 454 774 444 m 308 764 q 315 781 308 774 q 331 788 322 788 q 348 781 341 788 q 356 764 356 774 q 348 747 356 754 q 331 740 341 740 q 315 747 322 740 q 308 764 308 754 m 200 692 q 207 708 200 701 q 224 715 214 715 q 241 708 233 715 q 248 692 248 701 q 241 675 248 682 q 224 667 233 667 q 207 675 214 667 q 200 692 200 682 m 128 584 q 135 601 128 594 q 151 608 142 608 q 168 601 161 608 q 176 584 176 594 q 168 567 176 574 q 151 560 161 560 q 135 567 142 560 q 128 584 128 574 m 102 454 q 109 471 102 464 q 126 478 116 478 q 143 471 135 478 q 150 454 150 464 q 143 437 150 444 q 126 430 135 430 q 109 437 116 430 q 102 454 102 444 m 744 326 q 751 343 744 336 q 768 351 758 351 q 785 343 778 351 q 793 326 793 336 q 785 309 793 317 q 768 302 778 302 q 751 309 758 302 q 744 326 744 317 m 128 326 q 135 343 128 336 q 151 351 142 351 q 168 343 161 351 q 176 326 176 336 q 168 309 176 317 q 151 302 161 302 q 135 309 142 302 q 128 326 128 317 m 674 217 q 681 234 674 227 q 698 242 688 242 q 715 234 708 242 q 722 217 722 227 q 715 200 722 208 q 698 193 708 193 q 681 200 688 193 q 674 217 674 208 m 200 217 q 207 234 200 227 q 224 242 214 242 q 241 234 233 242 q 248 217 248 227 q 241 200 248 208 q 224 193 233 193 q 207 200 214 193 q 200 217 200 208 m 565 147 q 572 164 565 157 q 589 171 579 171 q 606 164 599 171 q 613 147 613 157 q 606 130 613 138 q 589 122 599 122 q 572 130 579 122 q 565 147 565 138 m 308 147 q 315 164 308 157 q 331 171 322 171 q 348 164 341 171 q 356 147 356 157 q 348 130 356 138 q 331 122 341 122 q 315 130 322 122 q 308 147 308 138 m 438 118 q 444 135 438 128 q 461 142 451 142 q 478 135 471 142 q 485 118 485 128 q 478 101 485 108 q 461 93 471 93 q 444 101 451 93 q 438 118 438 108 z "},"͏":{"ha":0,"x_min":0,"x_max":0,"o":""},"᷂":{"ha":0,"x_min":-67,"x_max":60,"o":"m -67 -59 q -61 -53 -67 -56 q -49 -47 -56 -50 q -34 -43 -42 -44 q -22 -41 -26 -41 q -14 -43 -17 -41 q -8 -48 -12 -45 q 1 -55 -5 -51 q 21 -63 8 -59 q 51 -78 42 -69 q 60 -99 60 -87 q 50 -122 60 -112 q 26 -139 39 -132 q 3 -153 14 -147 q -8 -166 -8 -159 q 1 -179 -8 -173 q 22 -192 10 -185 q 42 -208 33 -199 q 51 -229 51 -217 q 43 -248 51 -240 q 27 -263 36 -256 q 11 -276 19 -269 q 4 -292 4 -283 q 15 -312 4 -304 q 35 -326 25 -320 q 35 -327 35 -326 q 33 -330 35 -330 q 2 -316 17 -326 q -12 -290 -12 -305 q -5 -271 -12 -279 q 10 -256 2 -263 q 26 -243 19 -249 q 33 -231 33 -237 q 23 -217 33 -224 q 1 -203 13 -210 q -20 -187 -10 -196 q -30 -167 -30 -178 q -19 -145 -30 -154 q 4 -128 -8 -136 q 27 -114 17 -121 q 38 -99 38 -108 q 29 -85 38 -91 q 6 -80 20 -80 q -5 -81 -1 -80 q -10 -83 -8 -82 q -14 -86 -12 -85 q -22 -87 -17 -87 q -38 -84 -30 -87 q -52 -77 -46 -81 q -62 -68 -58 -73 q -67 -59 -67 -63 z "},"Ɓ":{"ha":1041,"x_min":49,"x_max":952,"o":"m 630 31 q 840 90 767 31 q 914 261 914 149 q 894 352 914 312 q 838 421 874 392 q 748 465 801 449 q 631 480 696 480 l 367 480 l 367 31 l 630 31 m 367 946 l 367 509 l 598 509 q 723 529 672 509 q 808 580 775 549 q 856 651 841 612 q 871 728 871 690 q 802 890 871 833 q 593 946 734 946 l 367 946 m 593 976 q 831 913 753 976 q 908 731 908 849 q 893 652 908 690 q 850 583 878 615 q 784 530 823 552 q 697 499 744 508 q 804 473 756 492 q 884 424 851 454 q 935 352 917 394 q 952 260 952 311 q 930 150 952 198 q 867 68 908 101 q 766 17 826 35 q 630 0 706 0 l 328 0 l 328 947 l 293 947 q 134 903 187 947 q 81 784 81 860 q 85 747 81 766 q 94 709 88 727 q 95 697 96 702 q 87 689 94 691 l 67 685 q 53 735 58 711 q 49 784 49 759 q 65 864 49 828 q 111 924 81 899 q 188 963 142 949 q 293 976 233 976 l 593 976 z "},"Ƅ":{"ha":865,"x_min":74,"x_max":808,"o":"m 468 31 q 602 52 545 31 q 697 108 659 72 q 752 191 734 143 q 770 296 770 240 q 751 392 770 347 q 694 473 732 438 q 600 528 656 508 q 469 549 544 549 l 216 549 l 216 31 l 468 31 m 468 581 q 615 558 551 581 q 722 496 678 535 q 786 405 765 457 q 808 295 808 353 q 787 178 808 232 q 724 85 766 124 q 617 23 681 45 q 468 0 553 0 l 178 0 l 178 743 l 74 798 l 188 976 l 216 976 l 216 581 l 468 581 z "},"Ɔ":{"ha":957,"x_min":65,"x_max":867,"o":"m 88 145 q 92 144 90 145 q 97 140 94 142 q 159 90 128 112 q 228 52 191 67 q 309 29 265 37 q 410 22 354 22 q 576 53 500 22 q 709 145 653 85 q 797 292 765 206 q 828 488 828 378 q 797 682 828 596 q 708 829 765 769 q 572 922 651 890 q 399 955 493 955 q 311 947 350 955 q 240 928 272 940 q 186 903 209 917 q 146 878 163 890 q 119 859 129 867 q 105 851 109 851 q 94 856 98 851 l 83 872 q 151 921 116 899 q 225 958 186 943 q 306 980 263 972 q 399 988 349 988 q 589 951 503 988 q 738 850 676 915 q 833 692 799 784 q 867 488 867 600 q 834 281 867 374 q 740 124 800 189 q 595 24 679 59 q 412 -11 512 -11 q 301 -1 351 -11 q 209 27 251 9 q 131 70 167 45 q 65 126 96 96 l 80 142 q 88 145 83 145 z "},"Ƈ":{"ha":947,"x_min":90,"x_max":1101,"o":"m 892 126 q 826 70 862 96 q 749 27 791 45 q 656 -1 706 9 q 546 -11 606 -11 q 362 24 446 -11 q 218 124 278 59 q 124 281 158 189 q 90 488 90 374 q 124 692 90 600 q 220 850 158 784 q 368 951 282 915 q 559 988 455 988 q 716 964 647 988 q 844 895 785 940 q 843 928 843 913 q 842 960 842 943 q 852 1047 842 1008 q 882 1114 862 1086 q 931 1156 901 1141 q 1001 1172 961 1172 q 1051 1167 1027 1172 q 1101 1152 1075 1162 l 1097 1135 q 1090 1127 1095 1127 q 1077 1128 1084 1126 q 1039 1137 1058 1134 q 1003 1140 1020 1140 q 906 1091 938 1140 q 874 954 874 1041 l 874 872 l 863 856 q 853 851 860 851 q 839 859 849 851 q 812 878 828 867 q 772 903 795 890 q 717 928 749 917 q 647 947 686 940 q 559 955 608 955 q 385 922 465 955 q 249 829 306 890 q 161 682 192 769 q 129 488 129 596 q 161 292 129 378 q 249 145 192 206 q 381 53 305 85 q 547 22 458 22 q 648 29 603 22 q 730 52 692 37 q 798 90 767 67 q 861 140 830 112 q 870 145 866 145 q 878 142 874 145 l 892 126 z "},"Ɗ":{"ha":1228,"x_min":49,"x_max":1138,"o":"m 681 31 q 850 62 774 31 q 982 151 927 92 q 1067 294 1037 209 q 1097 488 1097 379 q 1067 682 1097 597 q 982 826 1037 767 q 850 915 927 884 q 681 945 774 945 l 367 945 l 367 31 l 681 31 m 681 976 q 867 943 783 976 q 1011 847 951 910 q 1105 693 1072 784 q 1138 488 1138 603 q 1105 283 1138 374 q 1011 130 1072 192 q 867 33 951 67 q 681 0 783 0 l 328 0 l 328 947 l 293 947 q 134 903 187 947 q 81 784 81 860 q 85 747 81 766 q 94 709 88 727 q 95 697 96 702 q 87 689 94 691 l 67 685 q 53 735 58 711 q 49 784 49 759 q 65 864 49 828 q 111 924 81 899 q 188 963 142 949 q 293 976 233 976 l 681 976 z "},"Ƌ":{"ha":837,"x_min":80,"x_max":682,"o":"m 644 31 l 644 492 l 395 492 q 188 436 258 492 q 118 267 118 381 q 189 92 118 153 q 396 31 259 31 l 644 31 m 682 976 l 682 0 l 396 0 q 261 18 319 0 q 162 72 202 37 q 101 156 122 106 q 80 269 80 206 q 159 458 80 392 q 395 524 239 524 l 644 524 l 644 946 l 109 946 l 109 976 l 682 976 z "},"Ǝ":{"ha":807,"x_min":75,"x_max":652,"o":"m 652 0 l 76 0 l 75 33 l 614 33 l 614 479 l 160 479 l 160 511 l 614 511 l 614 944 l 76 944 l 76 976 l 652 976 l 652 0 z "},"Ə":{"ha":977,"x_min":83,"x_max":885,"o":"m 119 403 q 146 244 119 315 q 218 125 172 174 q 325 50 263 76 q 458 24 387 24 q 609 51 542 24 q 726 128 677 78 q 805 248 775 178 q 843 403 835 318 l 119 403 m 108 858 q 171 910 136 886 q 248 952 206 934 q 342 979 291 969 q 452 989 392 989 q 632 954 551 989 q 768 853 712 919 q 855 691 824 787 q 885 473 885 595 q 857 279 885 367 q 773 127 828 190 q 638 28 717 63 q 457 -8 558 -8 q 310 20 378 -8 q 191 101 242 48 q 112 233 141 155 q 83 413 83 311 q 100 433 83 433 l 845 433 q 846 453 846 443 q 847 473 847 463 q 818 679 847 589 q 737 830 789 769 q 611 924 685 892 q 449 956 538 956 q 350 947 394 956 q 274 926 307 939 q 216 898 240 913 q 175 870 192 883 q 147 849 158 858 q 130 841 136 841 q 119 847 123 841 l 108 858 z "},"Ɛ":{"ha":822,"x_min":92,"x_max":753,"o":"m 753 119 q 706 70 736 94 q 636 29 676 47 q 548 0 597 11 q 444 -11 499 -11 q 300 9 365 -11 q 189 67 235 30 q 117 157 142 105 q 92 272 92 209 q 108 359 92 316 q 156 438 124 401 q 237 500 188 474 q 351 538 285 526 q 244 567 288 547 q 173 615 200 588 q 132 675 145 642 q 119 743 119 708 q 142 839 119 794 q 206 916 164 883 q 309 967 249 949 q 447 986 370 986 q 618 958 547 986 q 738 885 689 931 l 729 873 q 717 866 724 866 q 693 880 710 866 q 645 910 676 894 q 565 940 613 926 q 446 954 516 954 q 322 937 375 954 q 232 891 268 920 q 177 823 196 862 q 159 742 159 785 q 183 658 159 694 q 247 599 206 622 q 341 564 287 576 q 456 552 395 552 l 612 552 l 612 522 l 453 522 q 315 502 375 522 q 214 448 255 482 q 152 369 173 414 q 131 274 131 324 q 153 173 131 219 q 218 93 176 126 q 319 40 260 59 q 450 22 378 22 q 534 30 496 22 q 601 50 572 38 q 654 76 631 62 q 691 102 676 90 q 714 123 706 115 q 723 133 722 132 q 727 136 726 135 q 732 138 729 138 q 740 134 736 138 l 753 119 z "},"Ƒ":{"ha":783,"x_min":-73,"x_max":731,"o":"m 193 944 l 193 497 l 662 497 l 662 464 l 193 464 l 193 -42 q 182 -133 193 -92 q 151 -201 172 -173 q 99 -244 130 -229 q 29 -260 69 -260 q -22 -255 3 -260 q -73 -240 -47 -250 l -68 -223 q -61 -215 -67 -215 q -49 -216 -56 -215 q -11 -225 -30 -222 q 26 -228 8 -228 q 123 -179 91 -228 q 155 -42 155 -129 l 155 976 l 731 976 l 731 944 l 193 944 z "},"Ɠ":{"ha":1028,"x_min":90,"x_max":1131,"o":"m 903 874 l 894 859 q 878 853 888 851 q 852 872 871 856 q 799 906 834 888 q 708 940 763 924 q 574 955 653 955 q 389 923 472 955 q 249 831 307 891 q 160 684 191 770 q 128 488 128 597 q 160 292 128 378 q 248 144 191 205 q 384 52 305 84 q 560 20 464 20 q 662 26 617 20 q 747 44 708 33 q 822 73 787 56 q 892 111 857 90 l 892 399 l 686 399 q 678 402 681 399 q 674 410 674 406 l 674 429 l 928 429 l 928 96 q 853 51 892 71 q 769 17 814 31 q 673 -4 724 3 q 559 -11 621 -11 q 367 24 453 -11 q 219 124 281 59 q 123 281 157 189 q 90 488 90 374 q 123 695 90 603 q 220 852 157 787 q 373 952 283 917 q 574 988 463 988 q 665 982 623 988 q 743 965 706 976 q 811 937 779 954 q 873 898 843 920 q 872 928 872 914 q 872 960 872 943 q 881 1047 872 1008 q 911 1114 891 1086 q 960 1156 931 1141 q 1030 1172 990 1172 q 1080 1167 1056 1172 q 1131 1152 1104 1162 l 1126 1135 q 1119 1127 1124 1127 q 1106 1128 1113 1126 q 1069 1137 1088 1134 q 1032 1140 1049 1140 q 935 1091 967 1140 q 903 954 903 1041 l 903 874 z "},"Ɣ":{"ha":874,"x_min":-6,"x_max":880,"o":"m 652 31 q 645 36 649 33 q 640 43 642 40 l 435 340 q 432 331 434 335 q 427 323 431 327 l 233 40 q 222 31 228 35 l 652 31 m 461 360 l 713 0 l 163 0 l 414 361 l -6 977 l 31 977 q 42 973 38 977 q 49 965 46 969 l 439 385 l 442 390 l 827 965 q 834 973 831 969 q 843 977 838 977 l 880 977 l 461 360 z "},"Ɩ":{"ha":394,"x_min":149,"x_max":374,"o":"m 149 976 l 188 976 l 188 176 q 330 22 188 22 l 374 22 l 374 8 q 363 -5 374 -1 q 319 -9 352 -9 q 193 39 238 -9 q 149 174 149 88 l 149 976 z "},"Ƙ":{"ha":890,"x_min":155,"x_max":864,"o":"m 193 513 l 256 513 q 279 514 269 513 q 298 518 289 515 q 314 527 306 521 q 331 544 322 533 l 595 897 q 670 964 628 941 q 769 986 712 986 q 821 981 798 986 q 864 967 844 976 l 860 950 q 853 942 859 942 q 837 944 847 941 q 806 952 823 949 q 770 956 790 956 q 627 882 685 956 l 367 536 q 346 514 356 522 q 322 502 335 506 q 351 491 338 499 q 378 468 364 483 l 843 0 l 815 0 q 796 3 802 0 q 784 13 790 6 l 347 448 q 332 463 339 456 q 316 474 324 469 q 296 481 308 478 q 268 483 285 483 l 193 483 l 193 0 l 155 0 l 155 978 l 193 978 l 193 513 z "},"Ɯ":{"ha":1465,"x_min":143,"x_max":1310,"o":"m 1310 976 l 1310 0 l 1294 0 q 1281 5 1285 0 q 1277 20 1278 9 l 1273 210 q 1220 121 1251 161 q 1151 51 1189 81 q 1071 6 1114 22 q 983 -10 1028 -10 q 811 56 878 -10 q 722 240 744 121 q 679 129 708 176 q 611 51 650 82 q 526 5 572 20 q 431 -10 479 -10 q 311 14 364 -10 q 220 83 258 38 q 163 197 183 129 q 143 351 143 264 l 143 976 l 182 976 l 182 351 q 200 211 182 272 q 250 107 217 149 q 330 43 283 65 q 435 21 377 21 q 538 42 488 21 q 625 105 587 63 q 685 208 663 147 q 708 351 708 270 l 708 976 l 746 976 l 746 351 q 763 214 746 275 q 812 110 780 153 q 889 44 844 67 q 990 21 933 21 q 1077 39 1035 21 q 1156 88 1119 56 q 1221 165 1192 120 q 1272 263 1251 209 l 1272 976 l 1310 976 z "},"Ɲ":{"ha":1043,"x_min":-73,"x_max":888,"o":"m 888 976 l 888 0 l 872 0 q 857 8 863 0 l 187 914 q 188 901 188 908 q 188 889 188 894 l 188 -58 q 178 -148 188 -108 q 148 -216 168 -188 q 98 -260 128 -244 q 28 -275 68 -275 q -22 -270 2 -275 q -73 -256 -47 -265 l -68 -238 q -61 -230 -67 -231 q -49 -231 -56 -230 q -11 -241 -30 -237 q 26 -244 8 -244 q 123 -194 91 -244 q 155 -58 155 -144 l 155 976 l 172 976 q 181 975 178 976 q 189 967 185 973 l 856 65 q 855 78 856 72 q 855 90 855 84 l 855 976 l 888 976 z "},"Ɵ":{"ha":1093,"x_min":90,"x_max":1003,"o":"m 128 485 q 160 291 129 377 q 246 145 191 205 q 378 55 301 86 q 546 23 454 23 q 715 55 638 23 q 847 145 792 86 q 932 291 901 205 q 963 485 963 377 l 128 485 m 963 517 q 926 701 958 619 q 840 839 894 782 q 710 925 785 895 q 546 955 635 955 q 383 925 457 955 q 253 839 308 895 q 166 701 198 782 q 129 517 133 619 l 963 517 m 546 988 q 732 952 648 988 q 876 852 816 917 q 970 695 937 788 q 1003 488 1003 603 q 970 282 1003 374 q 876 125 937 190 q 732 25 816 60 q 546 -10 648 -10 q 361 25 445 -10 q 217 125 277 60 q 123 282 156 190 q 90 488 90 374 q 123 694 90 602 q 217 852 156 787 q 361 952 277 917 q 546 988 445 988 z "},"Ƣ":{"ha":1313,"x_min":91,"x_max":1164,"o":"m 508 24 q 657 55 588 24 q 777 147 726 87 q 856 293 827 207 q 885 488 885 379 q 856 684 885 597 q 777 831 827 771 q 657 924 726 892 q 508 956 588 956 q 358 924 427 956 q 238 831 289 892 q 159 684 188 771 q 130 488 130 597 q 159 293 130 379 q 238 147 188 207 q 358 55 289 87 q 508 24 427 24 m 1125 785 q 1117 851 1125 820 q 1093 905 1110 882 q 1051 941 1077 928 q 990 954 1026 954 q 941 946 965 954 q 893 924 917 938 q 849 891 870 910 q 808 851 827 872 q 893 694 863 785 q 924 488 924 603 q 893 282 924 374 q 807 125 863 190 q 676 26 752 61 q 508 -8 599 -8 q 339 26 416 -8 q 207 125 263 61 q 122 282 152 190 q 91 488 91 374 q 122 694 91 602 q 207 852 152 787 q 339 952 263 917 q 508 988 416 988 q 664 958 592 988 q 790 872 735 928 q 835 916 811 895 q 884 952 858 937 q 938 976 910 967 q 995 985 966 985 q 1070 971 1038 985 q 1123 930 1102 956 q 1154 866 1144 903 q 1164 785 1164 829 l 1164 -249 l 1125 -249 l 1125 785 z "},"Ƥ":{"ha":961,"x_min":49,"x_max":899,"o":"m 562 440 q 686 459 631 440 q 780 513 741 478 q 840 593 819 547 q 860 693 860 640 q 786 881 860 817 q 562 946 711 946 l 367 946 l 367 440 l 562 440 m 562 976 q 813 906 727 976 q 899 693 899 835 q 875 579 899 631 q 806 489 851 526 q 700 430 762 451 q 562 408 638 408 l 367 408 l 367 0 l 328 0 l 328 947 l 293 947 q 134 903 187 947 q 81 784 81 860 q 85 747 81 766 q 94 709 88 727 q 95 697 96 702 q 87 689 94 691 l 67 685 q 53 735 58 711 q 49 784 49 759 q 65 864 49 828 q 111 924 81 899 q 188 963 142 949 q 293 976 233 976 l 562 976 z "},"Ʀ":{"ha":786,"x_min":155,"x_max":803,"o":"m 193 324 l 379 324 q 503 341 448 324 q 597 388 558 357 q 656 463 635 419 q 676 561 676 506 q 603 728 676 674 q 390 781 529 781 l 193 781 l 193 324 m 803 -165 l 772 -165 q 758 -162 764 -165 q 747 -152 752 -160 l 402 269 q 391 281 397 276 q 377 289 385 286 q 360 294 370 292 q 335 295 350 295 l 193 295 l 193 0 l 155 0 l 155 986 l 193 986 l 193 812 l 390 812 q 632 750 549 812 q 715 563 715 689 q 693 458 715 506 q 632 377 672 411 q 538 322 593 342 q 415 298 482 302 q 440 276 428 291 l 803 -165 z "},"Ƨ":{"ha":731,"x_min":78,"x_max":661,"o":"m 115 890 q 221 964 164 940 q 351 988 278 988 q 467 967 416 988 q 552 914 517 947 q 604 837 586 881 q 622 745 622 793 q 600 643 622 684 q 543 573 578 601 q 461 524 507 544 q 368 488 416 505 q 275 453 321 471 q 194 409 230 435 q 136 345 158 383 q 115 253 115 308 q 133 158 115 201 q 185 85 151 115 q 269 38 219 54 q 382 21 319 21 q 461 30 426 21 q 523 51 496 38 q 569 79 549 64 q 602 107 589 94 q 625 128 616 119 q 639 137 633 137 q 651 130 646 137 l 661 116 q 607 63 635 86 q 545 23 578 39 q 471 -2 511 6 q 383 -11 431 -11 q 253 8 310 -11 q 158 63 197 28 q 98 147 119 98 q 78 256 78 196 q 100 356 78 315 q 157 426 122 397 q 238 475 192 455 q 331 512 284 494 q 424 548 378 530 q 506 593 470 567 q 563 655 541 619 q 585 746 585 692 q 569 825 585 788 q 525 892 554 863 q 451 939 495 922 q 351 956 408 956 q 257 942 294 956 q 194 912 219 928 q 156 882 169 895 q 135 868 142 868 q 124 875 128 868 l 115 890 z "},"Ƭ":{"ha":889,"x_min":47,"x_max":869,"o":"m 869 943 l 511 943 l 511 0 l 473 0 l 473 943 l 292 943 q 132 901 185 943 q 80 784 80 858 q 83 747 80 766 q 92 709 87 727 q 94 697 94 702 q 85 689 93 691 l 66 685 q 51 735 56 711 q 47 784 47 759 q 63 864 47 828 q 110 924 78 899 q 186 963 141 949 q 292 976 232 976 l 869 976 l 869 943 z "},"Ʈ":{"ha":796,"x_min":20,"x_max":776,"o":"m 418 -67 q 450 -200 418 -153 q 553 -247 483 -247 q 605 -240 585 -247 q 631 -233 625 -233 q 637 -234 633 -233 q 642 -242 640 -235 l 645 -256 q 599 -270 621 -265 q 551 -275 577 -275 q 421 -219 462 -275 q 380 -64 380 -164 l 380 943 l 20 943 l 20 976 l 776 976 l 776 943 l 418 943 l 418 -67 z "},"Ʊ":{"ha":1103,"x_min":96,"x_max":1007,"o":"m 551 -11 q 378 20 461 -11 q 233 111 296 51 q 133 258 170 171 q 96 459 96 346 q 122 635 96 553 q 193 779 148 716 q 297 885 238 842 q 424 946 357 928 q 368 942 395 942 l 98 942 l 98 962 q 102 972 98 968 q 113 976 106 976 l 462 976 l 462 930 q 330 872 390 914 q 226 767 269 829 q 158 626 183 705 q 134 459 134 547 q 150 327 134 388 q 194 218 166 267 q 262 133 223 169 q 347 71 301 96 q 445 34 394 47 q 551 22 497 22 q 708 50 633 22 q 841 133 783 78 q 934 270 899 188 q 969 459 969 351 q 944 626 969 547 q 877 767 920 705 q 773 872 833 829 q 641 930 713 914 l 641 976 l 990 976 q 1001 972 997 976 q 1005 962 1005 968 l 1005 942 l 735 942 q 707 943 722 942 q 678 946 692 944 q 805 885 745 928 q 909 779 865 842 q 981 635 954 716 q 1007 459 1007 553 q 990 319 1007 383 q 942 203 973 255 q 870 111 912 151 q 777 44 828 71 q 669 3 726 17 q 551 -11 612 -11 z "},"Ʋ":{"ha":990,"x_min":146,"x_max":899,"o":"m 633 967 q 684 982 660 977 q 733 987 708 987 q 813 970 781 987 q 864 920 844 953 q 891 841 883 888 q 899 734 899 794 q 875 517 899 617 q 810 333 851 416 q 715 186 769 250 q 598 77 660 122 q 472 10 537 33 q 345 -12 406 -12 q 257 4 294 -12 q 195 56 219 21 q 158 148 170 92 q 146 283 146 204 l 146 976 l 184 976 l 184 283 q 194 160 184 210 q 224 79 203 110 q 276 35 244 48 q 350 22 307 22 q 469 44 408 22 q 587 109 530 67 q 694 214 644 152 q 781 356 744 276 q 840 531 818 435 q 861 736 861 626 q 856 826 861 786 q 835 895 850 867 q 796 940 821 924 q 732 956 771 956 q 695 952 715 956 q 658 943 676 949 q 645 942 651 942 q 638 950 640 942 l 633 967 l 633 967 z "},"Ƴ":{"ha":962,"x_min":20,"x_max":923,"o":"m 673 878 q 742 958 704 929 q 831 986 779 986 q 876 981 856 986 q 923 967 897 976 l 919 950 q 911 942 917 942 q 899 943 906 942 q 864 952 881 949 q 831 956 848 956 q 760 932 790 956 q 704 865 730 907 l 422 410 l 422 0 l 383 0 l 383 410 l 20 976 l 53 976 q 70 966 64 976 l 379 481 q 392 458 386 469 q 403 436 398 447 q 414 459 408 448 q 426 481 419 469 l 673 878 z "},"Ƶ":{"ha":835,"x_min":58,"x_max":772,"o":"m 772 965 q 765 945 772 956 l 458 518 l 751 518 l 751 487 l 436 487 l 110 33 l 769 33 l 769 0 l 58 0 l 58 12 q 59 21 58 17 q 63 29 60 25 l 392 487 l 93 487 l 93 518 l 415 518 l 720 944 l 72 944 l 72 976 l 772 976 l 772 965 z "},"Ʒ":{"ha":803,"x_min":60,"x_max":723,"o":"m 359 585 q 527 564 458 585 q 640 506 597 543 q 703 420 683 469 q 723 314 723 370 q 697 187 723 246 q 625 84 672 128 q 512 14 578 40 q 365 -11 446 -11 q 263 0 311 -11 q 175 30 215 12 q 106 71 135 48 q 60 119 77 94 l 75 134 q 79 137 77 137 q 83 138 81 138 q 93 133 88 138 q 128 98 104 117 q 187 61 152 78 q 266 33 222 44 q 365 22 311 22 q 497 44 438 22 q 597 107 556 67 q 661 199 638 146 q 683 311 683 251 q 666 406 683 362 q 609 484 649 451 q 507 536 570 517 q 351 556 443 556 l 280 556 l 280 569 q 287 588 280 581 l 640 944 l 74 944 l 74 976 l 697 976 l 697 965 q 696 955 697 960 q 689 944 694 950 l 329 585 l 359 585 z "},"Ƹ":{"ha":804,"x_min":81,"x_max":744,"o":"m 744 119 q 698 71 727 94 q 629 30 669 48 q 541 0 590 12 q 438 -11 493 -11 q 292 14 358 -11 q 179 84 226 40 q 107 187 132 128 q 81 314 81 246 q 101 420 81 370 q 164 506 121 469 q 277 564 208 543 q 445 585 346 585 l 474 585 l 115 944 q 108 955 110 950 q 107 965 107 960 l 107 976 l 730 976 l 730 944 l 164 944 l 517 588 q 524 569 524 581 l 524 556 l 453 556 q 298 536 361 556 q 194 484 234 517 q 138 406 155 451 q 120 311 120 362 q 143 199 120 251 q 207 107 165 146 q 308 44 249 67 q 440 22 367 22 q 537 33 492 22 q 617 61 582 44 q 675 98 651 78 q 711 133 699 117 q 721 138 716 138 q 724 137 722 138 q 728 134 726 137 l 744 119 z "},"Ƽ":{"ha":783,"x_min":61,"x_max":703,"o":"m 675 961 q 669 948 675 953 q 653 943 664 943 l 283 943 l 185 581 q 277 599 233 594 q 360 605 320 605 q 508 583 444 605 q 616 523 572 562 q 681 432 659 485 q 703 315 703 378 q 680 191 703 250 q 615 86 658 132 q 509 14 572 41 q 367 -13 447 -13 q 263 -2 311 -13 q 175 28 215 10 q 107 70 136 47 q 61 117 78 93 l 74 131 q 83 135 78 135 q 87 134 85 135 q 92 131 89 133 q 111 111 94 129 q 162 73 128 94 q 246 36 196 53 q 365 19 297 19 q 495 44 439 19 q 589 110 551 69 q 645 204 626 151 q 665 315 665 257 q 645 419 665 372 q 588 500 626 466 q 492 554 550 535 q 357 573 435 573 q 267 567 315 573 q 167 547 219 560 l 142 555 l 249 946 q 211 944 230 944 q 173 944 192 944 l 108 944 q 94 956 94 944 l 94 976 l 675 976 l 675 961 z "},"Ǥ":{"ha":1103,"x_min":90,"x_max":1076,"o":"m 1076 236 l 928 236 l 928 96 q 853 51 892 71 q 769 17 814 31 q 673 -4 724 3 q 559 -11 621 -11 q 367 24 453 -11 q 219 124 281 59 q 123 281 157 189 q 90 488 90 374 q 123 695 90 603 q 220 852 157 787 q 373 952 283 917 q 574 988 463 988 q 675 981 629 988 q 761 959 722 974 q 836 924 801 945 q 903 874 871 902 l 894 859 q 878 853 888 851 q 853 872 872 856 q 799 906 834 888 q 708 940 763 924 q 574 955 653 955 q 389 923 472 955 q 249 831 307 891 q 160 684 191 770 q 128 488 128 597 q 160 292 128 378 q 248 144 191 205 q 384 52 305 84 q 560 20 464 20 q 662 26 617 20 q 747 44 708 33 q 822 73 787 56 q 892 112 857 90 l 892 236 l 680 237 q 672 239 675 237 q 668 247 668 242 l 668 265 l 892 265 l 892 406 l 680 406 q 668 417 668 406 l 668 435 l 928 435 l 928 265 l 1076 265 l 1076 236 z "},"Ƕ":{"ha":1480,"x_min":155,"x_max":1404,"o":"m 1158 678 q 1209 691 1185 687 q 1257 696 1233 696 q 1328 681 1299 696 q 1373 638 1356 665 q 1397 573 1390 610 q 1404 491 1404 535 q 1375 273 1404 367 q 1299 116 1347 179 q 1190 20 1251 52 q 1063 -12 1128 -12 q 978 3 1017 -12 q 910 50 939 18 q 866 131 882 81 q 849 250 849 181 l 849 480 l 193 480 l 193 0 l 155 0 l 155 976 l 193 976 l 193 510 l 849 510 l 849 976 l 888 976 l 888 250 q 900 148 888 191 q 935 76 913 104 q 991 33 958 47 q 1064 19 1024 19 q 1177 49 1122 19 q 1274 138 1232 78 q 1342 285 1317 197 q 1367 491 1367 374 q 1339 623 1367 581 q 1251 666 1311 666 q 1224 664 1237 666 q 1200 659 1210 661 q 1182 654 1189 656 q 1172 651 1174 651 q 1162 660 1163 651 l 1158 678 z "},"Ƿ":{"ha":941,"x_min":155,"x_max":858,"o":"m 193 10 q 470 153 352 80 q 665 305 588 226 q 781 472 743 384 q 819 657 819 559 q 800 777 819 723 q 745 871 781 832 q 659 931 710 910 q 547 953 609 953 q 445 938 493 953 q 355 897 398 924 q 271 833 311 870 q 193 751 231 796 l 193 10 m 193 792 q 274 872 234 836 q 357 933 314 908 q 447 972 399 958 q 552 985 495 985 q 676 961 620 985 q 773 893 733 937 q 835 791 813 850 q 858 663 858 732 q 691 285 858 455 q 193 -26 524 115 l 193 -249 l 155 -249 l 155 978 l 179 978 q 191 960 190 978 l 193 792 z "},"Ƞ":{"ha":988,"x_min":155,"x_max":843,"o":"m 193 793 q 270 875 232 840 q 351 936 309 911 q 441 973 393 960 q 546 985 488 985 q 669 964 614 985 q 763 901 724 942 q 822 803 801 860 q 843 675 843 746 l 843 -248 l 805 -248 l 805 674 q 787 789 805 738 q 735 877 769 841 q 651 933 701 913 q 540 953 602 953 q 436 938 484 953 q 345 897 388 924 q 266 833 303 870 q 193 751 228 796 l 193 0 l 155 0 l 155 978 l 179 978 q 191 960 190 978 l 193 793 z "}}}
